<?xml version="1.0" encoding="UTF-8"?>
<svg width="973px" height="198px" viewBox="0 0 973 198" version="1.1" xmlns="http://www.w3.org/2000/svg" xmlns:xlink="http://www.w3.org/1999/xlink">
    <title>book-illustration</title>
    <g id="Colored-Verse" stroke="none" stroke-width="1" fill="none" fill-rule="evenodd">
        <g id="Artboard" transform="translate(-525.000000, -1027.000000)" fill-rule="nonzero">
            <g id="book-illustration" transform="translate(525.000000, 1027.000000)">
                <g id="Group" transform="translate(14.000000, 20.000000)">
                    <path d="M504.251506,168.155097 C336.943974,168.388275 169.636442,168.630422 1.82029452,161.294263 C-3.1141623,140.075006 2.14152498,116.694362 15.6688967,99.6812883 C15.6778197,99.6633515 15.6956659,99.6454147 15.7045889,99.6274778 C5.61259859,84.9641279 13.9824367,61.3951472 31.0254974,56.4625218 C30.4365748,56.444585 29.8654985,56.4266482 29.2765759,56.4087114 C24.7525803,56.2652168 20.2285846,56.1217222 15.7045889,55.9692593 C25.627041,24.3914886 56.8667034,0.858381499 89.8106719,0.14987713 C222.871468,-2.71104557 356.512263,38.0772819 465.543236,114.802027 C476.340148,122.39827 485.602293,132.173837 492.713979,143.32157 C495.640745,147.904427 498.210589,152.702527 500.369971,157.688962 C501.851201,161.096958 503.153969,164.594638 504.251506,168.155097 Z" id="Path" fill="#FDD26F"></path>
                    <path d="M480.337683,127.546137 C477.045071,129.070767 473.770305,130.622302 470.504462,132.191774 C467.238619,130.622302 463.954929,129.070767 460.67124,127.546137 C326.798445,65.3860895 175.918282,40.4539105 29.285499,56.3997429 C24.7615033,56.2562484 20.2375077,56.1127538 15.713512,55.9602909 C25.635964,24.3825202 56.8756265,0.849413089 89.819595,0.140908721 C222.880391,-2.72001398 356.521186,38.0683135 465.552159,114.793059 C467.247542,115.985857 468.898309,117.232466 470.522308,118.523917 C473.975535,121.322061 477.259224,124.326478 480.337683,127.546137 Z" id="Path" fill="#FFEAB8"></path>
                    <path d="M436.748494,168.155097 C604.056026,168.388275 771.363558,168.630422 939.179705,161.294263 C944.114162,140.075006 938.858475,116.694362 925.331103,99.6812883 C925.32218,99.6633515 925.304334,99.6454147 925.295411,99.6274778 C935.387401,84.9641279 927.017563,61.3951472 909.974503,56.4625218 C910.563425,56.444585 911.134502,56.4266482 911.723424,56.4087114 C916.24742,56.2652168 920.771415,56.1217222 925.295411,55.9692593 C915.372959,24.3914886 884.133297,0.858381499 851.189328,0.14987713 C718.128532,-2.71104557 584.487737,38.0772819 475.456764,114.802027 C464.659852,122.39827 455.397707,132.173837 448.286021,143.32157 C445.359255,147.904427 442.789411,152.702527 440.630029,157.688962 C439.139876,161.096958 437.837108,164.594638 436.748494,168.155097 Z" id="Path" fill="#FDD26F"></path>
                    <path d="M925.295411,55.9692593 C920.771415,56.1127538 916.238497,56.2562484 911.723424,56.4087114 C765.099564,40.4628789 614.210478,65.3950579 480.337683,127.555106 C477.045071,129.079735 473.770305,130.63127 470.504462,132.200742 C467.238619,130.63127 463.954929,129.079735 460.67124,127.555106 C463.758622,124.335447 467.042311,121.313093 470.513385,118.541854 C472.119537,117.241435 473.779228,116.003794 475.465688,114.810996 C584.487737,38.0862503 718.137455,-2.70207716 851.198251,0.15884554 C884.133297,0.858381499 915.372959,24.3914886 925.295411,55.9692593 Z" id="Path" fill="#FFEAB8"></path>
                    <path d="M436.748494,168.917411 C604.056026,169.15059 771.363558,169.392737 939.179705,162.056578 C944.114162,140.837321 938.858475,117.456676 925.331103,100.443603 C763.234643,83.959666 594.651112,105.474881 440.630029,158.451277 C439.139876,161.859273 437.837108,165.356953 436.748494,168.917411 Z" id="Path" fill="#FFEAB8"></path>
                    <path d="M504.251506,168.155097 C336.943974,168.388275 169.636442,168.630422 1.82029452,161.294263 C-3.1141623,140.075006 2.14152498,116.694362 15.6688967,99.6812883 C177.765357,83.1973512 346.348888,104.712566 500.369971,157.688962 C501.851201,161.096958 503.153969,164.594638 504.251506,168.155097 Z" id="Path" fill="#FFEAB8"></path>
                </g>
                <path d="M58.1914541,155.820756 C48.3346778,155.820756 26.1079147,154.698462 5.98440585,155.078594 C3.54249202,155.123848 1.56400709,157.05166 1.45706196,159.477265 C0.975808868,170.718313 0.494555778,181.968412 0,193.20946 C-0.111466633,195.879435 2.08090856,198.087821 4.76344893,197.997313 C175.225076,192.729769 345.695615,200.137494 517.520793,195.023812 C520.158773,194.942356 522.19073,186.955382 521.985752,184.339712 L521.352993,176.203075 C521.165839,173.822725 519.187354,171.98542 516.790001,171.958267 C350.686388,170.347231 285.449858,158.038193 58.1914541,155.820756 Z" id="Path" fill="#258C31"></path>
                <path d="M973,193.218631 C973.102937,195.879763 970.933131,198.079271 968.256443,197.997807 C808.544453,193.055705 648.832464,199.965729 488,195.901619 L488,171.522258 C632.087604,168.806817 702.695243,157.881692 914.9539,155.817957 C924.789171,155.817957 946.958547,154.704627 967.03815,155.075737 C969.483629,155.120994 971.448904,157.048957 971.555616,159.483803 C972.035819,170.716677 972.524915,181.967654 973,193.218631 Z" id="Path" fill="#30AC45"></path>
                <path d="M5.31865865,27.3969592 L70.4905924,32.5600758 C75.3358546,32.9415432 76.7163482,39.2934185 72.4485475,41.5910941 C53.9878281,51.5269885 35.5271086,61.4540116 17.0573664,71.389906 C13.0512278,73.5456403 8.48567357,69.6156392 10.1368523,65.4283694 L33.4969709,6.07914291 C35.2022866,1.74993177 41.5363164,2.06042847 42.7904904,6.54045229 L59.4285973,65.8187081 C60.6286343,70.1035626 55.7833721,73.5722543 52.0118273,71.123766 C35.2474008,60.2475102 18.5010199,49.0341436 1.84486735,35.9577968 C-1.92667748,32.9947712 0.509487845,27.0154919 5.31865865,27.3969592 Z" id="Path" fill="#3C99C7"></path>
                <path d="M932.005583,53.3345599 C924.881754,56.3939621 916.67803,55.1809047 910.695059,50.1681232 C905.095277,45.4764452 899.330027,40.303112 896.717376,35.2100546 C891.979769,25.9783308 891.082758,13.9012736 898.11079,5.82017039 C902.639385,0.611159044 909.859011,-1.56520871 916.103247,1.21768776 C922.373609,4.01842332 924.559527,10.5921243 926.048738,16.8090437 C927.947265,8.83497491 934.94917,1.3158027 942.891629,2.4307452 C950.093837,3.44757276 956.111643,14.1956184 955.998428,21.6434343 C955.885213,29.0912502 951.957528,35.9236178 947.367971,41.6945602 C942.395225,47.9471577 938.955234,50.3554335 932.005583,53.3345599 Z" id="Path" fill="#3C99C7"></path>
            </g>
        </g>
    </g>
</svg>