<?xml version="1.0" encoding="UTF-8"?>
<svg width="507px" height="446px" viewBox="0 0 507 446" version="1.1" xmlns="http://www.w3.org/2000/svg" xmlns:xlink="http://www.w3.org/1999/xlink">
    <title>girl-tongue-illlustration</title>
    <g id="Colored-Verse" stroke="none" stroke-width="1" fill="none" fill-rule="evenodd">
        <g id="Artboard" transform="translate(-25.000000, -833.000000)" fill-rule="nonzero">
            <g id="girl-tongue-illlustration" transform="translate(25.000000, 834.000000)">
                <path d="M485.884037,284.747199 C484.943873,295.15186 476.342249,305.334523 467.939169,308.664481 C470.175708,338.651636 470.858933,404.099929 464.114278,445 L31.5629526,445 C20.1466762,404.578975 23.8430972,360.249631 28.4855216,318.660199 C28.4738425,286.540703 30.8096536,253.82532 40.4156764,223.353277 C51.8611504,220.753572 64.4570114,222.336763 75.7039415,227.869168 C75.7272996,227.75817 75.7448182,227.670539 75.7564972,227.641329 C75.7564972,227.664697 75.7448182,227.734802 75.7214601,227.87501 C75.7214601,227.87501 75.7214601,227.87501 75.7272996,227.87501 C75.7156206,227.927589 75.7039415,227.986009 75.6922624,228.038587 C76.6149078,228.13206 82.3142867,225.468093 83.8267244,224.644366 C94.3612321,218.919174 99.850388,216.868621 109.181953,209.344082 C127.447995,194.616318 144.756355,178.398835 158.374133,159.289546 C171.997751,140.174415 181.843195,117.963006 184.044696,94.5948749 C184.097252,94.06325 184.138129,93.531625 184.179006,93 C187.939661,102.481619 192.220035,111.717873 197.539845,120.410818 C215.729973,150.13508 245.155353,171.715549 276.974938,185.911689 C277.085889,185.958425 277.19684,186.011004 277.301952,186.05774 C291.369374,192.308715 305.927316,197.245233 320.753876,201.363866 C339.37029,206.545749 358.395471,210.448227 377.379775,214.093655 C388.685101,216.261049 400.019624,218.352497 411.400863,220.105107 C411.873865,220.181053 412.346866,220.251158 412.825708,220.321262 C416.814105,220.63089 420.779144,221.185883 424.697467,221.980399 C430.174944,223.096228 435.558988,224.691103 440.767847,226.735814 C442.362038,227.360911 443.967908,228.038587 445.67305,228.196322 C447.378192,228.354057 449.235162,227.892536 450.344672,226.589763 C451.168046,225.614144 451.862949,224.147793 452.143247,222.909283 C452.242519,222.482814 452.400186,221.898611 452.581211,221.238461 C453.865907,224.486631 455.354987,227.653013 457.124364,230.714238 C462.350741,239.751863 469.749422,247.317295 475.83421,255.805769 C481.918998,264.294243 486.824201,274.348381 485.884037,284.747199 Z" id="Path" fill="#141421"></path>
                <path d="M404.459937,382.015269 C397.100617,404.315582 386.920224,426.185926 372.978401,445 L107.488007,445 C94.7201702,413.071855 90.24033,357.960215 92.6058258,329.773967 C97.0506215,276.713398 128.684017,255.371801 129.162957,227.307571 C129.314816,218.324693 128.099944,208.876984 131.902259,200.724993 C136.726702,190.376672 148.291348,185.025294 159.306965,181.876057 C197.289234,171.01642 238.028328,176.576973 276.150774,187.454041 C278.329367,188.075753 280.496278,188.709087 282.651507,189.365662 C295.168192,193.159853 307.597266,197.488601 319.611648,202.677287 C334.832591,209.25466 349.381851,217.203286 362.593582,227.168121 C386.225177,244.994427 405.394454,269.828075 412.128816,298.566311 C418.588664,326.113415 413.332006,355.136361 404.459937,382.015269 Z" id="Path" fill="#000000"></path>
                <path d="M506.992979,267.112824 C506.899402,276.852693 505.893447,286.796325 501.875477,295.680389 C496.553274,307.46371 486.271481,316.504963 474.808275,322.571277 C463.345069,328.637591 450.66536,332.014235 438.03244,335.018283 C431.230548,336.636743 423.954921,338.132945 417.375275,335.780938 C407.532125,332.252928 402.514048,321.296303 400.718536,311.032472 C395.636125,281.923479 418.609324,259.794823 435.190033,235.104575 C436.728208,232.810786 438.535417,230.703295 440.541478,228.817032 C443.781588,225.76641 447.559767,223.27468 451.642072,221.452457 C457.578375,218.803539 464.158021,217.580961 470.649939,218.12821 C484.358997,219.286748 497.114737,228.310536 502.717671,240.815759 C506.384728,248.989565 507.080708,258.164719 506.992979,267.112824 Z" id="Path" fill="#FC9895"></path>
                <path d="M429.492548,266.480431 C430.221837,257.069106 437.578905,248.557995 446.767946,246.494518 C455.956987,244.431042 466.237044,248.98472 470.904493,257.180172 C474.445921,263.39983 474.772642,271.133483 472.777308,278.013688 C470.781973,284.893892 466.639612,290.984948 461.750458,296.210864 C454.090007,304.394624 444.451724,310.707811 433.89162,314.448959 C430.204335,315.75836 426.067807,316.740412 422.450534,315.255644 C416.942944,312.999264 415.017621,306.119059 415,300.15076 C414.970946,287.723135 420.350182,275.377348 429.492548,266.480431 Z" id="Path" fill="#DC657C"></path>
                <path d="M92,349.86163 C68.4227876,351.125215 44.2996989,343.712572 26.123178,328.526259 C19.2532661,322.784809 13.17894,316.018515 8.66094215,308.279784 C0.559904886,294.415287 -2.24497038,277.342332 1.90136697,261.818288 C5.99543956,246.474755 17.0755679,232.971282 31.6400134,226.752348 C31.8084221,226.676649 31.9768307,226.606773 32.1452394,226.536898 C45.2695005,221.11571 60.9315059,221.989156 74.5784145,228.726335 C74.5668001,228.778742 74.5551857,228.836972 74.5435713,228.889379 C74.2474044,230.286892 73.968659,231.684405 73.7073352,233.081919 C66.3786549,272.579141 73.521505,314.236685 92,349.86163 Z" id="Path" fill="#FC9895"></path>
                <path d="M80.7080152,259.29466 C77.0901635,249.743484 66.3750908,244.393879 56.9352098,246.429569 C47.4953289,248.46526 39.8614887,256.986755 37.2014734,266.892993 C34.541458,276.799232 36.474441,287.735151 41.2636226,296.676803 C46.0528043,305.618455 53.4962312,312.690113 61.7474719,318.01013 C69.7563684,323.170368 80.2694877,326.685485 88.1572122,321.318127 C94.7985954,316.802918 97.0950946,307.500285 96.9970029,299.085309 C96.8642906,286.877083 87.7763857,277.941349 80.7080152,259.29466 Z" id="Path" fill="#DC657C"></path>
                <path d="M433.870751,295.086711 C420.736846,347.17695 387.928246,394.863962 341.636898,421.698504 C281.979084,456.275243 202.257034,452.018205 146.581834,411.278118 C124.523385,395.138798 106.720809,373.625553 94.1508653,349.317164 C75.6564196,313.535825 68.5051564,271.708088 75.8366547,232.043955 C76.0982863,230.634689 76.37736,229.23127 76.6738758,227.833698 C76.6855038,227.78107 76.6971319,227.722594 76.70876,227.669966 C84.5286372,190.765891 95.0055285,149.710035 117.261655,114.373111 C139.552666,78.9777119 173.256627,49.1725987 213.826964,39.6761294 C240.57734,33.4133717 268.548663,36.2085147 295.717649,40.2550398 C323.229663,44.3541931 351.549828,50.1082114 374.125726,66.4405012 C397.457449,83.316616 412.161144,109.765218 422.358962,136.786884 C432.818411,164.492716 439.237106,193.946974 440.6848,223.52988 C441.86505,247.586822 439.760369,271.725631 433.870751,295.086711 Z" id="Path" fill="#FC9895"></path>
                <path d="M453.913601,214.03329 C453.89027,214.870482 453.855275,215.725237 453.773619,216.568283 C453.627804,217.996778 453.330343,219.390145 452.671262,220.619588 C448.605957,222.452042 444.832281,224.957762 441.601035,228.025514 C441.315239,227.914278 441.029443,227.803043 440.743646,227.685953 C435.546822,225.636883 430.169188,224.038608 424.6924,222.920401 C420.778743,222.118336 416.818424,221.56216 412.834776,221.257727 C412.362337,221.187473 411.889898,221.111365 411.411627,221.041111 C400.043939,219.284765 388.722911,217.188858 377.431046,215.016844 C371.540145,213.881073 365.643412,212.721885 359.758344,211.510006 C331.493686,205.673083 303.450666,198.554027 277.145753,186.780653 C245.364052,172.55425 215.973707,150.927776 197.805237,121.140146 C192.491761,112.42867 188.216483,103.172726 184.460305,93.6708938 C184.419477,94.2036521 184.372816,94.7364105 184.326156,95.2691688 C182.121443,118.687116 172.287721,140.95173 158.686157,160.101757 C145.084592,179.257638 127.802672,195.503839 109.552546,210.263 C100.232091,217.803579 94.7494705,219.858504 84.2275054,225.595901 C83.5217638,225.982298 81.9119731,226.766799 80.3021825,227.481046 C78.4474237,228.306529 76.5926648,229.050049 76.1027285,228.997358 C76.1143937,228.944668 76.1260588,228.886123 76.137724,228.833433 C76.137724,228.833433 76.137724,228.833433 76.1318914,228.833433 C76.1552217,228.69878 76.1668869,228.628526 76.1668869,228.599253 C76.1610543,228.628526 76.137724,228.716343 76.1143937,228.827578 C64.8808544,223.283379 52.2999904,221.696813 40.8681435,224.30206 C38.3484712,224.8758 35.8871246,225.654446 33.507434,226.638 C33.3382893,226.708254 33.1691447,226.778508 33,226.854616 C33.1691447,225.344159 33.425778,223.851264 33.7174067,222.440333 C41.6672063,183.870973 51.728398,145.032307 72.0840844,111.351444 C92.3289519,77.8579247 124.192309,49.6978428 162.424837,41.9465021 C174.5041,33.4633506 187.312434,26.1276785 201.240623,19.3891641 C205.83086,17.1703136 210.537748,15.0158624 215.384617,12.9023927 C230.473489,6.33365836 252.135672,2.38773419 268.507709,0.760186836 C308.204214,-3.19159182 345.480201,8.40614672 377.536032,32.2339084 C415.54109,67.1793406 440.871963,114.676793 450.104929,165.101488 C453.056212,181.224745 454.362709,197.634872 453.913601,214.03329 Z" id="Path" stroke="#000000" fill="#141421"></path>
                <path d="M262,305.073963 C272.519504,304.27939 282.759884,299.644384 290.674226,292.089638 C291.686053,291.1248 292.77929,290.059063 294.128392,290.002308 C295.90781,289.926635 297.344139,291.723882 297.791901,293.596803 C298.722316,297.506605 296.413724,301.649733 293.238683,303.762288 C290.069457,305.874842 286.22568,306.379332 282.51565,306.688333 C275.68873,307.236966 268.728063,307.262191 262,305.073963 Z" id="Path" fill="#C54C67"></path>
                <path d="M154.897017,278.082842 C146.13994,277.254191 137.289702,276.42554 128.567559,277.537975 C119.845417,278.650411 111.123274,281.896907 105.062026,288.11179 C99.0007772,294.332349 96.1128049,303.850485 99.3326612,311.830508 C101.86546,318.1135 107.653049,322.614324 113.749233,325.826766 C133.89517,336.44031 160.044129,335.180307 179.019738,322.682432 C186.682181,317.636742 193.640098,309.753205 192.95304,300.768584 C192.394078,293.520725 186.827744,287.368275 180.254113,283.945832 C173.680483,280.52339 166.175248,279.149872 154.897017,278.082842 Z" id="Path" fill="#C54C67"></path>
                <path d="M246,283 C262.896101,274.838603 280.196864,266.376462 293.052211,252.660126 C294.612212,250.991286 296.142889,249.180918 296.758679,246.975454 C297.374469,244.76999 296.829055,242.080975 294.923039,240.830819 C293.562437,239.934481 291.814766,239.928584 290.196119,240.064214 C281.176263,240.801334 272.625581,244.952796 265.728734,250.849759 C258.826023,256.740825 253.495042,264.306628 246,283 Z" id="Path" fill="#FFFFFF"></path>
                <path d="M243,284.521904 C243.110918,280.875198 243.706374,277.222656 244.669611,273.634297 C245.62701,270.045938 246.975542,266.539265 248.650991,263.155121 C252.001889,256.392669 256.788885,250.254532 262.603335,245.149143 C264.051109,243.859668 265.598126,242.686887 267.162657,241.525776 C268.744701,240.388003 270.437663,239.343586 272.206517,238.369186 C275.744224,236.432056 279.719766,234.926695 284.06309,234.296544 C288.412251,233.660559 292.983249,234.022312 297.384951,235.626863 C299.579964,236.437891 301.699085,237.616506 303.602208,239.127701 C305.511169,240.627227 307.116564,242.418489 308.43007,244.34395 C311.027891,248.235716 312.452314,252.617598 312.890149,257.075332 C313.257931,261.498058 312.679988,265.809924 311.489077,269.765871 C310.893621,271.743845 310.152221,273.645967 309.323253,275.478072 C308.914607,276.394125 308.447583,277.286839 307.95137,278.162048 L307.221645,279.474862 C306.982295,279.918302 306.737107,280.350072 306.451055,280.758503 C304.36696,284.177655 301.774977,287.211715 298.996184,289.983212 C298.272296,290.648371 297.560085,291.319365 296.83036,291.972855 C296.100635,292.626345 295.300856,293.192314 294.541942,293.80496 L293.391895,294.697674 L292.18347,295.514536 C291.372016,296.051332 290.578075,296.605631 289.74327,297.089914 C286.421561,299.079557 282.878016,300.619926 279.270255,301.827715 C275.627468,302.959653 271.891275,303.65982 268.160921,303.934053 C264.418891,304.138268 260.700212,303.86987 257.133315,303.105521 C260.752752,302.568726 264.220405,301.804376 267.553789,300.73662 C270.863822,299.575509 274.033748,298.216017 277.011027,296.553118 C277.752427,296.127183 278.470477,295.672074 279.200202,295.240304 C279.562145,295.018584 279.929927,294.814369 280.280195,294.575145 L281.313486,293.839969 L282.346776,293.116462 C282.697044,292.883073 283.041475,292.643849 283.362554,292.375451 L285.324055,290.811744 C287.845985,288.62372 290.204456,286.307332 292.247686,283.757555 C292.522063,283.459983 292.755575,283.121569 292.994925,282.794824 L293.718812,281.814589 L294.442699,280.840189 C294.664536,280.501775 294.874696,280.151691 295.084857,279.813277 C295.499341,279.124779 295.978041,278.471289 296.369173,277.771121 L297.507545,275.658949 C297.711868,275.3147 297.875326,274.952946 298.027109,274.585358 L298.505808,273.494264 C298.663429,273.13251 298.826888,272.770757 298.996184,272.414839 C299.159642,272.053085 299.293912,271.679663 299.439857,271.312075 C299.994448,269.835888 300.461472,268.342197 300.805902,266.860175 C302.259514,260.937924 301.669896,255.109028 298.762672,250.867179 C298.067973,249.822762 297.262357,248.900875 296.35166,248.171534 C295.907987,247.786441 295.411774,247.477201 294.898048,247.162125 C294.372646,246.870389 293.82973,246.596156 293.24595,246.356932 C292.095903,245.866815 290.811587,245.545905 289.480569,245.353359 C288.143712,245.184152 286.760154,245.149143 285.370757,245.260003 C282.562775,245.464219 279.649712,246.345263 276.754163,247.564722 C273.87029,248.825023 270.974741,250.499591 268.230974,252.36087 C262.737604,256.095097 257.722933,260.751212 253.490528,266.189181 C251.359731,268.896496 249.421581,271.796357 247.670241,274.853756 C245.913063,277.916989 244.377721,281.143595 243,284.521904 Z" id="Path" fill="#000000"></path>
                <path d="M359.108028,274.101405 C367.863616,273.255788 376.711979,272.415924 385.438575,273.549166 C394.165171,274.682407 402.880171,277.98434 408.939502,284.312086 C414.998833,290.639832 417.886437,300.332788 414.668324,308.455313 C412.134422,314.846337 406.347616,319.431076 400.253494,322.698494 C380.104044,333.501682 353.959046,332.218875 334.980874,319.500106 C327.321184,314.363127 320.357302,306.344147 321.047312,297.197678 C321.603958,289.822978 327.170425,283.558509 333.745814,280.078249 C340.327001,276.592236 347.830134,275.188627 359.108028,274.101405 Z" id="Path" fill="#C54C67"></path>
                <path d="M450,165.351298 C429.181803,167.848994 406.910493,162.800833 386.67237,155.911647 C312.581152,130.694294 246.581667,82.3234119 200,19.4178127 C204.611292,17.1956837 209.339771,15.0380492 214.208873,12.9214566 C229.366958,6.34301668 251.128507,2.3912622 267.575644,0.761310053 C307.454239,-3.19630757 344.901212,8.41856726 377.104085,32.2815357 C415.283474,67.2844649 440.724682,114.852097 450,165.351298 Z" id="Path" fill="#1E1F36"></path>
                <path d="M359,212.239237 C308.063697,213.567553 278.531202,209.29384 237.95158,179.071754 C223.9396,168.635807 196.0839,140.752713 187.026881,124.853343 C167.595776,171.275114 129.365989,213.5098 81,228 C82.6071712,227.289639 84.2027382,226.521526 84.9047877,226.140357 C95.3717076,220.480574 100.825646,218.453448 110.097341,211.014876 C128.246191,196.455373 145.443503,180.423171 158.973912,161.532202 C172.510122,142.635457 182.292399,120.677809 184.479776,97.5766538 C184.531995,97.0511026 184.572609,96.5255513 184.613224,96 C188.349752,105.373294 192.602663,114.504025 197.888342,123.097655 C215.961765,152.482324 245.198355,173.816241 276.813791,187.850193 C302.986893,199.458523 330.889009,206.481274 359,212.239237 Z" id="Path" fill="#DC657C"></path>
                <path d="M171.956815,208.025515 C167.119915,205.194552 160.821804,208.666268 157.422256,213.064163 C150.945223,221.446377 149.937287,232.624604 150.002892,243.127128 C150.038677,248.532753 150.324954,254.101479 152.668853,259.000327 C155.012752,263.899175 159.867545,268.005819 165.402248,268 C170.60296,267.994169 175.225153,264.382652 177.819545,259.984757 C180.413937,255.586861 181.350303,250.466662 182.244921,245.468789 C183.545099,238.19333 184.851241,230.69652 183.282678,223.467662 C181.714115,216.238803 176.072058,210.431251 171.956815,208.025515 Z" id="Path" fill="#000000"></path>
                <path d="M360.440565,212.148668 C356.969583,209.865244 352.229702,211.265901 349.003396,213.902431 C345.236527,216.980346 342.761319,221.523653 341.446898,226.29648 C340.132477,231.069307 339.904872,236.095193 340.030055,241.056344 C340.132477,245.240659 340.490956,249.483826 341.902109,253.409197 C343.313262,257.334567 345.902273,260.942142 349.532578,262.795952 C353.162884,264.649763 357.891385,264.432014 360.929916,261.660125 C363.006815,259.765119 364.087941,256.987345 365.066644,254.309619 C367.610134,247.37107 370.00568,240.191232 370,232.770104 C369.9943,225.348977 367.615824,216.874414 360.440565,212.148668 Z" id="Path" fill="#000000"></path>
                <path d="M144.155064,197.801451 C147.043787,189.716738 153.339572,183.28983 160.21776,178.170484 C165.098304,174.539661 170.503011,171.369986 176.490122,170.33094 C182.477233,169.286057 189.134108,170.675343 193.339063,175.070858 C197.544019,179.466373 198.429272,187.101611 194.399038,191.654734 C191.708333,194.69015 187.497553,195.904316 183.455671,196.219532 C179.413789,196.528911 175.336962,196.091111 171.306728,196.499724 C167.497807,196.890826 163.770423,198.046619 160.409953,199.88538 C158.429781,200.965288 156.571913,202.284526 154.486907,203.148452 C152.401901,204.012378 149.984926,204.374293 147.905744,203.487017 C145.832387,202.599742 143.351347,200.042988 144.155064,197.801451 Z" id="Path" fill="#000000"></path>
                <path d="M381.864105,199.526508 C379.302057,192.392551 373.721473,186.726346 367.621632,182.209311 C363.296394,179.006426 358.497548,176.213146 353.190858,175.291534 C347.884167,174.369922 341.978334,175.598738 338.246533,179.47292 C334.514731,183.347103 333.732993,190.082833 337.310729,194.104928 C339.695887,196.784429 343.433395,197.853953 347.016837,198.132712 C350.60028,198.405782 354.212253,198.018933 357.78999,198.383027 C361.168012,198.724364 364.471855,199.748377 367.456155,201.369731 C369.213639,202.325477 370.862708,203.486025 372.71149,204.248345 C374.560273,205.010666 376.705773,205.329248 378.543144,204.54986 C380.374808,203.759095 382.571664,201.506266 381.864105,199.526508 Z" id="Path" fill="#000000"></path>
                <path d="M298.602832,382.608753 C296.045148,397.883369 289.487435,413.610348 276.360329,421.711768 C268.541292,426.535022 258.836109,428.168231 249.878377,426.159031 C238.1761,423.532973 228.289894,414.89694 222.637297,404.257583 C216.984699,393.612351 215.291256,381.16354 216.254767,369.137718 C216.710245,363.409737 217.743829,357.764004 219.086905,352.288642 C230.187718,353.939475 241.358605,354.902951 252.599566,354.850077 C267.898951,354.773704 283.431915,352.635258 298.036404,348 C300.588248,359.256217 300.518174,371.176291 298.602832,382.608753 Z" id="Path" fill="#C54C67"></path>
                <path d="M258.826943,357 C249.999728,357 240.891727,356.237843 231.017413,354.666626 C213.093897,351.823193 195.392669,346.716738 180.206817,342.143794 C179.311811,341.874108 178.802886,340.930205 179.071973,340.033205 C179.34106,339.136204 180.282863,338.626145 181.177869,338.895831 C196.258426,343.433599 213.83096,348.504877 231.543888,351.313134 C241.529346,352.896076 250.701694,353.646508 259.587406,353.599606 C272.983246,353.529253 285.718068,351.483153 297.44674,347.519935 L298.137006,347.285425 C310.883528,342.976305 316.159968,341.194029 330.33967,331.303572 C331.105982,330.770061 332.16478,330.957669 332.697104,331.725689 C333.229427,332.49371 333.042237,333.554867 332.275924,334.088377 C317.704292,344.260247 311.913078,346.212542 299.219203,350.504074 L298.528937,350.738584 C286.460982,354.819057 273.363477,356.929647 259.604955,357 C259.347568,357 259.09018,357 258.826943,357 Z" id="Path" fill="#000000"></path>
                <path d="M256.194444,390 C255.23066,390 254.42006,389.329431 254.349851,388.452533 C253.51372,377.408202 254.177518,366.277902 256.328481,355.371124 C256.507196,354.4713 257.464597,353.869508 258.47306,354.024254 C259.475141,354.184732 260.145322,355.044436 259.972989,355.949991 C257.873089,366.587395 257.222055,377.448322 258.039038,388.223278 C258.109248,389.140296 257.336944,389.931224 256.322098,389.988537 C256.283802,390 256.239123,390 256.194444,390 Z" id="Path" fill="#000000"></path>
                <path d="M166.984614,46.7094853 C160.731044,40.3237077 150.769238,37.608314 142,39.9094951 C143.833352,36.6475709 146.099826,33.6215177 148.722291,30.9176299 C150.401381,29.1859912 152.73312,27.4658583 155.076725,28.1562126 C156.328626,28.5244016 157.260135,29.5081565 158.126379,30.4573937 C162.17874,34.8756615 166.254833,39.3744705 169.001895,44.6499282 C171.75489,49.9253859 174.887608,54.786631 166.984614,46.7094853 Z" id="Path" fill="#000000"></path>
            </g>
        </g>
    </g>
</svg>