<?xml version="1.0" encoding="UTF-8"?>
<svg width="505px" height="446px" viewBox="0 0 505 446" version="1.1" xmlns="http://www.w3.org/2000/svg" xmlns:xlink="http://www.w3.org/1999/xlink">
    <title>girl-smile-illlustration</title>
    <g id="Colored-Verse" stroke="none" stroke-width="1" fill="none" fill-rule="evenodd">
        <g id="Artboard" transform="translate(-691.000000, -833.000000)" fill-rule="nonzero">
            <g id="girl-smile-illlustration" transform="translate(691.000000, 834.000000)">
                <path d="M483.884288,286.11299 C482.946159,296.428974 474.363153,306.524854 465.978261,309.826432 C468.20996,339.558014 468.891705,404.448509 462.16165,445 L30.5465826,445 C19.1550167,404.923473 22.8434368,360.971935 27.4758127,319.736959 C27.4641589,287.891209 29.794914,255.45465 39.3801446,225.242312 C50.8008449,222.664764 63.3694421,224.234461 74.5920282,229.719715 C74.6153358,229.609663 74.6328164,229.522779 74.6444702,229.493818 C74.6444702,229.516987 74.6269895,229.586494 74.6095089,229.725507 C74.6095089,229.725507 74.6095089,229.725507 74.6153358,229.725507 C74.603682,229.777638 74.5920282,229.83556 74.5803744,229.88769 C75.5010227,229.980366 81.1880653,227.339103 82.6972293,226.522397 C93.208935,220.845999 98.6862097,218.812922 107.997577,211.352514 C126.224082,196.75027 143.494978,180.671004 157.08328,161.724578 C170.67741,142.77236 180.501543,120.750253 182.698279,97.5812823 C182.750721,97.0541882 182.79151,96.5270941 182.832298,96 C186.584814,105.40081 190.855922,114.558346 196.164217,123.177203 C214.314973,152.648134 243.676661,174.044678 275.427373,188.119828 C275.538084,188.166166 275.648795,188.218296 275.753679,188.264634 C289.790652,194.462334 304.317084,199.356779 319.111552,203.44031 C337.687671,208.572237 356.671671,212.447247 375.614884,216.055815 C386.895739,218.204737 398.205728,220.27836 409.562333,222.016032 C410.034311,222.091332 410.506289,222.160838 410.984094,222.230345 C414.963858,222.537334 418.920315,223.087597 422.830157,223.875342 C428.295777,224.981661 433.668168,226.557151 438.865752,228.590228 C440.456493,229.209998 442.058887,229.881898 443.760338,230.038289 C445.461789,230.188887 447.31474,229.737092 448.421848,228.445422 C449.243439,227.478117 449.936839,226.024264 450.21653,224.796309 C450.315587,224.373475 450.472913,223.794251 450.653546,223.139727 C451.935462,226.360214 453.421318,229.49961 455.186865,232.534745 C460.40193,241.495345 467.784597,248.996299 473.856214,257.412428 C479.927831,265.81118 484.822417,275.802798 483.884288,286.11299 Z" id="Path" fill="#141421"></path>
                <path d="M404.459937,382.249413 C397.100617,404.466826 386.920224,426.255867 372.978401,445 L107.488007,445 C94.7201702,413.190547 90.24033,358.283783 92.6058258,330.202316 C97.0506215,277.338999 128.684017,256.076738 129.162957,228.116837 C129.320656,219.167353 128.099944,209.754764 131.902259,201.633079 C136.726702,191.323227 148.291348,185.991742 159.306965,182.854213 C197.289234,172.034947 238.028328,177.574828 276.150774,188.411461 C278.329367,189.030862 280.496278,189.661841 282.651507,190.315976 C295.168192,194.096062 307.597266,198.408717 319.611648,203.578115 C334.832591,210.131036 349.381851,218.050114 362.593582,227.977905 C386.225177,245.737942 405.394454,270.479272 412.128816,299.110674 C418.588664,326.555373 413.332006,355.470426 404.459937,382.249413 Z" id="Path" fill="#000000"></path>
                <path d="M504.993899,265.525536 C504.90207,275.347253 503.91491,285.374445 499.972013,294.333166 C494.743512,306.215506 484.659565,315.332736 473.41054,321.450027 C462.161516,327.567319 449.718717,330.972337 437.321833,334.00163 C430.647029,335.63369 423.507342,337.142465 417.050632,334.770694 C407.391393,331.213037 402.467075,320.164339 400.70511,309.814258 C395.71766,280.460651 418.261624,258.14604 434.532534,233.248311 C436.04197,230.935247 437.815413,228.810046 439.783992,226.907932 C442.963563,223.831674 446.67115,221.319005 450.67718,219.481469 C456.502568,216.810291 462.959278,215.57744 469.329899,216.129288 C482.782814,217.297561 495.300224,226.397179 500.804211,239.007488 C504.397012,247.249981 505.074249,256.502238 504.993899,265.525536 Z" id="Path" fill="#FC9895"></path>
                <path d="M427.246912,265.480431 C427.96384,256.069106 435.196211,247.557995 444.229506,245.494518 C453.262801,243.431042 463.36862,247.98472 467.95696,256.180172 C471.438363,262.39983 471.759547,270.133483 469.798031,277.013688 C467.836516,283.893892 463.764364,289.984948 458.958078,295.210864 C451.427464,303.394624 441.952542,309.707811 431.571423,313.448959 C427.946634,314.75836 423.880218,315.740412 420.324254,314.255644 C414.910013,311.999264 413.017322,305.119059 413,299.15076 C412.971439,286.72898 418.253766,274.383193 427.246912,265.480431 Z" id="Path" fill="#DC657C"></path>
                <path d="M92,348.86272 C68.4227876,350.116355 44.2996989,342.762079 26.123178,327.695344 C19.2532661,321.999102 13.17894,315.286086 8.66094215,307.60829 C0.559904886,293.852962 -2.24497038,276.91444 1.90136697,261.512632 C5.99543956,246.289915 17.0755679,232.892768 31.6400134,226.722802 C31.8084221,226.647699 31.9768307,226.578374 32.1452394,226.509048 C45.2695005,221.130547 60.9315059,221.997116 74.5784145,228.681246 C74.5668001,228.73324 74.5551857,228.791011 74.5435713,228.843006 C74.2474044,230.229515 73.968659,231.616024 73.7073352,233.002534 C66.3844621,272.182977 73.5273122,313.512509 92,348.86272 Z" id="Path" fill="#FC9895"></path>
                <path d="M79.4409334,260.294213 C75.7637727,250.743358 64.8730431,245.393933 55.27841,247.429555 C45.6837769,249.465177 37.9247918,257.986386 35.2211697,267.892291 C32.5175475,277.798196 34.4822187,288.733747 39.3499115,297.675099 C44.2176044,306.61645 51.7830547,313.68787 60.1695616,319.007708 C68.3097515,324.167773 78.995217,327.688689 87.0122484,322.315594 C93.7625068,317.800537 96.0966535,308.498217 95.9969538,300.083523 C95.8562012,287.881626 86.6251789,278.946192 79.4409334,260.294213 Z" id="Path" fill="#DC657C"></path>
                <path d="M431.868254,295.819783 C418.734439,347.655302 385.926066,395.109126 339.635039,421.812448 C279.977638,456.220107 200.25614,451.983886 144.581325,411.443017 C122.523028,395.382618 104.720576,373.974572 92.150719,349.785051 C73.6564012,314.178681 66.5051875,272.555481 73.8366351,233.085305 C74.0982649,231.68293 74.3773366,230.286373 74.6738504,228.895636 C74.6854783,228.843265 74.6971063,228.785075 74.7087343,228.732704 C82.5285574,192.00909 93.0053762,151.153995 115.261349,115.989869 C137.552205,80.7675519 171.255933,51.108185 211.82599,41.6581533 C238.57618,35.4260202 266.547309,38.2074951 293.716107,42.2342328 C321.227931,46.3133413 349.5479,52.0392226 372.123642,68.2916479 C395.455204,85.0852389 410.158797,111.404508 420.356544,138.294038 C430.815921,165.86439 437.234571,195.174617 438.682256,224.612863 C439.868311,248.552168 437.763645,272.572938 431.868254,295.819783 Z" id="Path" fill="#FC9895"></path>
                <path d="M450.913806,214.03329 C450.890531,214.870482 450.855619,215.725237 450.774156,216.568283 C450.628688,217.996778 450.331934,219.390145 449.674418,220.619588 C445.61877,222.452042 441.854057,224.957762 438.630486,228.025514 C438.345369,227.914278 438.060252,227.803043 437.775134,227.685953 C432.590654,225.636883 427.225793,224.038608 421.762015,222.920401 C417.857653,222.118336 413.906741,221.56216 409.932555,221.257727 C409.461239,221.187473 408.989922,221.111365 408.512787,221.041111 C397.1721,219.284765 385.877963,217.188858 374.61292,215.016844 C368.736012,213.881073 362.853285,212.721885 356.982196,211.510006 C328.784675,205.673083 300.808265,198.554027 274.565834,186.780653 C242.859625,172.55425 213.53909,150.927776 195.413775,121.140146 C190.11292,112.42867 185.847798,103.172726 182.100542,93.6708938 C182.059811,94.2036521 182.013261,94.7364105 181.966711,95.2691688 C179.767235,118.687116 169.956872,140.95173 156.387615,160.101757 C142.818358,179.257638 125.577488,195.503839 107.370711,210.263 C98.0723947,217.803579 92.6027972,219.858504 82.1058249,225.595901 C81.4017596,225.982298 79.7957927,226.766799 78.1898257,227.481046 C76.3394725,228.306529 74.4891193,229.050049 74.0003468,228.997358 C74.0119842,228.944668 74.0236217,228.886123 74.0352591,228.833433 C74.0352591,228.833433 74.0352591,228.833433 74.0294404,228.833433 C74.0527153,228.69878 74.0643527,228.628526 74.0643527,228.599253 C74.058534,228.628526 74.0352591,228.716343 74.0119842,228.827578 C62.8051279,223.283379 50.2541472,221.696813 38.8494544,224.30206 C36.335767,224.8758 33.8802668,225.654446 31.5062287,226.638 C31.3374858,226.708254 31.1687429,226.778508 31,226.854616 C31.1687429,225.344159 31.4247666,223.851264 31.7157027,222.440333 C39.6466191,183.870973 49.6839125,145.026453 69.9912481,111.351444 C90.1880281,77.8579247 121.9757,49.6978428 160.117415,41.9465021 C172.167986,33.4633506 184.945896,26.1276785 198.841002,19.3891641 C203.420335,17.1703136 208.116043,15.0158624 212.9514,12.9023927 C228.00443,6.33365836 249.615159,2.38773419 265.948309,0.760186836 C305.550523,-3.19159182 342.737967,8.40614672 374.717657,32.2339084 C412.632442,67.1793406 437.903146,114.682647 447.114181,165.101488 C450.058454,181.218891 451.361847,197.634872 450.913806,214.03329 Z" id="Path" stroke="#000000" fill="#141421"></path>
                <path d="M263,303.300556 C273.227296,302.599462 283.183221,298.50975 290.87772,291.843798 C291.86144,290.99247 292.92431,290.052115 294.235937,290.002037 C295.965927,289.935266 297.362357,291.521072 297.797681,293.17365 C298.702251,296.623475 296.457787,300.279177 293.370941,302.143195 C290.289749,304.007213 286.552744,304.452352 282.945771,304.724999 C276.314141,305.209088 269.546826,305.231345 263,303.300556 Z" id="Path" fill="#C54C67"></path>
                <path d="M150.495933,279.102178 C141.646676,278.25873 132.703277,277.415282 123.889323,278.547582 C115.075368,279.679883 106.261414,282.984352 100.136363,289.310215 C94.0113117,295.641855 91.0929396,305.329958 94.3466892,313.452482 C96.9061486,319.847669 102.75466,324.428865 108.915014,327.698672 C129.273013,338.501744 155.697225,337.219241 174.872578,324.49819 C182.615678,319.362398 189.646836,311.338084 188.952546,302.193023 C188.3877,294.815738 182.762773,288.553422 176.119946,285.069865 C169.471236,281.592084 161.892882,280.188263 150.495933,279.102178 Z" id="Path" fill="#C54C67"></path>
                <path d="M244,284 C260.896101,275.838603 278.196864,267.376462 291.052211,253.660126 C292.612212,251.991286 294.142889,250.180918 294.758679,247.975454 C295.374469,245.76999 294.829055,243.080975 292.923039,241.830819 C291.562437,240.934481 289.814766,240.928584 288.196119,241.064214 C279.176263,241.801334 270.625581,245.952796 263.728734,251.849759 C256.831888,257.740825 251.500907,265.312525 244,284 Z" id="Path" fill="#FFFFFF"></path>
                <path d="M241,284.521443 C241.110918,280.87477 241.706374,277.222262 242.669611,273.633935 C243.62701,270.045609 244.975542,266.538968 246.650991,263.154855 C250.001889,256.392464 254.788885,250.254384 260.603335,245.149041 C262.051109,243.859578 263.598126,242.686808 265.162657,241.525707 C266.744701,240.387945 268.437663,239.343538 270.206517,238.369146 C273.744224,236.432034 277.719766,234.926687 282.06309,234.296542 C286.412251,233.660562 290.983249,234.022312 295.384951,235.626848 C297.579964,236.437868 299.699085,237.616473 301.602208,239.127654 C303.511169,240.627167 305.116564,242.418412 306.43007,244.343856 C309.027891,248.235586 310.452314,252.617428 310.890149,257.075121 C311.257931,261.497807 310.679988,265.809633 309.489077,269.765544 C308.893621,271.7435 308.152221,273.645605 307.323253,275.477693 C306.914607,276.393738 306.447583,277.286443 305.95137,278.161645 L305.221645,279.474447 C304.982295,279.917883 304.737107,280.349649 304.451055,280.758076 C302.36696,284.177197 299.774977,287.211229 296.996184,289.982701 C296.272296,290.647854 295.560085,291.318842 294.83036,291.972326 C294.100635,292.62581 293.300856,293.191773 292.541942,293.804414 L291.391895,294.69712 L290.18347,295.513975 C289.372016,296.050765 288.578075,296.605059 287.74327,297.089338 C284.421561,299.078962 280.878016,300.619317 277.276093,301.827095 C273.633306,302.959023 269.897113,303.659184 266.166759,303.933414 C262.424728,304.137628 258.706049,303.875067 255.139153,303.10489 C258.75859,302.568099 262.226243,301.803757 265.559627,300.736011 C268.86966,299.57491 272.039586,298.21543 275.016864,296.552547 C275.758265,296.126616 276.476314,295.671511 277.20604,295.239745 C277.567983,295.018027 277.935765,294.813813 278.286033,294.574592 L279.319323,293.839422 L280.352614,293.115922 C280.702882,292.882535 281.047312,292.643314 281.368391,292.374918 L283.329892,290.811225 C285.851822,288.623221 288.210294,286.306854 290.253524,283.7571 C290.527901,283.459532 290.761413,283.12112 291.000762,282.794378 L291.72465,281.814153 L292.448537,280.839762 C292.670373,280.50135 292.880534,280.15127 293.090695,279.812858 C293.505179,279.124367 293.983879,278.470883 294.375011,277.770721 L295.513382,275.658568 C295.717705,275.314322 295.881164,274.952572 296.032947,274.584988 L296.511646,273.493903 C296.669267,273.132153 296.832725,272.770403 297.002022,272.414488 C297.16548,272.052738 297.299749,271.679318 297.445694,271.311734 C298.000285,269.83556 298.467309,268.341883 298.81174,266.859875 C300.265352,260.937678 299.675734,255.108835 296.768509,250.867025 C296.073811,249.822618 295.268195,248.900739 294.357498,248.171404 C293.913825,247.786315 293.417612,247.477078 292.903885,247.162005 C292.378483,246.870271 291.835568,246.596041 291.251788,246.35682 C290.101741,245.866707 288.817425,245.545799 287.486406,245.353255 C286.14955,245.184049 284.765991,245.149041 283.376595,245.2599 C280.568613,245.464114 277.65555,246.34515 274.760001,247.564598 C271.876128,248.824888 268.980578,250.49944 266.236812,252.360702 C260.743442,256.094896 255.728771,260.750968 251.496366,266.188887 C249.365568,268.896177 247.427419,271.796012 245.676078,274.853383 C243.9189,277.916588 242.383559,281.143165 241,284.521443 Z" id="Path" fill="#000000"></path>
                <path d="M355.509165,274.101405 C364.356917,273.255788 373.298421,272.415924 382.116876,273.549166 C390.935331,274.682407 399.742067,277.98434 405.865181,284.312086 C411.988294,290.639832 414.906294,300.332788 411.654306,308.455313 C409.093731,314.846337 403.246012,319.431076 397.087742,322.698494 C376.726192,333.501682 350.305983,332.218875 331.128041,319.500106 C323.387722,314.363127 316.350537,306.344147 317.04781,297.197678 C317.610316,289.822978 323.235377,283.558509 329.87998,280.078249 C336.530443,276.592236 344.112557,275.188627 355.509165,274.101405 Z" id="Path" fill="#C54C67"></path>
                <path d="M449,165.351298 C428.181803,167.848994 405.910493,162.800833 385.67237,155.911647 C311.581152,130.694294 245.581667,82.3234119 199,19.4178127 C203.611292,17.1956837 208.339771,15.0380492 213.208873,12.9214566 C228.366958,6.34301668 250.128507,2.3912622 266.575644,0.761310053 C306.454239,-3.19630757 343.901212,8.41856726 376.104085,32.2815357 C414.277615,67.2786018 439.724682,114.852097 449,165.351298 Z" id="Path" fill="#1E1F36"></path>
                <path d="M358,212.119837 C307.063697,213.458217 277.531202,209.152126 236.95158,178.701085 C222.9396,168.186078 195.0839,140.091748 186.026881,124.071929 C166.595776,170.84538 128.365989,213.400026 80,228 C81.6071712,227.284258 83.2027382,226.510326 83.9047877,226.126269 C94.3717076,220.423609 99.8256459,218.381125 109.097341,210.886201 C127.246191,196.216398 144.443503,180.062741 157.973912,161.028658 C171.510122,141.988756 181.292399,119.864762 183.479776,96.5885982 C183.531995,96.0590655 183.572609,95.5295327 183.613224,95 C187.349752,104.444303 191.602663,113.644207 196.888342,122.30294 C214.961765,151.910221 244.198355,173.405758 275.813791,187.546027 C301.986893,199.2423 329.883207,206.324072 358,212.119837 Z" id="Path" fill="#DC657C"></path>
                <path d="M170.956815,209.025515 C166.119915,206.194552 159.821804,209.666268 156.422256,214.064163 C149.945223,222.446377 148.937287,233.624604 149.002892,244.127128 C149.038677,249.532753 149.324954,255.101479 151.668853,260.000327 C154.012752,264.899175 158.867545,269.005819 164.402248,269 C169.60296,268.994169 174.225153,265.382652 176.819545,260.984757 C179.413937,256.586861 180.350303,251.466662 181.244921,246.468789 C182.545099,239.19333 183.851241,231.69652 182.282678,224.467662 C180.714115,217.238803 175.072058,211.425426 170.956815,209.025515 Z" id="Path" fill="#000000"></path>
                <path d="M359.440565,211.148668 C355.969583,208.865244 351.229702,210.265901 348.003396,212.902431 C344.236527,215.980346 341.761319,220.523653 340.446898,225.29648 C339.132477,230.069307 338.904872,235.095193 339.030055,240.056344 C339.132477,244.240659 339.490956,248.483826 340.902109,252.409197 C342.313262,256.334567 344.902273,259.942142 348.532578,261.795952 C352.162884,263.649763 356.891385,263.432014 359.929916,260.660125 C362.006815,258.765119 363.087941,255.987345 364.066644,253.309619 C366.610134,246.37107 369.00568,239.191232 369,231.770104 C368.9943,224.348977 366.621514,215.874414 359.440565,211.148668 Z" id="Path" fill="#000000"></path>
                <path d="M143.155064,197.801033 C146.043787,189.715775 152.339572,183.288434 159.21776,178.168743 C164.098304,174.537675 169.503011,171.367787 175.490122,170.328671 C181.477233,169.289555 188.134108,170.673097 192.339063,175.068908 C196.544019,179.46472 197.429272,187.100472 193.399038,191.653902 C190.708333,194.689522 186.497553,195.90377 182.455671,196.219008 C178.413789,196.528407 174.342786,196.090578 170.306728,196.499219 C166.497807,196.890347 162.770423,198.046218 159.409953,199.885103 C157.429781,200.965083 155.571913,202.28441 153.486907,203.148394 C151.401901,204.012379 148.984926,204.374318 146.905744,203.486983 C144.832387,202.59381 142.351347,200.042722 143.155064,197.801033 Z" id="Path" fill="#000000"></path>
                <path d="M378.859481,197.526508 C376.243017,190.392551 370.543903,184.726346 364.314504,180.209311 C359.897399,177.006426 354.996628,174.213146 349.577225,173.291534 C344.157822,172.369922 338.126552,173.598738 334.315488,177.47292 C330.504424,181.347103 329.706082,188.082833 333.359808,192.104928 C335.795626,194.784429 339.612517,195.853953 343.272071,196.132712 C346.931624,196.405782 350.620314,196.018933 354.274041,196.383027 C357.723811,196.724364 361.097826,197.748377 364.145512,199.369731 C365.940325,200.325477 367.624419,201.486025 369.512468,202.248345 C371.400518,203.010666 373.591589,203.329248 375.467984,202.54986 C377.338552,201.759095 379.587896,199.506266 378.859481,197.526508 Z" id="Path" fill="#000000"></path>
                <path d="M352.773664,363.83549 C348.612422,381.07519 337.093452,395.745791 323.691462,407.359048 C323.662403,407.38811 323.627533,407.41136 323.598474,407.440422 C310.318531,418.925805 294.696437,428.062962 277.563278,431.91661 C255.362237,436.909497 231.5862,432.648978 211.407662,422.122648 C203.364143,417.926065 195.866933,412.776243 188.962525,406.91149 C178.547796,398.064955 169.458155,387.573499 161.821462,376.221802 C157.660219,370.031552 153.772131,363.114748 154.010415,355.663198 C154.132462,351.949049 155.248326,349.106765 157.474242,346.793414 C159.717593,344.462625 163.08262,342.672393 167.685559,341.056535 C225.35596,319.463317 289.802909,319.806251 346.578295,341.137909 C349.896828,342.381771 352.430768,345.107806 353.401337,348.455772 C353.546632,348.955642 353.657056,349.478761 353.73261,350.001881 C354.342848,354.442586 353.860469,359.342474 352.773664,363.83549 Z" id="Path" fill="#241D1D"></path>
                <path d="M352,347.823393 C347.563449,351.860587 345.949632,357.842871 340.142205,359.329961 C332.587921,361.258089 316.970337,358.826726 309.265662,357.588426 C284.647722,353.624739 263.830061,353.930073 238.96918,356.067411 C221.48327,357.571463 203.991576,359.075516 186.505666,360.579569 C179.645497,361.173274 172.270527,361.653892 166.341629,358.227366 C161.783608,355.592447 158.920384,351.125523 157,346.200599 C159.232736,343.933211 162.58184,342.191677 167.162998,340.619772 C224.560513,319.613923 288.702509,319.947529 345.209243,340.698933 C348.512073,341.920269 351.034023,344.572151 352,347.823393 Z" id="Path" fill="#FFFFFF"></path>
                <path d="M325,406.300024 C324.970667,406.32915 324.935467,406.352452 324.906134,406.381578 C311.500906,417.892408 295.73143,427.049808 278.436632,430.911995 C256.026141,435.915943 232.025796,431.645985 211.656889,421.096333 C203.537486,416.890453 195.969545,411.729221 189,405.851474 C207.239324,387.635703 233.433785,376.299633 259.769045,377.033623 C284.262186,377.715186 308.0396,388.812417 325,406.300024 Z" id="Path" fill="#C54C67"></path>
                <path d="M158.149916,43.7094853 C152.105268,37.3237077 142.476271,34.608314 134,36.9094951 C135.772103,33.6475709 137.962857,30.6215177 140.49771,27.9176299 C142.120703,26.1859912 144.374542,24.4658583 146.639852,25.1562126 C147.849928,25.5244016 148.750317,26.5081565 149.587621,27.4573937 C153.504599,31.8756615 157.444516,36.3744705 160.099802,41.6499282 C162.760824,46.9253859 165.794618,51.786631 158.149916,43.7094853 Z" id="Path" fill="#000000"></path>
            </g>
        </g>
    </g>
</svg>