<?xml version="1.0" encoding="UTF-8"?>
<svg width="788px" height="949px" viewBox="0 0 788 949" version="1.1" xmlns="http://www.w3.org/2000/svg" xmlns:xlink="http://www.w3.org/1999/xlink">
    <title>boy-presenting-illustration</title>
    <g id="boy-presenting-illustration" stroke="none" stroke-width="1" fill="none" fill-rule="evenodd">
        <g id="Group" transform="translate(-1.050000, 45.000000)" fill-rule="nonzero">
            <path d="M255.05,300.783217 L255.05,122.216783 C255.05,101.659529 269.706713,85 287.793852,85 L718.306148,85 C736.393287,85 751.05,101.659529 751.05,122.216783 L751.05,300.783217 C751.05,321.340471 736.393287,338 718.306148,338 L287.793852,338 C269.706713,337.993823 255.05,321.328117 255.05,300.783217 Z" id="Path-Copy-5" fill="#E5F6FF"></path>
            <path d="M255.05,589.783217 L255.05,411.216783 C255.05,390.659529 261.847664,374 270.23021,374 L469.863599,374 C478.252336,374 485.05,390.659529 485.05,411.216783 L485.05,589.783217 C485.05,610.340471 478.252336,627 469.863599,627 L270.23021,627 C261.847664,627 255.05,610.334294 255.05,589.783217 Z" id="Path-Copy-6" fill="#E5F6FF"></path>
            <path d="M522.05,589.783217 L522.05,411.216783 C522.05,390.659529 528.847664,374 537.23021,374 L736.863599,374 C745.252336,374 752.05,390.659529 752.05,411.216783 L752.05,589.783217 C752.05,610.340471 745.252336,627 736.863599,627 L537.23021,627 C528.847664,626.993823 522.05,610.328117 522.05,589.783217 Z" id="Path-Copy-8" fill="#E5F6FF"></path>
            <path d="M552.299552,690.740648 C542.843277,704.56253 528.59384,713.651483 516.096941,724.445774 C496.391722,741.462074 480.668419,763.161873 467.657525,786.288966 C454.646631,809.409879 444.224292,834.03841 433.808145,858.592795 C428.463832,871.191284 422.803691,884.228464 412.170799,891.976626 C402.200528,895.39348 396.930528,894.361627 387.375169,889.795525 C377.838388,885.229422 366.480949,876.08486 358.281794,869.183187 C355.414567,867.323381 352.68358,864.851878 350.051676,862.417447 C330.810911,844.68441 311.570146,826.951374 293.326408,808.316239 C289.982342,804.905565 286.663046,801.451639 283.393293,797.972998 C270.40717,782.254237 264.493127,758.150901 268.084902,737.40263 C268.456465,735.258601 268.927111,733.151644 269.509226,731.087939 C275.670977,709.085381 293.338793,693.959781 322.586986,691.42649 C323.71406,693.070039 324.816363,694.682695 325.875317,696.276815 C328.302861,699.909925 330.544624,703.41946 332.650147,706.830134 C349.005107,733.281398 356.968939,753.850485 375.088823,784.929639 C378.767295,791.24433 394.967437,821.600569 399.209447,827.705183 C417.298367,801.037662 435.498757,774.333068 455.55696,747.140353 C454.671402,737.118407 457.736796,726.75663 463.867584,719.064076 C469.236667,712.316871 476.630769,707.775484 484.024871,703.697504 C503.538115,692.946464 524.203205,684.543353 545.499952,678.698248 C548.199975,677.956797 551.401609,677.369815 553.494746,679.322302 C556.485828,682.096565 554.646591,687.317615 552.299552,690.740648 Z" id="Path-Copy-2" fill="#FC9895"></path>
            <path d="M334.05,708.352361 C316.102891,739.403283 302.558723,773.079267 293.889462,808 C290.473922,804.647807 287.083223,801.258641 283.742204,797.844827 C270.477489,782.414879 264.441299,758.746177 268.105242,738.374209 C275.308926,724.392359 285.12084,711.414935 299.348116,705.721136 C308.197469,702.184079 318.524819,701.537057 327.131979,698 C329.603588,701.561705 331.895105,705.00633 334.05,708.352361 Z" id="Path-Copy-3" fill="#DC657C"></path>
            <path d="M338.05,699.420121 C335.769473,701.158988 333.55075,702.984489 331.393829,704.896624 C331.338206,704.946129 331.276403,704.995634 331.220781,705.051327 C307.704781,725.917732 291.308475,756.443823 279.201289,787.254567 C278.79339,788.287987 278.391671,789.321406 277.996133,790.361013 C277.94669,790.484776 277.897248,790.614727 277.853986,790.744678 C264.183187,826.462617 254.925114,866.004826 250.3517,904 L0.736012068,903.480196 L0.05,903.480196 L0.05,574.704365 C0.278670689,574.469216 0.50116109,574.240255 0.736012068,574.005105 C19.0234869,555.279796 40.7719236,540.131232 64.4609709,529.735158 C65.7526513,529.165849 67.0443317,528.615105 68.3483726,528.076737 C75.9192265,524.93935 83.6878497,522.284639 91.5862589,520.155919 C91.5924392,520.155919 91.5924392,520.155919 91.5924392,520.155919 L119.805458,514.048225 C120.627436,514.029661 121.455595,514.011097 122.283754,514.004908 L122.469163,514.004908 C132.734622,513.924463 142.94446,514.834119 153.01215,516.641056 L153.018331,516.641056 C163.963622,518.608884 174.742046,521.628696 185.223816,525.582917 C210.791671,535.205473 234.629046,550.329285 255.036359,569.03603 C255.48134,569.438259 255.926321,569.846676 256.371302,570.261281 C274.182894,586.839306 289.472929,605.97922 302.556601,626.728051 C316.901051,649.450897 328.587978,674.104444 338.05,699.420121 Z" id="Path" fill="#30AC45"></path>
            <path d="M184.05,526.428169 C183.404896,538.83224 180.514331,551.069524 174.919291,562.139292 C166.042902,579.707608 149.915291,593.995764 130.711028,598.542276 C111.506765,603.088789 89.5918222,596.886753 77.2604026,581.523742 C70.1704566,572.696343 66.4983236,561.527737 65.0096211,550.322067 C64.0667761,543.224319 63.9427176,536.064798 64.1163995,528.905277 C71.8948704,525.804259 79.8656321,523.185072 87.9728581,521.078604 L116.915717,515.049534 C139.841737,514.493574 162.544451,518.63856 184.05,526.428169 Z" id="Path-Copy-7" fill="#258C31"></path>
            <path d="M57.3868202,690.323451 L191.295205,684.153471 C194.959087,683.980539 197.302484,688.038274 195.337254,691.157232 C167.309486,735.563795 129.232388,773.510098 84.8442385,801.296625 C81.2733483,803.532393 76.8717301,800.073746 78.1302209,796.040716 L121.284678,658.195087 C122.536969,654.192938 128.042092,653.865602 129.746944,657.694818 L188.369059,789.09254 C190.222698,793.249093 185.554503,797.275947 181.760432,794.793132 C136.851527,765.413158 93.9512486,733.111861 54.5970622,698.315397 C51.5345278,695.604065 53.307574,690.508736 57.3868202,690.323451 Z" id="Path_1_" fill="#FED26F"></path>
            <path d="M187.05,241 C184.714568,242.66442 182.379137,244.33558 180.05,246 C181.447482,245.508086 182.838669,245.009434 184.236151,244.51752 C183.285612,244.591644 182.341367,244.652291 187.05,241 Z" id="Path_2_" fill="#474747"></path>
            <path d="M157.05,518.398638 C155.336525,529.442447 153.485971,540.86198 147.248921,550.224272 C141.00564,559.592724 129.092314,566.343429 118.082456,563.232931 C109.571157,560.830764 103.626955,553.273176 99.9383102,545.419938 C96.2496652,537.572859 94.1934948,529.035926 90.05,521.398267 C96.8727471,515.706979 101.477323,507.564248 102.841872,498.928766 C102.985181,498.011015 103.097336,497.087104 103.165875,496.163194 C103.907342,486.51141 100.548931,476.625568 94.050186,469.308198 C93.7635683,468.981749 94.2931879,465.329223 96.0565098,462.674521 C97.8198317,460.013659 100.636162,458.184316 103.527262,456.743016 C106.131745,455.449541 108.867074,454.408602 111.689635,453.638677 C117.490528,452.049551 123.627885,451.593755 129.609472,452.36984 C132.718651,452.770201 135.902599,453.564764 138.544467,455.129252 C139.641091,455.782149 140.638022,456.564393 141.504106,457.500623 C147.030843,463.50604 144.80644,472.79442 143.230043,480.709252 C142.089803,486.431337 141.491644,492.362842 142.320343,498.103406 C142.52596,499.513909 142.818809,500.924412 143.20512,502.304118 C145.180289,509.313519 150.083944,515.824007 157.05,518.398638 Z" id="Path_3_" fill="#FC9895"></path>
            <path d="M143.286163,478.642268 C142.170633,484.252485 141.582221,490.071625 142.391287,495.700276 C139.780211,498.336401 137.04042,500.861921 134.300629,503.338281 C131.726328,505.667166 128.95589,508.057499 125.529619,508.776443 C120.70587,509.784192 115.857604,507.227949 111.983895,504.253859 C108.974415,501.943408 106.234624,499.338006 103.733875,496.517536 C103.874848,495.614248 103.985176,494.71096 104.052598,493.807672 C104.781983,484.344657 101.490556,474.641993 95.1222268,467.470994 C94.8402796,467.151463 95.361269,463.569036 97.0835986,460.963634 C98.8120575,458.358232 101.570237,456.563946 104.401967,455.144494 C106.95175,453.872517 109.630249,452.852478 112.394557,452.096666 C121.128791,451.734121 129.99174,452.428486 138.695327,453.559132 C139.767952,454.198192 140.748638,454.966294 141.59448,455.881872 C147.00664,461.768605 144.824614,470.875221 143.286163,478.642268 Z" id="Path_4_" fill="#DC657C"></path>
            <path d="M257.834605,296.950248 C267.24145,289.473983 276.642122,281.997717 286.048967,274.521451 C298.208734,264.849186 317.83719,268.537971 327.719316,280.504931 C337.601441,292.47806 338.292758,310.311298 331.898078,324.443414 C325.503399,338.569362 313.022663,349.265603 299.221019,356.421105 C285.425548,363.582776 270.235098,367.592324 255.192788,371.546356 C244.748968,374.291354 234.38539,364.119438 233.21262,353.423197 C232.039851,342.726955 237.391383,332.431668 243.434231,323.511965 C249.47708,314.59843 256.513696,305.993322 257.834605,296.950248 Z" id="Path_7_" fill="#FC9895"></path>
            <path d="M263.15446,309.399038 C267.297138,303.955655 271.501925,298.450834 276.905418,294.131761 C282.315122,289.812688 289.134703,286.740802 296.171665,287.017272 C303.214839,287.299885 310.295278,291.502226 312.375933,297.934757 C314.214363,303.617747 312.0157,309.767664 309.108994,315.032878 C302.382577,327.191405 291.2961,337.45765 277.644517,341.825873 C263.992934,346.194096 247.825931,344.025344 237.05,334.907984 L263.15446,309.399038 Z" id="Path_8_" fill="#DC657C"></path>
            <path d="M280.482273,278.030975 C280.451328,278.531299 280.414194,279.031623 280.370871,279.531947 C280.370871,279.544301 280.370871,279.556655 280.364682,279.569008 C280.030478,283.806322 279.566304,288.031281 278.984541,292.250064 C277.183549,305.382029 274.27473,318.390457 270.52421,331.145634 C269.292604,335.352063 267.968163,339.533785 266.557076,343.684622 C266.402352,344.141709 266.247628,344.604972 266.086714,345.062058 C263.122195,353.684929 259.786337,362.215147 256.042006,370.553883 C246.900888,390.925106 235.302747,410.165967 220.542039,426.905207 C200.390733,449.753343 174.031883,467.740306 144.479522,475.257522 C144.436199,475.263699 144.399065,475.276052 144.361932,475.288406 C143.445963,475.516949 142.529995,475.739315 141.607837,475.949328 C128.703822,478.914212 115.224232,479.741909 102.041713,478.327412 C101.521839,478.27182 101.001965,478.216229 100.482091,478.148283 C82.8373197,476.02345 65.7805015,469.865139 51.4158878,459.463338 C32.0815264,449.543331 15.1546766,436.083993 1.05,420.178627 L1.05,97.8586874 C2.33730704,96.7777401 3.66174793,95.7276771 5.01094473,94.7146751 C14.0716058,87.9139727 24.2462826,82.799548 34.9655893,79.0934431 C43.9643606,75.9741382 53.3406594,73.8554816 62.7664701,72.5583449 C87.1448471,69.2104969 112.321602,71.2179703 135.672609,78.9575526 C162.613222,87.8830885 186.874009,103.109003 208.108386,121.213325 C222.491566,133.468178 235.488416,147.051053 246.987534,160.887177 C250.119156,164.655051 253.021786,168.589699 255.707801,172.660237 C258.690888,177.181685 261.39547,181.882261 263.827738,186.718728 C273.692966,206.268431 279.176399,228.115919 280.630808,250.006645 C281.249706,259.352206 281.169249,268.710121 280.482273,278.030975 Z" id="Path" fill="#FC9895"></path>
            <path d="M212.927081,254.360923 C210.315766,252.309449 206.188001,253.738704 204.249965,256.43088 C202.311929,259.123055 201.99102,262.609946 201.726742,265.91202 C201.248526,271.875466 200.776601,277.845072 200.298385,283.814678 C200.021522,287.301569 199.750952,290.88703 200.820648,294.226066 C201.890343,297.565103 204.621212,300.614593 208.119744,300.965746 C211.221861,301.279936 214.229592,299.394797 216.041781,296.868957 C217.853971,294.343118 218.671973,291.256665 219.326375,288.225657 C221.170026,279.631642 221.918813,270.594064 219.615822,262.110939 C219.011759,259.880807 218.168587,257.656836 216.677306,255.894909 C215.186025,254.126821 212.939665,252.863901 210.630382,253.011755 C208.321099,253.141128 206.087324,254.964661 212.927081,254.360923 Z" id="Path_10_" fill="#000000"></path>
            <path d="M37.0926603,241.927158 C33.1332083,240.87027 28.5669672,242.646088 26.4278824,246.068685 C25.5268926,247.518834 25.036558,249.171758 24.6136444,250.818537 C21.5061487,262.886726 21.2180772,275.649266 23.7800755,287.846493 C24.4175105,290.881974 25.3491463,294.077218 27.7395275,296.104968 C29.2166606,297.358487 31.177999,298.046693 33.1270791,297.997536 C37.9813918,297.880786 41.6221263,293.53034 43.5405605,289.167603 C47.113874,281.025877 47.1016157,271.864131 47.0341946,262.99733 C46.9851612,256.361056 46.6848312,249.073443 42.1431069,244.151539 C40.0653139,241.908724 36.8168471,240.323391 33.8870978,241.288109 C30.607985,242.357287 29.1002061,245.982659 37.0926603,241.927158 Z" id="Path_11_" fill="#000000"></path>
            <path d="M306.898985,244.74588 C305.258032,248.970158 302.948312,253.039814 300.056518,256.54046 C297.907798,261.315193 295.41231,265.947674 292.601016,270.382238 C292.464786,270.611079 292.322363,270.833735 292.179941,271.056391 C290.38418,273.85196 288.377882,276.641344 285.529435,278.410222 C284.123788,279.282291 282.451873,279.845116 280.78615,279.974999 C280.693266,279.981183 280.606574,279.987368 280.51369,279.987368 C279.937808,280.018293 279.361926,279.993553 278.798429,279.90078 C277.782895,279.752343 276.8169,279.412174 275.949981,278.843164 C273.596915,277.290757 272.500882,274.501373 271.578233,271.878981 C262.444623,246.063261 256.308076,219.016748 255.942731,191.753764 C255.942731,191.574402 255.930347,191.388856 255.930347,191.209494 C255.899385,191.221864 255.874616,191.228049 255.843655,191.240419 C255.676463,191.296083 255.515464,191.351747 255.354465,191.401226 C252.29548,192.415547 249.174572,193.299986 246.066048,194.128761 C196.434942,207.35205 143.299006,210.061031 93.3768621,197.629407 C74.6699908,192.972187 56.4461172,186.100777 39.3863919,177.175985 C39.3616228,177.163615 39.3306614,177.151245 39.3058923,177.13269 C25.6952657,170.013885 12.8277124,161.590068 1.05,151.935459 L1.05,31.7816507 C13.2735564,24.8793163 26.7107992,19.7211202 40.123273,15.2494466 C65.2948822,6.85036943 92.1198297,0.411901605 118.548471,0.0160688089 C119.786927,0 121.025382,0 122.257646,0.00369903405 C137.218189,0.102657233 152.017733,2.20551896 166.278549,7.0606556 C186.564451,13.9691749 204.491095,26.04826 220.454787,40.3044256 C220.993515,40.7868468 221.532244,41.269268 222.064779,41.7516892 C222.597315,42.2341104 223.123659,42.7165317 223.650003,43.1989529 C224.194923,43.6999288 224.733651,44.2009047 225.272379,44.7080654 C225.829684,45.227596 226.380797,45.7533114 226.93191,46.2790268 C227.501599,46.817112 228.065097,47.367567 228.628594,47.9118371 C230.034241,49.2786972 231.427503,50.6579271 232.802189,52.0495268 C234.059222,53.3359834 235.310062,54.62244 236.548517,55.9212663 C247.67604,67.5983338 257.998568,80.1536553 267.1941,93.4326086 C269.633858,96.9456247 271.986923,100.50812 274.253297,104.120094 C274.401911,104.348935 274.544334,104.577776 274.686756,104.806617 C284.743015,120.893509 293.114975,137.908134 299.294868,155.578358 C299.511598,156.209216 299.73452,156.83389 299.945057,157.464748 C299.945057,157.470933 299.945057,157.470933 299.945057,157.470933 C305.648145,174.238163 309.35732,191.574402 310.651506,209.269365 C311.524617,221.218568 311.245964,233.545049 306.898985,244.74588 Z" id="Path" fill="#161727"></path>
            <path d="M274.05,104.005545 C274.031441,104.011725 274.012882,104.024084 273.994322,104.030263 C268.432742,106.539161 262.759805,108.788518 256.994073,110.772154 C241.187801,116.234877 224.701023,119.751042 208.022467,121.320648 C175.568571,124.373346 142.378491,120.041481 112.058906,108.20146 C120.992079,116.4697 129.925252,124.73794 138.852239,133 C99.828377,125.714309 63.4213658,106.427929 34.951516,79.1822873 C21.7806533,66.5821821 10.3048664,52.2703412 1.05,36.6546149 L1.05,31.432894 C13.2062918,24.629208 26.5503739,19.5434372 39.863524,15.1312375 C65.0793231,6.77030457 91.9654524,0.362109821 118.437092,0.0160549454 C119.674374,-0.00248370869 120.911656,-0.00248370869 122.142751,0.00369584266 C136.983944,0.12728687 151.66429,2.22833433 165.818791,7.01130707 C186.221565,13.9138659 204.217826,26.019607 220.246809,40.2696524 C220.785027,40.7516574 221.323244,41.2336625 221.855275,41.7156675 C222.387307,42.1976725 222.913151,42.6796775 223.438996,43.1616825 C223.9834,43.6622261 224.521617,44.1627698 225.059835,44.669493 C225.616612,45.1885753 226.167202,45.7138372 226.717792,46.239099 C227.286942,46.77672 227.849905,47.3267001 228.412868,47.8705006 C229.817183,49.2361814 231.209124,50.6142214 232.582507,52.0046205 C233.726992,53.1601966 234.859105,54.3219522 235.978845,55.4898874 C247.256667,67.2495736 257.70551,79.9176539 266.985122,93.3149212 C269.422567,96.8249064 271.779588,100.390508 274.05,104.005545 Z" id="Path" fill="#1E1F36"></path>
            <path d="M122.05,427 C124.385432,426.71991 126.720863,426.445206 129.05,426.165115 C128.710072,424.7108 127.230755,424.242187 122.05,427 Z" id="Path_14_" fill="#636363"></path>
            <path d="M50.4277002,327.183293 C48.0323304,335.217913 39.7006092,339.618847 31.8834944,341.699623 C22.0814696,344.302128 11.7709647,344.707235 1.86479332,342.859702 C1.59523763,342.810598 1.32568195,342.755356 1.05,342.693977 L1.05,308.775481 C3.83132455,307.351468 6.77193201,306.265045 9.78605465,305.553039 C13.0513542,304.779653 19.5206906,303.11626 26.1002998,303.005776 C32.6737827,302.889155 39.4739374,304.527996 44.5036014,308.873688 C49.5271392,313.219381 52.3881052,320.61565 50.4277002,327.183293 Z" id="Path" fill="#C54C67"></path>
            <path d="M218.522551,306.416428 C224.105607,307.419679 229.485755,309.987006 234.017376,313.819302 C237.995611,317.184244 241.531137,322.225427 240.996196,327.665417 C240.307537,334.576012 233.617708,338.458159 227.536604,340.097011 C219.131277,342.371463 210.246347,342.608255 201.662706,340.801156 C194.819159,339.355477 187.403778,335.822287 184.870497,328.606355 C182.804521,322.711474 184.821307,315.775953 188.891773,311.50123 C192.962239,307.226507 198.705162,305.332169 204.362003,305.045525 C210.012695,304.758882 215.669536,305.899224 218.522551,306.416428 Z" id="Path_16_" fill="#C54C67"></path>
            <path d="M306.800073,244.866636 C305.121466,249.080407 302.760348,253.127112 299.796654,256.616931 C297.484726,261.61653 294.791576,266.461438 291.741799,271.083593 C289.903325,273.868023 287.849645,276.652453 284.928991,278.415925 C282.008338,280.17321 278.005506,280.680595 275.127894,278.842871 C272.717586,277.295966 271.598515,274.517723 270.651608,271.900359 C261.24403,246.005158 254.941568,218.866246 254.640279,191.516954 C254.44352,191.585018 254.252909,191.646894 254.05,191.702582 L254.117636,191.57883 C271.026682,182.297396 286.281715,170.200594 299.015763,156 C305.225995,173.288218 309.265719,191.201385 310.643038,209.504373 C311.534606,221.427921 311.251764,233.710352 306.800073,244.866636 Z" id="Path_17_" fill="#000000"></path>
            <path d="M206.848142,403.919281 C202.812918,411.697914 196.605357,418.123473 190.205937,424.12272 C188.943382,425.302799 187.66226,426.476699 186.356382,427.644421 C169.132411,443.028691 148.597327,456.089874 125.636158,456.954853 C110.757815,457.51709 95.9970638,452.784419 83.2106014,445.191138 C74.0694567,439.760306 65.8752281,432.908436 58.3865449,425.352226 C55.4034496,422.343335 52.5317562,419.217054 49.7590867,416.02281 C42.2580255,407.391554 35.1283039,397.289835 33.2530386,386.329315 C32.4175244,381.45454 34.1690098,379.601014 38.35277,376.956649 C38.371337,376.950471 38.377526,376.938114 38.402282,376.931935 C63.6038672,367.645768 92.0918084,362.604175 120.790175,363.024308 C151.270973,363.475333 182.222134,364.420631 207.467042,378.544503 C207.838382,378.748391 208.203532,378.964636 208.574872,379.174702 C215.308498,384.481967 210.877178,396.140648 206.848142,403.919281 Z" id="Path_19_" fill="#000000"></path>
            <path d="M186.05,428.204781 C168.821009,443.821468 148.281832,457.078577 125.313954,457.954105 C110.43353,458.525372 95.6640621,453.719282 82.8794727,446.013393 C73.7379364,440.499429 65.5395256,433.55109 58.05,425.876249 C60.0040573,424.553643 61.9889357,423.262083 64.0046352,422.0202 C80.8391163,411.650471 100.163942,404.522058 119.877113,405.025021 C130.676824,405.298235 141.32243,407.850307 151.548868,411.383466 C163.649229,415.581033 175.268782,421.244022 186.05,428.204781 Z" id="Path_20_" fill="#C54C67"></path>
            <path d="M206.05,377.023693 C201.256539,381.35034 196.148448,385.387706 190.096472,387.186283 C181.428759,389.764662 176.548929,388.890529 163.112431,388.720733 C139.034078,388.607536 114.548559,387.959797 91.0624492,386.808959 C76.6142039,386.739783 68.1500739,388.047839 56.9529922,385.085846 C50.3334503,383.331291 44.4727189,379.753003 39.05,375.388623 C39.0623384,375.382335 39.0746768,375.369757 39.0931843,375.363468 C63.9797008,365.785731 92.1050425,360.591239 120.446306,361.025162 C150.558127,361.490528 181.120299,362.465281 206.05,377.023693 Z" id="Path_21_" fill="#FFFFFF"></path>
            <path d="M249.05,193.241653 C244.672182,196.339686 240.003334,199.052793 235.353064,201.349932 C228.795624,204.584552 222.04623,207.396995 215.154417,209.781053 C206.256362,212.866669 197.129199,215.23831 187.86581,216.920809 C159.927032,221.99314 130.793177,220.757652 103.294039,213.51856 C64.5686138,203.330439 29.1807333,181.594538 1.05,152.743716 L1.05,149 C12.8088075,159.020492 25.6760018,167.786871 39.3048251,175.206009 C39.3295935,175.224634 39.360554,175.237051 39.3853225,175.249468 C56.9523245,184.810532 75.782516,192.136543 95.1328444,197.05987 C145.171245,209.781053 198.429541,207.005861 248.183105,193.471367 C248.467942,193.396865 248.758971,193.322363 249.05,193.241653 Z" id="Path" fill="#DC657C"></path>
            <path d="M188.072391,229.179345 C186.172424,224.449341 186.965614,218.759626 190.076888,214.733825 C193.19431,210.708024 198.525287,208.489472 203.610313,209.100197 C217.568003,210.776575 230.781693,218.061654 239.617464,228.948765 C242.242986,232.183116 244.591813,236.15283 243.940044,240.240949 C243.288275,244.335301 238.117166,247.625738 234.766091,245.139214 C221.281856,235.1308 204.200594,230.026882 188.072391,229.179345 Z" id="Path_23_" fill="#000000"></path>
            <path d="M59.1640333,223.894481 C61.7154549,219.478435 61.678117,213.75051 59.0520197,209.365259 C56.4321453,204.97385 51.3230791,202.079092 46.0833304,202.005183 C31.7082477,201.808093 17.3456109,207.240384 6.93456619,216.817722 C3.84174537,219.663207 0.929390952,223.266257 1.05385054,227.398986 C1.17208715,231.531715 5.97622734,235.467354 9.6975691,233.459501 C24.7011727,225.360337 42.6980295,222.59492 59.1640333,223.894481 Z" id="Path_24_" fill="#000000"></path>
            <path d="M155.759041,301.285299 C157.576342,300.828729 159.593485,300.882094 161.248416,301.72408 C162.903347,302.571996 164.127371,304.279687 164.046186,306.07039 C163.958756,308.01526 162.391255,309.681444 160.548973,310.53529 C158.706691,311.389135 156.614609,311.56702 154.578731,311.697468 C143.019194,312.47423 130.704009,312.088814 120.05,306.491383 C126.138897,306.609973 132.25902,306.722633 138.285467,305.874717 C144.311914,305.032731 150.132275,302.702445 155.759041,301.285299 Z" id="Path_25_" fill="#C54C67"></path>
            <path d="M115.05,283.994803 C126.401446,284.194863 137.684435,278.605306 144.218985,269.548039 C144.828876,268.705362 145.401427,267.547439 144.785313,266.704761 C144.281219,266.013645 143.266808,265.965145 142.395535,266.013645 C130.589781,266.692636 119.456153,274.167609 115.05,283.994803 Z" id="Path_26_" fill="#FFFFFF"></path>
            <path d="M111.05,293.279133 C112.052506,287.7651 114.46959,282.398928 118.012187,277.833678 L118.670273,276.971148 C118.885535,276.681584 119.14385,276.422825 119.377563,276.151744 L120.822893,274.519097 C121.333371,274.001579 121.862301,273.502543 122.38508,272.997347 C122.649544,272.744749 122.907859,272.48599 123.178474,272.245714 L124.01492,271.543367 C124.580752,271.081297 125.128132,270.594584 125.718565,270.150997 L127.514465,268.875684 C128.104897,268.432097 128.750683,268.074763 129.378018,267.686624 L130.325171,267.113658 L130.798747,266.830255 C130.958656,266.744002 131.130866,266.66391 131.290774,266.577657 L133.277335,265.585747 C133.609453,265.413241 133.947722,265.271539 134.292141,265.135999 L135.325399,264.717055 C136.684624,264.113284 138.136105,263.737467 139.556834,263.275397 C140.282574,263.084409 141.014465,262.936546 141.746355,262.757879 L142.847267,262.511442 L143.960478,262.357419 C144.71082,262.258844 145.43656,262.147947 146.211503,262.061694 C147.029499,262 147.859795,261.975441 148.67779,262.030889 C151.980524,262.203395 155.135649,263.373972 157.835649,265.068228 C160.529499,266.805611 162.805125,269.078995 164.539522,271.722034 C166.261617,274.365074 167.454784,277.377769 167.885308,280.55681 C167.952961,280.951109 167.965262,281.357731 168.008314,281.752031 C168.032916,282.152491 168.026765,282.54063 168.039066,282.934929 C168.039066,283.329229 168.063667,283.723529 168.039066,284.111667 L167.952961,285.288405 L167.909909,285.873694 C167.885308,286.064682 167.854556,286.261832 167.823804,286.452821 L167.633144,287.611076 C167.485535,288.375032 167.282574,289.126665 167.079613,289.878299 C166.169362,292.841707 164.742483,295.607965 162.915831,298.047694 C162.805125,298.201717 162.694419,298.35574 162.577563,298.503603 L162.214692,298.941029 L161.488952,299.815881 C160.984624,300.382687 160.455695,300.93101 159.926765,301.467011 C158.819704,302.508208 157.67574,303.493957 156.433371,304.356488 L155.50467,305.003385 C155.191002,305.212857 154.858884,305.397685 154.532916,305.588674 C154.200797,305.779663 153.89328,305.989134 153.555011,306.15548 L152.546355,306.672998 L152.042027,306.925596 L151.531549,307.14739 L150.498292,307.590977 C149.809453,307.874379 149.096014,308.108495 148.401025,308.354932 C145.565718,309.260589 142.638155,309.765785 139.722893,309.938291 C136.807631,310.104637 133.898519,309.93213 131.069362,309.451578 L130.005353,309.26675 C129.654784,309.19898 129.304214,309.118888 128.953645,309.044956 C128.252506,308.903255 127.557517,308.730749 126.874829,308.545921 C125.497153,308.170104 124.144077,307.732678 122.827904,307.233643 C123.535194,307.326057 124.224032,307.443114 124.925171,307.535528 C125.62631,307.609459 126.321298,307.720356 127.022437,307.757322 C127.717426,307.818931 128.418565,307.892862 129.113554,307.917506 C129.464123,307.935989 129.808542,307.960632 130.159112,307.972954 L131.20467,307.985276 C133.984624,308.00992 136.746128,307.831253 139.427677,307.3507 C142.109226,306.882469 144.71697,306.130836 147.164806,305.095799 C147.76754,304.812397 148.376424,304.547476 148.966856,304.245591 L149.840205,303.783521 L150.276879,303.549406 L150.695103,303.290646 L151.525399,302.779289 C151.802164,302.612944 152.060478,302.403472 152.324943,302.224805 C152.589408,302.033816 152.860023,301.855149 153.118337,301.658 L153.874829,301.048067 C157.897153,297.776613 160.892369,293.303777 162.183941,288.516733 C162.257745,288.214848 162.313098,287.912962 162.380752,287.611076 C162.436105,287.309191 162.53451,287.013466 162.565262,286.705419 L162.688269,285.793602 C162.70672,285.639578 162.731321,285.491716 162.749772,285.337693 L162.768223,284.881784 L162.811276,283.969966 C162.823576,283.66808 162.792825,283.366195 162.786674,283.058148 C162.774374,282.756262 162.774374,282.448216 162.743622,282.152491 C162.70672,281.862927 162.688269,281.567203 162.632916,281.271478 C162.454556,280.100901 162.147039,278.936485 161.710364,277.815195 C161.26754,276.693906 160.701708,275.615743 160.031321,274.599189 C157.392825,270.520653 152.98303,267.446348 148.30262,267.033566 C147.718337,266.971956 147.134055,266.971956 146.549772,266.990439 C145.922437,267.033566 145.25205,267.119819 144.606264,267.175267 L143.62836,267.267681 L142.656606,267.440187 C142.01082,267.557245 141.352733,267.65582 140.706948,267.79136 C139.433827,268.136372 138.129954,268.407453 136.881435,268.869523 L135.934282,269.183731 C135.614465,269.288466 135.300797,269.387041 134.99328,269.528743 L133.148178,270.298859 C130.737244,271.42631 128.344761,272.68314 126.16139,274.266499 L125.324943,274.839466 C125.054328,275.042776 124.796014,275.258409 124.531549,275.46172 L122.93861,276.724711 L121.431777,278.086276 C121.185763,278.320392 120.921298,278.536024 120.687585,278.782462 L119.980296,279.515612 C118.042938,281.431662 116.388497,283.618793 114.850911,285.898337 L113.75615,287.654203 C113.399431,288.245652 113.110364,288.874067 112.784396,289.483999 L112.292369,290.401978 C112.13246,290.710025 112.015604,291.036554 111.867995,291.350762 C111.621982,291.991498 111.339066,292.632235 111.05,293.279133 Z" id="Path_27_" fill="#262626"></path>
            <path d="M370.583512,240 L396.320777,240 C399.312735,240 401.05,238.111562 401.05,235.3286 C401.05,232.479378 399.312735,230.657201 396.320777,230.657201 L380.267158,230.657201 L380.267158,230.425287 L389.500402,221.745098 C396.867694,214.887086 399.891823,211.375254 399.891823,205.246112 C399.891823,196.797836 392.942761,191 382.358311,191 C373.897185,191 367.720241,195.207573 365.693432,200.707235 C365.339544,201.568627 365.210858,202.43002 365.210858,203.357674 C365.210858,206.339419 367.044638,208.161596 370.100938,208.161596 C372.481635,208.161596 373.865013,207.200811 375.344906,204.848546 C377.05,201.668019 379.141153,200.144016 382.197453,200.144016 C385.897185,200.144016 388.470912,202.595673 388.470912,206.041244 C388.470912,209.15551 386.991019,211.342123 381.554021,216.444219 L368.29933,228.835024 C365.982976,230.889114 365.05,232.512508 365.05,234.798513 C365.05,237.813387 366.787265,240 370.583512,240 Z" id="Path" fill="#000000"></path>
            <path d="M438.033857,240 C441.230269,240 443.102915,237.940559 443.102915,234.452797 L443.102915,226.082168 L450.819507,226.082168 C454.080493,226.082168 456.05,224.188811 456.05,221 C456.05,217.844406 454.11278,215.951049 450.884081,215.951049 L443.102915,215.951049 L443.102915,207.547203 C443.102915,204.059441 441.230269,202 438.033857,202 C434.902018,202 432.997085,204.059441 432.997085,207.547203 L432.997085,215.951049 L425.183632,215.951049 C421.954933,215.951049 420.05,217.844406 420.05,221 C420.05,224.188811 421.954933,226.082168 425.183632,226.082168 L432.997085,226.082168 L432.997085,234.41958 C432.997085,237.940559 434.869731,240 438.033857,240 Z" id="Path" fill="#000000"></path>
            <path d="M480.583512,240 L506.320777,240 C509.312735,240 511.05,238.111562 511.05,235.3286 C511.05,232.479378 509.312735,230.657201 506.320777,230.657201 L490.267158,230.657201 L490.267158,230.425287 L499.500402,221.745098 C506.867694,214.887086 509.891823,211.375254 509.891823,205.246112 C509.891823,196.797836 502.942761,191 492.358311,191 C483.897185,191 477.720241,195.207573 475.693432,200.707235 C475.339544,201.568627 475.210858,202.43002 475.210858,203.357674 C475.210858,206.339419 477.044638,208.161596 480.100938,208.161596 C482.481635,208.161596 483.865013,207.200811 485.344906,204.848546 C487.05,201.668019 489.141153,200.144016 492.197453,200.144016 C495.897185,200.144016 498.470912,202.595673 498.470912,206.041244 C498.470912,209.15551 496.991019,211.342123 491.554021,216.444219 L478.29933,228.835024 C475.982976,230.889114 475.05,232.512508 475.05,234.798513 C475.05,237.813387 476.787265,240 480.583512,240 Z" id="Path" fill="#000000"></path>
            <path d="M533.112687,241 C535.150498,241 536.201244,240.348018 537.920647,237.642291 L543.715672,228.547137 L543.938557,228.547137 L549.956468,237.903084 C551.293781,239.989427 552.280846,241 554.573383,241 C557.6301,241 559.954478,239.076652 559.954478,235.881938 C559.954478,234.577974 559.540547,233.469604 558.680846,232.296035 L551.484826,222.353304 L558.426119,213.062555 C559.63607,211.497797 560.05,210.356828 560.05,208.889868 C560.05,205.923348 557.980348,204 554.828109,204 C552.694776,204 551.484826,204.945374 549.924627,207.520705 L544.607214,216.094273 L544.384328,216.094273 L538.971393,207.488106 C537.379353,204.880176 536.169403,204 533.781343,204 C530.724627,204 528.43209,206.151542 528.43209,209.085463 C528.43209,210.454626 528.814179,211.595595 529.64204,212.703965 L536.83806,222.614097 L529.673881,232.263436 C528.495771,233.828194 528.05,234.903965 528.05,236.338326 C528.05,239.109251 530.151493,241 533.112687,241 Z" id="Path" fill="#000000"></path>
            <path d="M606.876603,241 C610.122842,241 612.492597,239.091336 612.492597,235.241101 L612.492597,232.14775 L614.310491,232.14775 C617.42688,232.14775 619.05,230.206179 619.05,227.474815 C619.05,224.743452 617.459343,222.768972 614.310491,222.768972 L612.492597,222.768972 L612.492597,200.490262 C612.492597,195.323707 608.629572,192 602.656492,192 C597.949446,192 595.190143,193.908664 591.586817,199.568838 C587.269319,206.183345 583.536144,212.172599 580.419755,217.865682 C578.764173,220.827401 578.05,223.098052 578.05,225.401612 C578.05,229.416387 580.971615,232.14775 585.256651,232.14775 L601.228147,232.14775 L601.228147,235.241101 C601.228147,239.091336 603.597902,241 606.876603,241 Z" id="Path" fill="#000000"></path>
            <path d="M601.05,223 L588.05,223 L588.05,222.672619 C591.697482,215.306548 595.407314,209.25 600.831775,201 L601.05,201 L601.05,223 Z" id="Path" fill="#E5F6FF"></path>
            <path d="M348.34765,521 C351.762794,521 354.05,518.663533 354.05,515.043653 L354.05,478.746138 C354.05,474.599731 351.637467,472 347.501697,472 C345.245822,472 343.303264,472.263264 340.890731,473.97448 L332.337206,480.095366 C330.707963,481.280054 330.05,482.629281 330.05,484.373405 C330.05,486.808596 331.710574,488.55272 333.935117,488.55272 C335.031723,488.55272 335.721018,488.289456 336.754961,487.532572 L342.394648,483.419073 L342.613969,483.419073 L342.613969,515.043653 C342.613969,518.663533 344.932507,521 348.34765,521 Z" id="Path" fill="#000000"></path>
            <path d="M381.865182,521 C392.368482,521 400.05,514.01847 400.05,504.127968 C400.05,495.401055 394.24967,489.065963 385.439439,489.065963 C379.325578,489.065963 374.998845,492.136544 373.274422,496.5 L373.05495,496.5 L373.05495,495.98285 C372.992244,487.223615 375.75132,481.114776 381.677063,481.114776 C384.404785,481.114776 386.317327,482.052111 388.323927,484.282322 C389.922937,485.930739 391.208416,486.900396 393.465842,486.900396 C396.475743,486.900396 398.137459,484.864116 398.137459,482.343008 C398.137459,481.470317 397.94934,480.662269 397.573102,479.789578 C395.660561,475.523087 390.079703,472 381.677063,472 C369.574752,472 362.05,481.373351 362.05,496.693931 C362.05,502.317942 363.116007,507.166227 364.997195,510.78628 C368.571452,517.735488 374.434488,521 381.865182,521 Z" id="Path" fill="#000000"></path>
            <path d="M382.049886,512 C378.110556,512 375.05,508.69265 375.05,504.349666 C375.05,500.040089 378.110556,497 382.140794,497 C386.080124,497 389.080075,500.106904 389.049772,504.516704 C389.01947,508.726058 385.958914,512 382.049886,512 Z" id="Path" fill="#E5F6FF"></path>
            <path d="M621.110052,525 C624.667493,525 627.05,522.663533 627.05,519.043653 L627.05,482.746138 C627.05,478.599731 624.536945,476 620.228851,476 C617.878982,476 615.855483,476.263264 613.342428,477.97448 L604.432507,484.095366 C602.735379,485.280054 602.05,486.629281 602.05,488.373405 C602.05,490.808596 603.779765,492.55272 606.096997,492.55272 C607.239295,492.55272 607.957311,492.289456 609.034334,491.532572 L614.909008,487.419073 L615.137467,487.419073 L615.137467,519.043653 C615.137467,522.663533 617.552611,525 621.110052,525 Z" id="Path" fill="#000000"></path>
            <path d="M656.066168,525 C668.418634,525 676.05,515.626649 676.05,500.403034 C676.05,485.082454 668.353961,476 656.066168,476 C643.810711,476 636.05,485.114776 636.05,500.435356 C636.05,515.691293 643.713703,525 656.066168,525 Z" id="Path" fill="#000000"></path>
            <path d="M656.066293,516 C651.113136,516 648.05,510.778602 648.05,500.401483 C648.05,490.090042 651.113136,485 656.066293,485 C661.01945,485 664.05,490.057203 664.05,500.434322 C664.05,510.778602 661.052037,516 656.066293,516 Z" id="Path" fill="#E5F6FF"></path>
        </g>
    </g>
</svg>