<?xml version="1.0" encoding="UTF-8"?>
<svg width="788px" height="949px" viewBox="0 0 788 949" version="1.1" xmlns="http://www.w3.org/2000/svg" xmlns:xlink="http://www.w3.org/1999/xlink">
    <title>girl-presenting-illustration</title>
    <g id="girl-presenting-illustration" stroke="none" stroke-width="1" fill="none" fill-rule="evenodd">
        <path d="M480.385782,764.188627 C472.143536,776.207881 459.726478,784.109994 448.834171,793.498124 C431.662467,808.292734 417.956887,827.160777 406.617893,847.270082 C395.278898,867.375016 386.194818,888.786771 377.115032,910.137337 C372.454877,921.090155 367.524133,932.42759 358.259659,939.162743 C349.570725,942.134777 344.974996,941.234425 336.646848,937.265886 C328.335881,933.297347 318.435736,925.342786 311.293029,919.3419 C308.793296,917.724764 306.413825,915.57441 304.120256,913.459022 C287.352288,898.039411 270.584321,882.619801 254.683959,866.417846 C251.767604,863.450183 248.877019,860.447555 246.02509,857.423074 C234.707571,843.756089 229.553483,822.798881 232.684591,804.756888 C233.006722,802.890625 233.419049,801.059328 233.925868,799.267366 C239.29471,780.137084 254.696844,766.981464 280.188106,764.783034 C281.171678,766.212232 282.129479,767.615207 283.05292,769.000699 C285.166096,772.16067 287.12465,775.211376 288.958646,778.174668 C303.213995,801.172964 310.154834,819.061985 325.94782,846.085639 C329.15624,851.57516 343.274147,877.969442 346.96791,883.279767 C362.730831,860.093533 378.596833,836.872335 396.077782,813.227184 C395.304669,804.512132 397.976205,795.504247 403.319276,788.812801 C408.000907,782.947405 414.443517,778.996348 420.886127,775.451761 C437.894619,766.102966 455.903863,758.79526 474.462876,753.712208 C476.816576,753.069724 479.604079,752.55836 481.429485,754.254167 C484.0323,756.67113 482.430237,761.212223 480.385782,764.188627 Z" id="Path-Copy-2" fill="#FC9895" fill-rule="nonzero"></path>
        <path d="M290.483871,780.216316 C275.30016,807.010759 263.846379,836.066463 256.509998,866.199566 C253.618877,863.308049 250.753302,860.382463 247.92605,857.435586 C236.706454,844.119275 231.59696,823.699797 234.700978,806.120734 C240.794048,794.056421 249.092717,782.856582 261.129832,777.946539 C268.61524,774.893198 277.352473,774.335336 284.633501,771.281996 C286.719878,774.356628 288.661485,777.329057 290.483871,780.216316 Z" id="Path-Copy-3" fill="#DC657C" fill-rule="nonzero"></path>
        <path d="M293.04782,593.370886 C286.848358,630.385911 260.393316,661.208815 228.988149,680.030451 C197.57869,698.852088 161.459528,707.277503 125.72676,713.835384 C98.4517056,718.84416 70.6271145,722.927775 43.1202243,719.567076 C27.8791661,717.703846 12.6424011,713.323319 -0.975806452,706.081249 L-0.975806452,468.723803 C7.16849988,461.47743 15.5875746,454.536575 23.9894763,447.621538 C45.2239196,430.133854 66.5399349,412.59023 89.6891704,397.976998 C85.3057562,394.698057 81.0382599,391.285721 76.9038545,387.830354 C65.2734244,378.114018 53.939229,367.739312 45.3527173,355.079674 C34.5251261,339.110974 28.5446207,320.065578 26.5396702,300.598481 C18.5756806,314.148854 9.37094012,326.907462 -0.975806452,338.616121 L-0.975806452,125.614062 C15.0036918,113.440672 23.8649718,106.430968 41.5360129,103.074572 C44.3137494,102.545294 47.1344185,102.300019 49.9550876,102.269897 C53.3252934,102.239776 60.5551363,101.654558 60.8127316,102.183836 C73.8556428,92.3986504 90.3288655,85.9268303 107.046804,83.6634144 C117.530935,82.2434007 128.092344,82.3337652 138.567888,83.6031714 C155.178495,85.612706 171.561559,90.5956633 187.047333,97.2439093 C201.137799,103.294028 214.803232,110.820101 226.274812,121.224929 C240.884761,134.474087 251.411825,151.923044 259.702102,170.103523 C270.898913,194.665457 278.343419,221.22832 280.867853,248.212884 C282.074258,261.087675 282.15583,274.06574 280.996651,286.970652 C279.489718,303.69239 275.818984,320.267823 270.066021,335.986944 C265.965962,347.209356 260.801175,357.992854 254.606007,368.08786 C253.047555,370.635279 251.411825,373.139667 249.720282,375.596721 C249.892012,375.592418 250.063742,375.583812 250.235473,375.579509 C251.347426,375.55369 252.463672,375.575206 253.579919,375.648358 C253.597092,375.648358 253.622851,375.652661 253.640024,375.652661 C264.677985,376.410002 278.643946,385.954215 275.003265,394.861574 C273.152872,399.392709 271.718925,404.009905 270.658491,408.708859 L270.658491,408.713162 C268.945481,416.252144 268.176989,423.980461 268.12547,431.799143 C267.975206,452.570071 272.860931,473.960641 278.515149,494.107624 C287.603971,526.557089 298.624759,560.082322 293.04782,593.370886 Z" id="Path-Copy-4" fill="#141421" fill-rule="nonzero"></path>
        <path d="M241.223328,563.953283 C237.293452,589.287715 216.724957,607.704528 197.513665,623.789608 C190.731946,629.465935 183.860033,635.189672 176.816322,640.641876 C173.285876,657.826017 167.891425,673.648185 159.009477,685.466322 C146.902025,701.555713 129.988529,707.451851 113.839533,706.572603 C78.7541211,704.646013 57.7045922,663.463553 21.5110846,632.694157 C13.7415278,626.086861 6.6376876,615.91947 1.02419355,604.622848 L1.02419355,432.479734 C44.2313475,409.830458 112.409316,437.931938 133.789556,450.293141 C138.097386,452.788656 142.259189,455.840166 146.232013,459.404572 L236.206831,446.388242 C227.60835,456.572874 225.319144,471.162369 226.719296,484.639873 C228.115153,498.117377 232.762285,510.956995 236.546132,523.938844 C240.321389,536.903453 243.293492,550.57491 241.223328,563.953283 Z" id="Path-Copy-5" fill="#0A0606" fill-rule="nonzero"></path>
        <path d="M-2.97580645,949.546354 L-2.97580645,662.080175 C14.0102442,644.527203 34.4521818,630.522722 56.7407106,621.306981 C63.3634151,618.56379 70.1586983,616.246936 77.0661576,614.382256 L101.731957,609.042294 C121.254913,608.559974 140.605291,612.220432 158.933141,619.127932 C181.778235,627.723548 203.044236,641.344758 221.139104,658.195783 C253.765092,688.564664 276.730992,728.78233 292.556452,771.127368 C268.75786,789.270319 252.682161,818.450628 241.097822,847.923774 C228.503897,879.942014 220.0044,915.690744 215.875456,950" id="Path" fill="#30AC45" fill-rule="nonzero"></path>
        <path d="M160.935484,617.748651 C160.377968,628.651174 157.895278,639.40833 153.082345,649.139367 C145.446987,664.58247 131.570059,677.143887 115.049286,681.141479 C98.5285126,685.139071 79.6774956,679.683534 69.0672651,666.181507 C62.9694315,658.421476 59.8116248,648.604929 58.5267242,638.754179 C57.7165834,632.516226 57.6076935,626.222691 57.7601394,619.92488 C64.450334,617.197111 71.3103967,614.896893 78.283705,613.045602 L103.180288,607.743982 C122.902425,607.256576 142.432914,610.899301 160.935484,617.748651 Z" id="Path-Copy-7" fill="#258C31" fill-rule="nonzero"></path>
        <path d="M108.307934,764.032252 C105.855669,756.765496 92.9669179,746.672545 85.2654802,746.397128 C71.8023244,745.922565 62.2362817,754.701992 56.978272,767.044883 C51.7202624,779.383538 53.0767405,793.828068 58.3966091,806.141299 C63.7164777,818.45453 72.6683495,828.886456 82.4597356,838.093838 C86.9975305,842.360673 92.0611263,846.568188 98.2028351,847.707988 C103.368056,848.66559 108.692343,847.318168 113.570362,845.381779 C129.684616,838.987882 142.6529,826.238221 151.883137,811.628441 C158.36507,801.37024 163.287274,789.658688 162.942631,777.548841 C162.597989,765.438994 160.101539,757.922245 150.531077,750.430919 C143.143353,744.651412 139.65716,742.965017 127.090959,748.062338 C115.315668,752.82916 112.973866,759.676436 108.307934,764.032252 Z" id="Path-Copy-8" fill="#FED26F" fill-rule="nonzero"></path>
        <path d="M359.306452,159.265618 C363.356455,159.332761 367.401609,159.399903 371.451613,159.46757" id="Path-Copy-9"></path>
        <path d="M241.024024,365.217505 C249.407255,356.346538 257.786303,347.475571 266.169534,338.604604 C277.008332,327.135615 296.117414,329.249032 306.583903,341.139807 C317.050392,353.030582 319.208949,372.042361 314.268532,387.751646 C309.328115,403.460931 298.263421,416.056178 285.650925,424.998939 C273.034246,433.941699 258.823749,439.644784 244.747115,445.271589 C234.975046,449.17984 224.194813,439.258895 222.174303,427.924518 C220.153794,416.590141 224.416525,405.080768 229.45734,394.98034 C234.498155,384.879912 240.517851,375.021786 241.024024,365.217505 Z" id="Path-Copy-10" fill="#FC9895" fill-rule="nonzero"></path>
        <path d="M250.774446,382.725764 C254.310866,376.868999 257.894668,370.941821 262.753477,366.120551 C267.612286,361.29514 273.952859,357.608775 280.801712,357.298126 C287.650564,356.987477 294.887088,360.648991 297.471561,366.982084 C299.754512,372.577904 298.169369,378.989695 295.817498,384.556521 C290.372876,397.425665 280.534649,408.749848 267.68982,414.316674 C254.84499,419.883501 238.984942,419.055104 227.733871,410.738 L250.774446,382.725764 Z" id="Path-Copy-11" fill="#DC657C" fill-rule="nonzero"></path>
        <path d="M144.741935,612.511567 C142.980522,624.059757 141.078013,636.004058 134.674113,645.798037 C128.265661,655.596369 116.022242,662.661093 104.716423,659.405139 C95.9730742,656.889175 89.8695704,648.984345 86.0782068,640.774814 C82.2913946,632.565283 80.1749671,623.637527 75.9193548,615.654346 C82.9285986,609.70396 87.6530109,601.189727 89.0548596,592.157502 C89.2050577,591.195516 89.3142927,590.233529 89.387116,589.262837 C90.1517607,579.172862 86.7017564,568.826068 80.0202176,561.178058 C79.7289243,560.838533 80.2705477,557.016705 82.0820276,554.239568 C83.8935074,551.458078 86.7836826,549.547164 89.755784,548.036715 C92.4320407,546.682969 95.2402896,545.594749 98.1395677,544.789466 C104.101976,543.126666 110.405744,542.652202 116.54566,543.461838 C119.740782,543.879715 123.008729,544.706762 125.721397,546.347797 C126.845607,547.031199 127.874236,547.845188 128.76177,548.824586 C134.441988,555.105791 132.152606,564.817065 130.536838,573.100595 C129.367114,579.085805 128.748116,585.288658 129.599238,591.291279 C129.808605,592.771258 130.109001,594.238179 130.50953,595.687687 C132.548582,603.009231 137.582494,609.812782 144.741935,612.511567 Z" id="Path-Copy-12" fill="#FC9895" fill-rule="nonzero"></path>
        <path d="M129.786559,573.455477 C128.658009,579.420965 128.060799,585.603381 128.881962,591.586223 C126.238432,594.38458 123.467557,597.074473 120.69229,599.703626 C118.088281,602.176592 115.286667,604.718975 111.813192,605.482558 C106.930127,606.554176 102.029498,603.833914 98.1081156,600.675459 C95.0605914,598.219847 92.2897157,595.447521 89.7559672,592.449592 C89.9008783,591.490776 90.0062682,590.531959 90.0765281,589.564465 C90.8142573,579.507736 87.4856934,569.195033 81.0393455,561.572223 C80.7583058,561.233818 81.280864,557.424582 83.0285796,554.656595 C84.7762951,551.88427 87.5647359,549.979652 90.432219,548.47418 C93.0142712,547.124895 95.7236695,546.04026 98.5208927,545.237631 C107.360469,544.851501 116.331783,545.589053 125.13623,546.790827 C126.220868,547.471978 127.213289,548.283284 128.069582,549.259455 C133.554247,555.519964 131.345451,565.19924 129.786559,573.455477 Z" id="Path" fill="#DC657C" fill-rule="nonzero"></path>
        <path d="M256.072581,337.250272 C255.824993,340.972619 255.556062,344.694966 255.244443,348.421606 C254.702312,354.926053 254.057731,361.439086 253.285088,367.930653 C253.259475,368.158201 253.233863,368.377163 253.203982,368.604711 C252.926513,370.905954 252.636238,373.194318 252.320351,375.482681 C250.531745,388.774936 248.171127,401.972738 245.067747,414.930111 C242.877879,424.05351 240.325167,433.060989 237.328505,441.896732 C232.573119,455.94462 226.716396,469.558878 219.510749,482.516251 C195.200225,526.24846 153.690913,567.310195 105.048522,567.310195 C62.5061735,567.310195 19.5881747,549.608654 -1,515.102886 L-1,264.992952 C-0.355418955,264.370414 0.263549598,263.76505 0.848368161,263.185445 C31.8096021,232.32045 55.6121445,193.778919 68.3244779,155.327549 C76.1960504,201.33524 98.7819995,244.496431 131.685514,276.391834 C162.67236,306.42821 202.636385,326.31078 247.663146,335.644554 C250.442101,336.219865 253.246669,336.756535 256.072581,337.250272 Z" id="Path-Copy-13" fill="#FC9895" fill-rule="nonzero"></path>
        <path d="M95,395 C107.979305,394.13605 120.299716,386.742151 126.829985,375.896646 C127.439236,374.885909 127.976279,373.527075 127.191022,372.633768 C126.545667,371.904024 125.381321,371.941769 124.397493,372.080169 C110.98043,373.984213 99.0300831,383.48766 95,395 Z" id="Path" fill="#FFFFFF" fill-rule="nonzero"></path>
        <path d="M250.024194,335.607018 C243.139553,337.757998 235.093075,337.911032 227.888822,338.059815 C210.841346,338.408393 193.724765,335.07565 177.998933,328.333647 C147.251282,315.147207 122.861341,289.467232 105.4597,260.424757 C88.058058,231.382282 77.3855695,208.439917 67.1752243,176.026441 C61.2882951,225.341685 39.0708604,259.034697 -0.975806452,281.943054 L-0.975806452,264.909507 C-0.32794191,264.293119 0.298327148,263.693736 0.885724333,263.119858 C32.056647,232.559794 56.0146778,194.399037 68.8164811,156.327549 C76.742024,201.880705 99.4777504,244.615482 132.600905,276.195773 C163.793423,305.931152 204.695271,326.365458 250.024194,335.607018 Z" id="Path-Copy-14" fill="#DC657C" fill-rule="nonzero"></path>
        <path d="M167.048424,494.264892 C163.62449,500.304851 159.43968,505.827837 154.922535,511.075105 C152.263848,514.168322 149.491466,517.162453 146.692848,520.117811 C139.285254,527.941324 131.077431,535.868231 120.683187,538.254919 C113.284339,539.952311 105.540037,538.63834 98.2067819,536.678154 C82.2327922,532.413133 67.1421165,525.08936 53.5863081,515.452137 C42.6716959,507.697553 32.7540915,498.443751 24.1614581,488.087074 C20.1078341,483.197379 16.1985139,477.751938 15.3326913,471.397488 C14.7642219,467.235862 15.9973632,462.949301 17.9432776,460.252429 C18.9665225,458.830755 20.1909181,457.852816 21.4590421,457.57279 C49.6901063,451.265729 78.3672004,447.069638 107.192971,445.023289 C125.65948,443.70501 144.427716,443.300049 162.470059,447.552145 C165.045663,448.159587 167.673741,448.896273 169.763959,450.550584 C169.860161,450.623822 169.951991,450.705675 170.043821,450.783221 C173.310333,453.561947 174.565339,458.175924 174.945776,462.535723 C175.899055,473.577388 172.479493,484.666442 167.048424,494.264892 Z" id="Path-Copy-15" fill="#000000" fill-rule="nonzero"></path>
        <path d="M153.862903,512.813431 C151.313751,516.048378 148.655588,519.179699 145.972269,522.27047 C138.86986,530.452453 131.00019,538.742567 121.034177,541.238613 C113.940153,543.013779 106.514908,541.639602 99.4837742,539.589601 C84.1678946,535.129159 69.6989375,527.469813 56.7016129,517.391016 C57.9091063,514.737278 59.5484463,512.313321 61.4477327,510.236287 C65.3008106,506.028152 70.1685183,503.135623 75.2039334,500.97749 C96.4021505,491.889902 120.451394,495.36364 141.884401,503.757382 C146.542475,505.582108 151.514999,508.006065 153.862903,512.813431 Z" id="Path-Copy-16" fill="#C54C67" fill-rule="nonzero"></path>
        <path d="M169.032258,448.951766 C166.306214,453.233609 162.10733,456.571318 157.585456,458.610291 C150.768192,461.68648 143.227428,462.298172 135.846006,462.869971 C103.934492,465.352199 72.0229772,467.834426 40.1114629,470.316654 C31.8730382,470.954941 23.5958546,466.123462 19.2419355,458.698942 C20.2496675,457.236201 21.4555007,456.230012 22.7043994,455.941896 C50.5074677,449.452644 78.7498038,445.135341 107.138563,443.02988 C125.325111,441.67352 143.808811,441.25686 161.577625,445.631786 C164.114181,446.256776 166.702416,447.014742 168.760946,448.716841 C168.847077,448.792194 168.941821,448.87198 169.032258,448.951766 Z" id="Path-Copy-17" fill="#FFFFFF" fill-rule="nonzero"></path>
        <path d="M187.355123,328.265875 C184.002334,326.352312 179.183355,328.226375 177.144355,331.223998 C175.105354,334.221621 175.079078,337.895135 175.110609,341.375538 C175.168416,347.66484 175.226223,353.949754 175.28403,360.239056 C175.31556,363.912571 175.373367,367.695808 177.007721,371.084043 C178.642074,374.476668 182.252367,377.421624 186.493278,377.474291 C190.255969,377.522569 193.671821,375.275449 195.579442,372.466549 C197.487064,369.657649 198.149214,366.357191 198.611668,363.122568 C199.925457,353.958532 199.872905,344.434605 196.210061,335.766516 C195.248368,333.488674 194.008151,331.241554 192.026957,329.525491 C190.045763,327.809429 187.218489,326.694647 184.449022,327.054537 C181.690065,327.414428 179.193866,329.521103 187.355123,328.265875 Z" id="Path-Copy-18" fill="#000000" fill-rule="nonzero"></path>
        <path d="M165.554296,296.344043 C162.72533,292.193028 162.156238,286.445469 164.110946,281.740986 C166.069778,277.04076 170.478182,273.558165 175.311343,272.89826 C188.573669,271.088843 202.421583,274.937579 213.057012,283.388619 C216.215887,285.896258 219.28816,289.191525 219.618069,293.351055 C219.947978,297.510585 215.927217,302.002196 212.269355,300.401394 C197.551307,293.955613 180.626996,293.193529 165.554296,296.344043 Z" id="Path-Copy-19" fill="#000000" fill-rule="nonzero"></path>
        <path d="M218.216934,385.976766 C203.106964,380.910282 186.254359,383.834267 173.597779,393.721374 C167.834668,398.2215 162.598201,405.026569 162.979268,413.04338 C163.330364,420.45871 168.579676,426.855475 174.63394,429.985807 C180.688204,433.116139 187.461787,433.590298 194.046977,433.858111 C202.952825,434.222511 212.077037,434.257634 220.366326,430.890222 C228.655616,427.522811 236.062884,420.085529 237.625689,410.273058 C239.188494,400.460587 232.761726,390.850074 218.216934,385.976766 Z" id="Path-Copy-20" fill="#C54C67" fill-rule="nonzero"></path>
        <path d="M11.0320785,392.640412 C-4.30079087,387.499188 -21.4020019,390.466307 -34.2452895,400.499266 C-40.0934171,405.065778 -45.4071318,411.971234 -45.0204428,420.106307 C-44.6641676,427.631027 -39.3374184,434.122155 -33.1938431,437.298665 C-27.0502678,440.475175 -20.1767627,440.956329 -13.4944297,441.228093 C-4.45720439,441.597869 4.80160679,441.63351 13.2131781,438.216423 C21.6247494,434.799336 29.1412878,427.25234 30.727147,417.295118 C32.3130063,407.337896 25.7914316,397.585609 11.0320785,392.640412 Z" id="Path-Copy-26" fill="#C54C67" fill-rule="nonzero" transform="translate(-7.040323, 415.777657) scale(-1, 1) rotate(11.000000) translate(7.040323, -415.777657) "></path>
        <path d="M226.738683,397.811468 C226.823225,398.011953 226.929508,398.192672 227.0841,398.325387 C227.22903,398.449631 227.386038,398.551285 227.526138,398.686824 C227.559955,398.664234 227.596187,398.638821 227.630004,398.616231 C227.349806,398.80542 227.086516,399.025671 226.808732,399.226156 C226.786993,399.240274 226.765253,399.257217 226.743514,399.271335 C226.813563,399.220508 226.731436,399.279807 226.716943,399.285454 C226.67588,399.310868 226.6324,399.336281 226.588921,399.361695 C226.50921,399.406874 226.429498,399.446407 226.347371,399.477468 C226.209677,399.531118 226.064757,399.567827 225.919826,399.536766 C225.898087,399.531118 225.832868,399.59324 225.813544,399.607359 C225.79422,399.621478 225.731417,399.6836 225.709677,399.677952 C226.05751,399.748545 226.419836,399.488762 226.707281,399.296749 C226.886029,399.175329 227.06236,399.051085 227.236277,398.91837 C227.315989,398.856248 227.3957,398.796949 227.475412,398.734827 C227.509229,398.709414 227.543046,398.681176 227.579279,398.655763 C227.605849,398.635997 227.741117,398.542814 227.630004,398.616231 C227.637251,398.610583 227.72904,398.53999 227.733871,398.545638 C227.593772,398.412922 227.436764,398.311268 227.291833,398.1842 C227.137241,398.048661 227.030959,397.870767 226.946416,397.670282 C226.951247,397.673106 226.736267,397.802997 226.738683,397.811468 L226.738683,397.811468 Z" id="Path-Copy-21" fill="#6B6B6B" fill-rule="nonzero"></path>
        <path d="M136.704724,407.279459 C138.341866,406.681394 140.201132,406.572288 141.797139,407.267336 C143.397259,407.962384 144.664193,409.546448 144.738234,411.316397 C144.820503,413.239903 143.520662,415.009852 141.895861,415.995851 C140.27106,416.981849 138.362433,417.329374 136.49494,417.632447 C125.915223,419.341781 114.541615,419.968133 104.258065,415.33313 C109.876997,414.949237 115.524723,414.561303 120.999685,413.231821 C126.474648,411.902339 131.645217,409.130227 136.704724,407.279459 Z" id="Path-Copy-22" fill="#C54C67" fill-rule="nonzero"></path>
        <path d="M90.0887097,402.883319 C90.0719858,397.383541 91.6732646,391.735446 94.5555663,386.74075 C95.2255751,385.453995 96.1020645,384.303531 96.9069177,383.076905 C97.3451625,382.49566 97.8086905,381.934458 98.2680047,381.361231 C98.4997687,381.076621 98.7273188,380.788003 98.9632968,380.507402 L99.7133694,379.701677 C100.219036,379.172544 100.707848,378.611342 101.243012,378.102252 L102.890644,376.615067 C103.430022,376.101968 104.032608,375.665032 104.618339,375.200037 C105.212498,374.751075 105.785587,374.262028 106.421885,373.869187 C108.891225,372.165538 111.583902,370.754517 114.419851,369.608062 C115.131998,369.335478 115.865215,369.10298 116.590005,368.850439 L117.681403,368.48165 L118.806512,368.209066 C119.569226,368.032688 120.281374,367.836268 121.090441,367.679933 L122.434672,367.499547 C122.885558,367.435409 123.336445,367.387306 123.787331,367.391315 C127.415492,367.251014 130.967802,368.185014 134.048157,369.728319 C137.111656,371.331753 139.741124,373.564534 141.860712,376.198174 C143.955016,378.851857 145.509942,381.966527 146.260014,385.369815 L146.508634,386.652562 C146.58027,387.077472 146.601339,387.494364 146.647692,387.911257 C146.681403,388.332158 146.740398,388.749051 146.748826,389.169952 L146.761467,390.424639 C146.790965,391.262433 146.672976,392.088202 146.618195,392.91397 C146.529703,393.73573 146.369575,394.545464 146.217875,395.351189 C145.488872,398.546031 144.216277,401.544452 142.488581,404.202143 C142.079834,404.883602 141.582595,405.496916 141.131708,406.142298 C140.647111,406.763628 140.145658,407.368925 139.627349,407.958186 C138.552807,409.100633 137.431912,410.194976 136.205669,411.161045 L135.287041,411.886599 C134.975213,412.119097 134.646529,412.331552 134.32206,412.552024 C133.685762,413.000985 133.007326,413.393827 132.333103,413.778651 C130.984658,414.548299 129.598287,415.177647 128.18242,415.722814 C125.342257,416.789097 122.400961,417.422454 119.484948,417.707063 C116.564721,417.983655 113.66135,417.891458 110.838043,417.482582 C108.018949,417.089741 105.275706,416.368196 102.684163,415.36605 C108.250713,415.249801 113.619211,414.604419 118.507325,412.964908 C120.947168,412.163191 123.247953,411.128977 125.354899,409.886315 C126.383088,409.228908 127.411278,408.575508 128.329906,407.829912 C128.785006,407.461122 129.244321,407.096341 129.661496,406.683457 L130.302007,406.086178 L130.908808,405.45683 C134.119793,402.085611 136.273092,397.836511 136.922031,393.631507 C136.972597,393.106382 137.04002,392.581258 137.077945,392.060142 C137.073731,391.543034 137.149581,391.01791 137.090586,390.50882 L137.052661,389.739171 C137.044234,389.482622 136.981025,389.23409 136.951528,388.981549 C136.909389,388.733017 136.892534,388.472459 136.837753,388.235952 L136.66077,387.538459 C136.584919,387.065446 136.374225,386.612476 136.23938,386.14748 C136.083466,385.682484 135.839061,385.24154 135.653649,384.784561 C135.392388,384.351634 135.173266,383.902673 134.895149,383.481772 C134.587535,383.076905 134.347343,382.627943 133.99759,382.251136 C132.750278,380.639685 131.149,379.276767 129.408662,378.294664 C127.664111,377.312561 125.776288,376.799462 123.930604,376.715282 C123.694626,376.683213 123.467075,376.695239 123.239525,376.715282 L122.544233,376.74735 C122.004855,376.811488 121.385413,376.935754 120.80811,377.023942 L119.923193,377.168252 L119.050917,377.376698 C118.4694,377.516998 117.879455,377.641264 117.297938,377.793591 C116.155974,378.178415 114.980298,378.491084 113.863617,378.980132 C113.303169,379.212629 112.709011,379.393016 112.165419,379.669608 L110.500932,380.463308 C108.32235,381.605754 106.156409,382.868458 104.17588,384.423789 L103.413166,384.984991 L102.692591,385.598304 L101.243012,386.828939 C100.345453,387.718845 99.3678303,388.564656 98.5419076,389.538742 C96.7510038,391.398725 95.229789,393.503232 93.7844242,395.711962 L92.7562347,397.41561 C92.4149095,397.988838 92.1452204,398.594134 91.8249647,399.187404 C91.112817,400.353902 90.6998557,401.628632 90.0887097,402.883319 Z" id="Path-Copy-23" fill="#262626" fill-rule="nonzero"></path>
        <path d="M545.633468,110.839479 C545.566182,108.146782 545.498335,105.454085 545.431048,102.761388" id="Path-Copy-24" fill="#3B3B3B" fill-rule="nonzero"></path>
        <path d="M278.362903,250.245119 C261.745981,247.89875 246.152891,238.803321 232.226205,228.603974 C199.116592,204.361042 171.023326,172.633106 150.418172,136.221088 C142.03046,121.389609 134.713702,105.112212 134.645161,87.8694273 C135.390545,86.7352045 136.174484,85.6615889 136.996976,84.6442516 C153.498235,86.665939 169.776736,91.6790309 185.155635,98.3674825 C199.155146,104.45419 212.726275,112.025777 224.125509,122.493528 C238.639078,135.822812 249.095873,153.377292 257.333651,171.667718 C268.458721,196.369533 275.856871,223.093036 278.362903,250.245119 Z" id="Path-Copy-25" fill="#1E1F36" fill-rule="nonzero"></path>
        <path d="M15.2651249,323.80128 C11.3873537,323.068979 7.17033116,325.278881 5.41395416,328.970718 C4.67103676,330.530648 4.34896273,332.268238 4.08271488,333.984162 C2.13738779,346.593603 2.94472,359.662357 6.43170807,371.90348 C7.29916077,374.949679 8.46292156,378.138871 10.9235671,380.002121 C12.4437565,381.150404 14.3762006,381.68338 16.2399356,381.466723 C20.8735072,380.920747 23.9868894,376.162958 25.4512526,371.526497 C28.1738517,362.890547 27.3836967,353.526629 26.5634815,344.470364 C25.9493937,337.688998 25.0475865,330.266327 20.280891,325.634199 C18.1036706,323.519626 14.8614588,322.185018 12.1388597,323.424297 M31.795681,292.680907 C21.0196926,292.344804 9.67874051,293.593188 -1,296.694143 L-1,275.799708 C4.87191803,273.799091 11.1004115,272.646736 17.3798444,272.466681 C22.7423689,272.310633 28.1095242,274.847414 31.0038056,278.900663 C33.8980869,282.957912 34.2083539,288.383583 31.795681,292.680907 Z" id="Path-Copy-27" fill="#000000" fill-rule="nonzero"></path>
        <path d="M339.064516,714.551427 L339.064516,597.669832 C339.064516,584.215192 351.267671,573.310195 366.323983,573.310195 L724.740534,573.310195 C739.796846,573.310195 752,584.215192 752,597.669832 L752,714.551427 C752,728.006066 739.796846,738.911063 724.740534,738.911063 L366.323983,738.911063 C351.267671,738.911063 339.064516,728.006066 339.064516,714.551427 Z" id="Path" fill="#E5F6FF" fill-rule="nonzero"></path>
        <g id="3-:-3-=-1" transform="translate(450.395161, 633.895879)" fill="#000000" fill-rule="nonzero">
            <path d="M15.1805756,40.3904555 C25.0112882,40.3904555 31.3387911,35.7515517 31.3387911,28.5532527 C31.3387911,23.3544812 27.5911714,20.0752561 21.6710185,19.488728 L21.6710185,19.3021055 C26.1518681,18.4223134 29.7908612,15.2763901 29.7908612,10.3442223 C29.7908612,3.81243244 23.653455,0 15.1262623,0 C7.41376947,0 2.79713647,3.62580987 1.24920658,7.35826121 C0.896169937,8.18473257 0.760386613,8.85124174 0.760386613,9.67771311 C0.760386613,11.9171839 2.14537651,13.5168059 4.86104299,13.5168059 C7.06073283,13.5168059 8.25562608,12.7436553 9.36904934,10.690807 C10.5639426,8.39801551 12.3834391,7.27828011 15.1805756,7.27828011 C18.5751587,7.27828011 20.5304385,9.01120394 20.5304385,11.7305613 C20.5304385,14.5298998 18.1949654,16.3694651 14.3658756,16.3694651 L13.4697057,16.3694651 C11.1070759,16.3694651 9.8578693,17.7291438 9.8578693,19.6753506 C9.8578693,21.6748781 11.1070759,23.0078965 13.4697057,23.0078965 L14.420189,23.0078965 C18.7652553,23.0078965 21.2093552,24.7408203 21.2093552,27.9667247 C21.2093552,30.7394028 18.8195687,32.7122699 15.3978289,32.7122699 C11.6773658,32.7122699 9.91218263,31.2992705 8.4728794,28.8998375 C7.49523947,27.3535362 6.27318956,26.6870271 4.37222302,26.6870271 C1.65655655,26.6870271 0,28.2333283 0,30.6860821 C0,31.3792516 0.162939988,32.1790626 0.488819965,32.9255529 C2.06390652,36.6580042 6.84347952,40.3904555 15.1805756,40.3904555 Z" id="Path"></path>
            <path d="M52.330893,21.0083689 C55.1280294,21.0083689 57.3820326,18.7955585 57.3820326,16.0495407 C57.3820326,13.303523 55.1280294,11.1173729 52.330893,11.1173729 C49.5337565,11.1173729 47.30691,13.303523 47.30691,16.0495407 C47.30691,18.7955585 49.5337565,21.0083689 52.330893,21.0083689 Z M52.330893,39.7772671 C55.1280294,39.7772671 57.3820326,37.5644567 57.3820326,34.8184389 C57.3820326,32.0724211 55.1280294,29.8596107 52.330893,29.8596107 C49.5337565,29.8596107 47.30691,32.0724211 47.30691,34.8184389 C47.30691,37.5644567 49.5337565,39.7772671 52.330893,39.7772671 Z" id="Shape"></path>
            <path d="M89.019547,40.3904555 C98.8502597,40.3904555 105.177763,35.7515517 105.177763,28.5532527 C105.177763,23.3544812 101.430143,20.0752561 95.5099899,19.488728 L95.5099899,19.3021055 C99.9908396,18.4223134 103.629833,15.2763901 103.629833,10.3442223 C103.629833,3.81243244 97.4924264,0 88.9652337,0 C81.2527409,0 76.6361079,3.62580987 75.088178,7.35826121 C74.7351414,8.18473257 74.599358,8.85124174 74.599358,9.67771311 C74.599358,11.9171839 75.984348,13.5168059 78.7000144,13.5168059 C80.8997043,13.5168059 82.0945975,12.7436553 83.2080208,10.690807 C84.402914,8.39801551 86.2224106,7.27828011 89.019547,7.27828011 C92.4141301,7.27828011 94.36941,9.01120394 94.36941,11.7305613 C94.36941,14.5298998 92.0339368,16.3694651 88.2048471,16.3694651 L87.3086771,16.3694651 C84.9460473,16.3694651 83.6968407,17.7291438 83.6968407,19.6753506 C83.6968407,21.6748781 84.9460473,23.0078965 87.3086771,23.0078965 L88.2591604,23.0078965 C92.6042268,23.0078965 95.0483266,24.7408203 95.0483266,27.9667247 C95.0483266,30.7394028 92.6585401,32.7122699 89.2368003,32.7122699 C85.5163373,32.7122699 83.7511541,31.2992705 82.3118508,28.8998375 C81.3342109,27.3535362 80.112161,26.6870271 78.2111945,26.6870271 C75.495528,26.6870271 73.8389714,28.2333283 73.8389714,30.6860821 C73.8389714,31.3792516 74.0019114,32.1790626 74.3277914,32.9255529 C75.902878,36.6580042 80.682451,40.3904555 89.019547,40.3904555 Z" id="Path"></path>
            <path d="M125.762514,20.8217464 L147.650786,20.8217464 C150.393609,20.8217464 151.751443,19.2221244 151.751443,16.9826536 C151.751443,14.7698431 150.393609,13.1702211 147.677943,13.1702211 L125.762514,13.1702211 C123.046848,13.1702211 121.689015,14.7698431 121.689015,16.9826536 C121.689015,19.2221244 123.046848,20.8217464 125.762514,20.8217464 Z M125.762514,34.5784956 L147.650786,34.5784956 C150.393609,34.5784956 151.751443,33.005534 151.751443,30.7660632 C151.751443,28.5532527 150.393609,26.9269704 147.677943,26.9269704 L125.762514,26.9269704 C123.046848,26.9269704 121.689015,28.5532527 121.689015,30.7660632 C121.689015,33.005534 123.046848,34.5784956 125.762514,34.5784956 Z" id="Shape"></path>
            <path d="M183.307487,40.0438708 C186.267563,40.0438708 188.25,38.1509847 188.25,35.2183444 L188.25,5.81195994 C188.25,2.45275374 186.158937,0.346584767 182.574257,0.346584767 C180.618977,0.346584767 178.935264,0.5598677 176.844201,1.94620677 L169.430431,6.90503497 C168.018285,7.86480817 167.447995,8.95788321 167.447995,10.3708826 C167.447995,12.3437498 168.887298,13.7567492 170.815421,13.7567492 C171.765905,13.7567492 172.363351,13.5434663 173.259521,12.9302778 L178.147721,9.59773201 L178.337817,9.59773201 L178.337817,35.2183444 C178.337817,38.1509847 180.347411,40.0438708 183.307487,40.0438708 Z" id="Path"></path>
        </g>
        <path d="M339.064516,532.794377 L339.064516,415.912782 C339.064516,402.458143 351.267671,391.553145 366.323983,391.553145 L724.740534,391.553145 C739.796846,391.553145 752,402.458143 752,415.912782 L752,532.794377 C752,546.249016 739.796846,557.154013 724.740534,557.154013 L366.323983,557.154013 C351.267671,557.154013 339.064516,546.249016 339.064516,532.794377 Z" id="Path" fill="#E5F6FF" fill-rule="nonzero"></path>
        <g id="3-x-3-=-9" transform="translate(436.225806, 450.119306)" fill="#000000" fill-rule="nonzero">
            <path d="M15.2159217,40.3904555 C25.0695239,40.3904555 31.4117596,35.7515517 31.4117596,28.5532527 C31.4117596,23.3544812 27.655414,20.0752561 21.7214767,19.488728 L21.7214767,19.3021055 C26.2127595,18.4223134 29.8602255,15.2763901 29.8602255,10.3442223 C29.8602255,3.81243244 23.7085291,0 15.1614819,0 C7.43103151,0 2.80364925,3.62580987 1.2521152,7.35826121 C0.898256556,8.18473257 0.762157078,8.85124174 0.762157078,9.67771311 C0.762157078,11.9171839 2.15037176,13.5168059 4.87236132,13.5168059 C7.07717287,13.5168059 8.27484828,12.7436553 9.390864,10.690807 C10.5885394,8.39801551 12.4122724,7.27828011 15.2159217,7.27828011 C18.6184086,7.27828011 20.5782411,9.01120394 20.5782411,11.7305613 C20.5782411,14.5298998 18.2373301,16.3694651 14.3993248,16.3694651 L13.5010682,16.3694651 C11.1329373,16.3694651 9.88082212,17.7291438 9.88082212,19.6753506 C9.88082212,21.6748781 11.1329373,23.0078965 13.5010682,23.0078965 L14.4537646,23.0078965 C18.8089479,23.0078965 21.2587385,24.7408203 21.2587385,27.9667247 C21.2587385,30.7394028 18.8633877,32.7122699 15.4336808,32.7122699 C11.7045551,32.7122699 9.93526191,31.2992705 8.49260744,28.8998375 C7.5126912,27.3535362 6.28779589,26.6870271 4.3824032,26.6870271 C1.66041363,26.6870271 0,28.2333283 0,30.6860821 C0,31.3792516 0.163319374,32.1790626 0.489958122,32.9255529 C2.06871207,36.6580042 6.8594137,40.3904555 15.2159217,40.3904555 Z" id="Path"></path>
            <path d="M50.4929064,40.0438708 C52.2349798,40.0438708 53.1332363,39.5106634 54.6031107,37.297853 L59.5571317,29.8596107 L59.7476709,29.8596107 L64.8922312,37.5111359 C66.0354668,39.2173994 66.8792836,40.0438708 68.8391161,40.0438708 C71.4522261,40.0438708 73.4392785,38.4709091 73.4392785,35.8581932 C73.4392785,34.7917785 73.0854198,33.8853261 72.3504826,32.9255529 L66.1987862,24.794141 L72.1327235,17.1959365 C73.1670795,15.9162389 73.5209381,14.9831261 73.5209381,13.7834096 C73.5209381,11.3573162 71.7516449,9.78435457 69.0568753,9.78435457 C67.2331423,9.78435457 66.1987862,10.5575052 64.8650113,12.6636742 L60.3192888,19.6753506 L60.1287495,19.6753506 L55.5013672,12.6370138 C54.1403724,10.5041845 53.1060164,9.78435457 51.0645242,9.78435457 C48.4514143,9.78435457 46.4915818,11.5439388 46.4915818,13.9433718 C46.4915818,15.0631072 46.8182205,15.99622 47.5259378,16.9026725 L53.6776342,25.007424 L47.5531577,32.8988925 C46.5460216,34.1785901 46.164943,35.0583822 46.164943,36.2314383 C46.164943,38.4975695 47.9614561,40.0438708 50.4929064,40.0438708 Z" id="Path"></path>
            <path d="M104.170541,40.3904555 C114.024143,40.3904555 120.366379,35.7515517 120.366379,28.5532527 C120.366379,23.3544812 116.610033,20.0752561 110.676096,19.488728 L110.676096,19.3021055 C115.167378,18.4223134 118.814845,15.2763901 118.814845,10.3442223 C118.814845,3.81243244 112.663148,0 104.116101,0 C96.3856505,0 91.7582682,3.62580987 90.2067342,7.35826121 C89.8528755,8.18473257 89.7167761,8.85124174 89.7167761,9.67771311 C89.7167761,11.9171839 91.1049907,13.5168059 93.8269803,13.5168059 C96.0317918,13.5168059 97.2294673,12.7436553 98.345483,10.690807 C99.5431584,8.39801551 101.366891,7.27828011 104.170541,7.27828011 C107.573028,7.27828011 109.53286,9.01120394 109.53286,11.7305613 C109.53286,14.5298998 107.191949,16.3694651 103.353944,16.3694651 L102.455687,16.3694651 C100.087556,16.3694651 98.8354411,17.7291438 98.8354411,19.6753506 C98.8354411,21.6748781 100.087556,23.0078965 102.455687,23.0078965 L103.408384,23.0078965 C107.763567,23.0078965 110.213357,24.7408203 110.213357,27.9667247 C110.213357,30.7394028 107.818007,32.7122699 104.3883,32.7122699 C100.659174,32.7122699 98.8898809,31.2992705 97.4472264,28.8998375 C96.4673102,27.3535362 95.2424149,26.6870271 93.3370222,26.6870271 C90.6150326,26.6870271 88.954619,28.2333283 88.954619,30.6860821 C88.954619,31.3792516 89.1179384,32.1790626 89.4445771,32.9255529 C91.023331,36.6580042 95.8140327,40.3904555 104.170541,40.3904555 Z" id="Path"></path>
            <path d="M140.999059,20.8217464 L162.938295,20.8217464 C165.687505,20.8217464 167.0485,19.2221244 167.0485,16.9826536 C167.0485,14.7698431 165.687505,13.1702211 162.965515,13.1702211 L140.999059,13.1702211 C138.27707,13.1702211 136.916075,14.7698431 136.916075,16.9826536 C136.916075,19.2221244 138.27707,20.8217464 140.999059,20.8217464 Z M140.999059,34.5784956 L162.938295,34.5784956 C165.687505,34.5784956 167.0485,33.005534 167.0485,30.7660632 C167.0485,28.5532527 165.687505,26.9269704 162.965515,26.9269704 L140.999059,26.9269704 C138.27707,26.9269704 136.916075,28.5532527 136.916075,30.7660632 C136.916075,33.005534 138.27707,34.5784956 140.999059,34.5784956 Z" id="Shape"></path>
            <path d="M199.140757,40.3904555 C210.028715,40.3904555 216.58871,32.7389303 216.58871,20.0219354 C216.58871,15.3830316 215.663233,11.3839766 214.057259,8.39801551 C210.954191,2.66603667 205.836851,0 199.412956,0 C190.29429,0 183.625416,5.73197884 183.625416,13.890051 C183.625416,21.4882556 189.504914,26.3671027 196.663746,26.3671027 C201.917186,26.3671027 205.564652,23.8077075 206.871207,20.1552372 L207.034526,20.1552372 C207.034526,20.3151994 207.034526,20.4485012 207.034526,20.5551427 C207.143406,27.5934795 204.993034,32.8988925 199.576275,32.8988925 C197.072044,32.8988925 195.52051,32.0457608 193.723997,30.2595162 C192.335783,28.9531582 191.246987,28.1000265 189.259934,28.1000265 C186.646824,28.1000265 185.23139,29.7796296 185.23139,31.8591382 C185.23139,32.5523077 185.394709,33.2188169 185.721348,33.9386468 C187.408982,37.6710981 192.499102,40.3904555 199.140757,40.3904555 Z M199.467395,19.4620677 C195.901589,19.4620677 193.234039,17.0093139 193.234039,13.4901455 C193.234039,10.104279 196.010469,7.49156304 199.549055,7.49156304 C203.060422,7.49156304 205.809631,10.1575997 205.809631,13.6234474 C205.809631,17.0359743 203.087641,19.4620677 199.467395,19.4620677 Z" id="Shape"></path>
        </g>
        <path d="M339.064516,349.017804 L339.064516,232.136209 C339.064516,218.68157 351.267671,207.776573 366.323983,207.776573 L724.740534,207.776573 C739.796846,207.776573 752,218.68157 752,232.136209 L752,349.017804 C752,362.472443 739.796846,373.37744 724.740534,373.37744 L366.323983,373.37744 C351.267671,373.37744 339.064516,362.472443 339.064516,349.017804 Z" id="Path" fill="#E5F6FF" fill-rule="nonzero"></path>
        <g id="3---3-=-0" transform="translate(438.250000, 270.381779)" fill="#000000" fill-rule="nonzero">
            <path d="M15.1725781,40.3904555 C24.9981118,40.3904555 31.3222812,35.7546117 31.3222812,28.5610609 C31.3222812,23.3657187 27.5766358,20.0886566 21.6596017,19.5025155 L21.6596017,19.316016 C26.1380908,18.4368042 29.7751668,15.2929561 29.7751668,10.3640417 C29.7751668,3.83656042 23.6409939,0.0266427807 15.1182934,0.0266427807 C7.40986375,0.0266427807 2.79566288,3.65006096 1.24854847,7.38005025 C0.895697816,8.20597645 0.759986025,8.87204597 0.759986025,9.69797217 C0.759986025,11.9359658 2.14424629,13.5345326 4.85848209,13.5345326 C7.05701309,13.5345326 8.25127685,12.761892 9.36411353,10.7103978 C10.5583773,8.4191187 12.3769153,7.30012191 15.1725781,7.30012191 C18.5653729,7.30012191 20.5196227,9.03190266 20.5196227,11.7494663 C20.5196227,14.5469583 18.1853799,16.3853101 14.3583074,16.3853101 L13.4626096,16.3853101 C11.1012244,16.3853101 9.85267597,17.7440919 9.85267597,19.6890149 C9.85267597,21.6872235 11.1012244,23.0193625 13.4626096,23.0193625 L14.4125921,23.0193625 C18.7553694,23.0193625 21.1981816,24.7511433 21.1981816,27.9749197 C21.1981816,30.7457689 18.8096541,32.7173347 15.389717,32.7173347 C11.671214,32.7173347 9.90696069,31.3052673 8.46841571,28.9074171 C7.49129082,27.3621358 6.26988471,26.6960663 4.36991965,26.6960663 C1.65568384,26.6960663 0,28.2413475 0,30.6924834 C0,31.3851957 0.162854148,32.1844791 0.488562445,32.9304769 C2.06281921,36.6604662 6.83987423,40.3904555 15.1725781,40.3904555 Z" id="Path"></path>
            <path d="M51.7333344,27.8417058 L61.6674375,27.8417058 C64.2459615,27.8417058 66.1459266,26.3763529 66.1459266,23.7920032 C66.1459266,21.1810107 64.2459615,19.7423005 61.6674375,19.7423005 L51.7333344,19.7423005 C49.1548104,19.7423005 47.2548454,21.1810107 47.2548454,23.7920032 C47.2548454,26.3763529 49.1548104,27.8417058 51.7333344,27.8417058 Z" id="Path"></path>
            <path d="M97.7396313,40.3904555 C107.565165,40.3904555 113.889334,35.7546117 113.889334,28.5610609 C113.889334,23.3657187 110.143689,20.0886566 104.226655,19.5025155 L104.226655,19.316016 C108.705144,18.4368042 112.34222,15.2929561 112.34222,10.3640417 C112.34222,3.83656042 106.208047,0.0266427807 97.6853466,0.0266427807 C89.9769169,0.0266427807 85.3627161,3.65006096 83.8156017,7.38005025 C83.462751,8.20597645 83.3270392,8.87204597 83.3270392,9.69797217 C83.3270392,11.9359658 84.7112995,13.5345326 87.4255353,13.5345326 C89.6240663,13.5345326 90.81833,12.761892 91.9311667,10.7103978 C93.1254305,8.4191187 94.9439685,7.30012191 97.7396313,7.30012191 C101.132426,7.30012191 103.086676,9.03190266 103.086676,11.7494663 C103.086676,14.5469583 100.752433,16.3853101 96.9253606,16.3853101 L96.0296628,16.3853101 C93.6682776,16.3853101 92.4197292,17.7440919 92.4197292,19.6890149 C92.4197292,21.6872235 93.6682776,23.0193625 96.0296628,23.0193625 L96.9796453,23.0193625 C101.322423,23.0193625 103.765235,24.7511433 103.765235,27.9749197 C103.765235,30.7457689 101.376707,32.7173347 97.9567702,32.7173347 C94.2382671,32.7173347 92.4740139,31.3052673 91.0354689,28.9074171 C90.058344,27.3621358 88.8369379,26.6960663 86.9369728,26.6960663 C84.222737,26.6960663 82.5670532,28.2413475 82.5670532,30.6924834 C82.5670532,31.3851957 82.7299073,32.1844791 83.0556156,32.9304769 C84.6298724,36.6604662 89.4069274,40.3904555 97.7396313,40.3904555 Z" id="Path"></path>
            <path d="M134.463242,20.8346545 L156.339982,20.8346545 C159.081361,20.8346545 160.438478,19.2360877 160.438478,16.9980941 C160.438478,14.7867433 159.081361,13.1881764 156.367125,13.1881764 L134.463242,13.1881764 C131.749006,13.1881764 130.391888,14.7867433 130.391888,16.9980941 C130.391888,19.2360877 131.749006,20.8346545 134.463242,20.8346545 Z M134.463242,34.5823293 L156.339982,34.5823293 C159.081361,34.5823293 160.438478,33.0104053 160.438478,30.7724117 C160.438478,28.5610609 159.081361,26.9358513 156.367125,26.9358513 L134.463242,26.9358513 C131.749006,26.9358513 130.391888,28.5610609 130.391888,30.7724117 C130.391888,33.0104053 131.749006,34.5823293 134.463242,34.5823293 Z" id="Shape"></path>
            <path d="M193.742152,40.3904555 C204.110533,40.3904555 210.516129,32.6640491 210.516129,20.1152994 C210.516129,7.48662137 204.056248,0 193.742152,0 C183.455198,0 176.941032,7.51326416 176.941032,20.1419422 C176.941032,32.7173347 183.373771,40.3904555 193.742152,40.3904555 Z M193.742152,32.7706203 C189.616513,32.7706203 187.065132,28.5344181 187.065132,20.1152994 C187.065132,11.7494663 189.616513,7.61983528 193.742152,7.61983528 C197.86779,7.61983528 200.392029,11.7228235 200.392029,20.1419422 C200.392029,28.5344181 197.894933,32.7706203 193.742152,32.7706203 Z" id="Shape"></path>
        </g>
        <path d="M339.064516,165.241231 L339.064516,48.3596363 C339.064516,34.9049972 351.267671,24 366.323983,24 L724.740534,24 C739.796846,24 752,34.9049972 752,48.3596363 L752,165.241231 C752,178.69587 739.796846,189.600868 724.740534,189.600868 L366.323983,189.600868 C351.267671,189.600868 339.064516,178.691811 339.064516,165.241231 Z" id="Path" fill="#E5F6FF" fill-rule="nonzero"></path>
        <g id="3-+-3-=-6" transform="translate(434.201613, 86.605206)" fill="#000000" fill-rule="nonzero">
            <path d="M15.0759243,40.3904555 C24.8388664,40.3904555 31.122749,35.7546117 31.122749,28.5610609 C31.122749,23.3657187 27.4009645,20.0886566 21.5216237,19.5025155 L21.5216237,19.316016 C25.9715834,18.4368042 29.5854902,15.2929561 29.5854902,10.3640417 C29.5854902,3.83656042 23.4903938,0.0266427807 15.0219854,0.0266427807 C7.36266073,0.0266427807 2.77785368,3.65006096 1.24059485,7.38005025 C0.889991956,8.20597645 0.75514469,8.87204597 0.75514469,9.69797217 C0.75514469,11.9359658 2.1305868,13.5345326 4.82753213,13.5345326 C7.01205784,13.5345326 8.19871378,12.761892 9.30446136,10.7103978 C10.4911173,8.4191187 12.2980707,7.30012191 15.0759243,7.30012191 C18.447106,7.30012191 20.3889066,9.03190266 20.3889066,11.7494663 C20.3889066,14.5469583 18.0695337,16.3853101 14.2668408,16.3853101 L13.3768488,16.3853101 C11.0305064,16.3853101 9.78991152,17.7440919 9.78991152,19.6890149 C9.78991152,21.6872235 11.0305064,23.0193625 13.3768488,23.0193625 L14.3207797,23.0193625 C18.6358922,23.0193625 21.063143,24.7511433 21.063143,27.9749197 C21.063143,30.7457689 18.6898311,32.7173347 15.29168,32.7173347 C11.5968649,32.7173347 9.84385042,31.3052673 8.4144694,28.9074171 C7.44356909,27.3621358 6.22994369,26.6960663 4.34208197,26.6960663 C1.64513665,26.6960663 0,28.2413475 0,30.6924834 C0,31.3851957 0.161816719,32.1844791 0.485450158,32.9304769 C2.04967844,36.6604662 6.79630221,40.3904555 15.0759243,40.3904555 Z" id="Path"></path>
            <path d="M62.4342842,39.1116021 C65.1042601,39.1116021 66.6684884,37.4597497 66.6684884,34.6622577 L66.6684884,27.9482769 L73.1141877,27.9482769 C75.8381024,27.9482769 77.4832391,26.4296384 77.4832391,23.8719315 C77.4832391,21.3408673 75.8650719,19.8222288 73.1681266,19.8222288 L66.6684884,19.8222288 L66.6684884,13.0816053 C66.6684884,10.2841133 65.1042601,8.63226094 62.4342842,8.63226094 C59.8182472,8.63226094 58.2270495,10.2841133 58.2270495,13.0816053 L58.2270495,19.8222288 L51.7004418,19.8222288 C49.0034965,19.8222288 47.4122988,21.3408673 47.4122988,23.8719315 C47.4122988,26.4296384 49.0034965,27.9482769 51.7004418,27.9482769 L58.2270495,27.9482769 L58.2270495,34.6356149 C58.2270495,37.4597497 59.7912778,39.1116021 62.4342842,39.1116021 Z" id="Path"></path>
            <path d="M109.334163,40.3904555 C119.097105,40.3904555 125.380988,35.7546117 125.380988,28.5610609 C125.380988,23.3657187 121.659203,20.0886566 115.779863,19.5025155 L115.779863,19.316016 C120.229822,18.4368042 123.843729,15.2929561 123.843729,10.3640417 C123.843729,3.83656042 117.748633,0.0266427807 109.280224,0.0266427807 C101.6209,0.0266427807 97.0360927,3.65006096 95.4988338,7.38005025 C95.148231,8.20597645 95.0133837,8.87204597 95.0133837,9.69797217 C95.0133837,11.9359658 96.3888258,13.5345326 99.0857711,13.5345326 C101.270297,13.5345326 102.456953,12.761892 103.5627,10.7103978 C104.749356,8.4191187 106.55631,7.30012191 109.334163,7.30012191 C112.705345,7.30012191 114.647146,9.03190266 114.647146,11.7494663 C114.647146,14.5469583 112.327773,16.3853101 108.52508,16.3853101 L107.635088,16.3853101 C105.288745,16.3853101 104.048151,17.7440919 104.048151,19.6890149 C104.048151,21.6872235 105.288745,23.0193625 107.635088,23.0193625 L108.579019,23.0193625 C112.894131,23.0193625 115.321382,24.7511433 115.321382,27.9749197 C115.321382,30.7457689 112.94807,32.7173347 109.549919,32.7173347 C105.855104,32.7173347 104.102089,31.3052673 102.672708,28.9074171 C101.701808,27.3621358 100.488183,26.6960663 98.600321,26.6960663 C95.9033756,26.6960663 94.258239,28.2413475 94.258239,30.6924834 C94.258239,31.3851957 94.4200557,32.1844791 94.7436892,32.9304769 C96.3079174,36.6604662 101.054541,40.3904555 109.334163,40.3904555 Z" id="Path"></path>
            <path d="M145.823834,20.8346545 L167.561213,20.8346545 C170.285128,20.8346545 171.6336,19.2360877 171.6336,16.9980941 C171.6336,14.7867433 170.285128,13.1881764 167.588182,13.1881764 L145.823834,13.1881764 C143.126888,13.1881764 141.778416,14.7867433 141.778416,16.9980941 C141.778416,19.2360877 143.126888,20.8346545 145.823834,20.8346545 Z M145.823834,34.5823293 L167.561213,34.5823293 C170.285128,34.5823293 171.6336,33.0104053 171.6336,30.7724117 C171.6336,28.5610609 170.285128,26.9358513 167.588182,26.9358513 L145.823834,26.9358513 C143.126888,26.9358513 141.778416,28.5610609 141.778416,30.7724117 C141.778416,33.0104053 143.126888,34.5823293 145.823834,34.5823293 Z" id="Shape"></path>
            <path d="M204.994814,40.3904555 C214.029581,40.3904555 220.637097,34.6356149 220.637097,26.482924 C220.637097,19.2893732 215.647748,14.0673882 208.069332,14.0673882 C202.810288,14.0673882 199.088504,16.5984524 197.605184,20.1952278 L197.416398,20.1952278 L197.416398,19.7689433 C197.362459,12.5487497 199.735771,7.51326416 204.832997,7.51326416 C207.17934,7.51326416 208.824476,8.2859048 210.550521,10.1242567 C211.925963,11.4830385 213.031711,12.2823219 214.973512,12.2823219 C217.562579,12.2823219 218.99196,10.6038267 218.99196,8.52568982 C218.99196,7.80633474 218.830143,7.14026523 218.50651,6.42091015 C216.861373,2.9040631 212.060811,0 204.832997,0 C194.422788,0 187.950119,7.7264064 187.950119,20.3550844 C187.950119,24.9909283 188.867081,28.9873454 190.485248,31.9713368 C193.559766,37.6995347 198.603053,40.3904555 204.994814,40.3904555 Z M204.859967,32.8771914 C201.353938,32.8771914 198.630023,30.2395561 198.630023,26.7759946 C198.630023,23.3390759 201.353938,20.9145828 204.940875,20.9145828 C208.446904,20.9145828 211.11688,23.3923614 211.08991,26.9092085 C211.062941,30.2661989 208.339026,32.8771914 204.859967,32.8771914 Z" id="Shape"></path>
        </g>
    </g>
</svg>