<?xml version="1.0" encoding="UTF-8"?>
<svg width="507px" height="446px" viewBox="0 0 507 446" version="1.1" xmlns="http://www.w3.org/2000/svg" xmlns:xlink="http://www.w3.org/1999/xlink">
    <title>girl-wow-illlustration</title>
    <g id="Colored-Verse" stroke="none" stroke-width="1" fill="none" fill-rule="evenodd">
        <g id="Artboard" transform="translate(-1340.000000, -833.000000)" fill-rule="nonzero">
            <g id="girl-wow-illlustration" transform="translate(1340.000000, 834.000000)">
                <path d="M482.884037,284.291936 C481.943873,294.726155 473.342249,304.937746 464.939169,308.277165 C467.175708,338.34951 467.858933,403.983735 461.114278,445 L28.5629526,445 C17.1466762,404.464143 20.8430972,360.008863 25.4855216,318.30128 C25.4738425,286.090535 27.8096536,253.28221 37.4156764,222.723599 C48.8611504,220.116509 61.4570114,221.704197 72.7039415,227.252319 C72.7272996,227.141005 72.7448182,227.053126 72.7564972,227.023833 C72.7564972,227.047267 72.7389787,227.117571 72.7214601,227.258178 C72.7214601,227.258178 72.7214601,227.258178 72.7272996,227.258178 C72.7156206,227.310906 72.7039415,227.369492 72.6922624,227.42222 C73.6149078,227.515958 79.3142867,224.844423 80.8267244,224.018356 C91.3612321,218.276899 96.850388,216.22052 106.181953,208.674605 C124.447995,193.905001 141.756355,177.641445 155.374133,158.477868 C168.997751,139.308433 178.843195,117.033924 181.044696,93.5994058 C181.097252,93.0662706 181.138129,92.5331353 181.179006,92 C184.939661,101.508556 189.220035,110.771049 194.539845,119.488689 C212.729973,149.297396 242.155353,170.939173 273.974938,185.175643 C274.085889,185.222512 274.19684,185.275239 274.301952,185.322108 C288.369374,191.590842 302.927316,196.541384 317.753876,200.671718 C336.37029,205.868322 355.395471,209.781886 374.379775,213.437671 C385.685101,215.611223 397.019624,217.708612 408.400863,219.466201 C408.873865,219.542363 409.346866,219.612667 409.825708,219.68297 C413.814105,219.993478 417.779144,220.550047 421.697467,221.346821 C427.174944,222.465819 432.558988,224.065225 437.767847,226.115745 C439.362038,226.742619 440.967908,227.42222 442.67305,227.580403 C444.378192,227.738586 446.235162,227.275754 447.344672,225.96928 C448.168046,224.990888 448.862949,223.520372 449.143247,222.278343 C449.242519,221.850663 449.400186,221.2648 449.581211,220.602775 C450.865907,223.860173 452.354987,227.03555 454.124364,230.105472 C459.350741,239.168772 466.749422,246.755697 472.83421,255.268285 C478.918998,263.780874 483.824201,273.863575 482.884037,284.291936 Z" id="Path" fill="#141421"></path>
                <path d="M403.459937,381.781125 C396.100617,404.164339 385.920224,426.115986 371.978401,445 L106.488007,445 C93.7201702,412.953163 89.24033,357.636647 91.6058258,329.345617 C96.0506215,276.087798 127.684017,254.666863 128.162957,226.498306 C128.320656,217.482034 127.099944,207.999203 130.902259,199.816908 C135.726702,189.430117 147.291348,184.058845 158.306965,180.897901 C196.289234,169.997894 237.028328,175.579118 275.150774,186.496621 C277.329367,187.120645 279.496278,187.756333 281.651507,188.415349 C294.168192,192.223644 306.597266,196.568484 318.611648,201.77646 C333.832591,208.378283 348.381851,216.356458 361.593582,226.358338 C385.225177,244.250912 404.394454,269.176878 411.128816,298.021948 C417.588664,325.671458 412.332006,354.802295 403.459937,381.781125 Z" id="Path" fill="#000000"></path>
                <path d="M506.992979,265.112824 C506.899402,274.852693 505.893447,284.796325 501.875477,293.680389 C496.547426,305.46371 486.271481,314.504963 474.808275,320.571277 C463.345069,326.637591 450.66536,330.014235 438.03244,333.018283 C431.230548,334.636743 423.954921,336.132945 417.375275,333.780938 C407.532125,330.252928 402.514048,319.296303 400.718536,309.032472 C395.636125,279.923479 418.609324,257.794823 435.190033,233.104575 C436.728208,230.810786 438.535417,228.703295 440.541478,226.817032 C443.781588,223.76641 447.559767,221.27468 451.642072,219.452457 C457.578375,216.803539 464.158021,215.580961 470.649939,216.12821 C484.358997,217.286748 497.114737,226.310536 502.717671,238.815759 C506.384728,246.989565 507.080708,256.164719 506.992979,265.112824 Z" id="Path" fill="#FC9895"></path>
                <path d="M426.492517,265.480431 C427.221806,256.069106 434.578878,247.557995 443.767926,245.494518 C452.956974,243.431042 463.237038,247.98472 467.904491,256.180172 C471.445921,262.39983 471.772643,270.133483 469.777307,277.013688 C467.781971,283.893892 463.639606,289.984948 458.75045,295.210864 C451.089993,303.394624 441.451703,309.707811 430.891591,313.448959 C427.204303,314.75836 423.067773,315.740412 419.450497,314.255644 C413.942903,311.999264 412.017579,305.119059 412,299.15076 C411.976738,286.723135 417.350143,274.377348 426.492517,265.480431 Z" id="Path" fill="#DC657C"></path>
                <path d="M92,351.859451 C68.4227876,353.142935 44.2996989,345.613557 26.123178,330.18809 C19.2532661,324.356223 13.17894,317.483373 8.66094215,309.622773 C0.559904886,295.539937 -2.24497038,278.198117 1.90136697,262.429599 C5.99543956,246.844436 17.0755679,233.12831 31.6400134,226.81144 C31.8084221,226.734549 31.9768307,226.663573 32.1452394,226.592597 C45.2695005,221.086037 60.9315059,221.973237 74.5784145,228.816514 C74.5668001,228.869746 74.5551857,228.928893 74.5435713,228.982125 C74.2474044,230.401646 73.968659,231.821168 73.7073352,233.240689 C66.3844621,273.359914 73.521505,315.673483 92,351.859451 Z" id="Path" fill="#FC9895"></path>
                <path d="M80.7080152,258.953771 C77.0901635,249.647497 66.3750908,244.435061 56.9352098,246.418555 C47.4953289,248.402048 39.8614887,256.705044 37.2014734,266.357276 C34.541458,276.009508 36.474441,286.665019 41.2636226,295.377398 C46.0528043,304.089777 53.4962312,310.98011 61.7474719,316.163716 C69.7563684,321.191641 80.2694877,324.616627 88.1572122,319.386893 C94.7985954,314.987458 97.0950946,305.923355 96.9970029,297.724147 C96.8642906,285.828953 87.7763857,277.12234 80.7080152,258.953771 Z" id="Path" fill="#DC657C"></path>
                <path d="M433.832005,295.086711 C420.62672,347.17695 387.639812,394.863962 341.096881,421.698504 C281.11484,456.275243 200.959518,452.018205 144.981735,411.278118 C122.803403,395.138798 104.904075,373.625553 92.2658157,349.317164 C73.6708567,313.535825 66.4807279,271.708088 73.8520713,232.043955 C74.1151248,230.634689 74.3957152,229.23127 74.6938425,227.833698 C74.7055338,227.78107 74.717225,227.722594 74.7289163,227.669966 C82.5912929,190.765891 93.1251238,149.710035 115.502207,114.373111 C137.914365,78.9777119 171.8015,49.1725987 212.592328,39.6761294 C239.488086,33.4133717 267.611427,36.2085147 294.928071,40.2550398 C322.589607,44.3541931 351.063686,50.1082114 373.762279,66.4405012 C397.220805,83.316616 412.004411,109.765218 422.257652,136.786884 C432.773946,164.492716 439.227525,193.946974 440.683087,223.52988 C441.869751,247.586822 439.753632,271.725631 433.832005,295.086711 Z" id="Path" fill="#FC9895"></path>
                <path d="M450.913554,214.03329 C450.890279,214.870482 450.855367,215.725237 450.773905,216.568283 C450.628437,217.996778 450.331683,219.390145 449.674167,220.619588 C445.618522,222.452042 441.853811,224.957762 438.630242,228.025514 C438.345125,227.914278 438.060008,227.803043 437.774891,227.685953 C432.590413,225.636883 427.225556,224.038608 421.76178,222.920401 C417.857421,222.118336 413.906512,221.56216 409.932328,221.257727 C409.461012,221.187473 408.989696,221.111365 408.512561,221.041111 C397.171881,219.284765 385.877751,217.188858 374.612714,215.016844 C368.73581,213.881073 362.853086,212.721885 356.982001,211.510006 C328.784496,205.673083 300.808104,198.554027 274.565688,186.780653 C242.859498,172.55425 213.538981,150.927776 195.413677,121.140146 C190.112825,112.42867 185.847705,103.172726 182.100451,93.6708938 C182.05972,94.2036521 182.013171,94.7364105 181.966621,95.2691688 C179.767146,118.687116 169.956788,140.95173 156.38754,160.101757 C142.818291,179.257638 125.577431,195.503839 107.370665,210.263 C98.0723546,217.803579 92.6027603,219.858504 82.1057942,225.595901 C81.4017294,225.982298 79.7957635,226.766799 78.1897975,227.481046 C76.3394454,228.306529 74.4890933,229.050049 74.000321,228.997358 C74.0119584,228.944668 74.0235959,228.886123 74.0352333,228.833433 C74.0352333,228.833433 74.0352333,228.833433 74.0294146,228.833433 C74.0526895,228.69878 74.0643269,228.628526 74.0643269,228.599253 C74.0585082,228.628526 74.0352333,228.716343 74.0119584,228.827578 C62.8051089,223.283379 50.2541356,221.696813 38.8494497,224.30206 C36.3357638,224.8758 33.8802651,225.654446 31.5062284,226.638 C31.3374856,226.708254 31.1687428,226.778508 31,226.854616 C31.1687428,225.344159 31.4247664,223.851264 31.7157022,222.440333 C39.6466139,183.870973 49.6839013,145.032307 69.9912248,111.351444 C90.1879926,77.8579247 121.975645,49.6978428 160.117337,41.9465021 C172.167901,33.4633506 184.945804,26.1276785 198.840901,19.3891641 C203.420232,17.1703136 208.115937,15.0158624 212.951291,12.9023927 C228.004312,6.33365836 249.615029,2.38773419 265.948168,0.760186836 C305.550358,-3.19159182 342.737781,8.40614672 374.717451,32.2339084 C412.632213,67.1793406 437.902902,114.676793 447.113932,165.101488 C450.064022,181.224745 451.361596,197.634872 450.913554,214.03329 Z" id="Path" stroke="#000000" fill="#141421"></path>
                <path d="M262,304.187259 C272.519504,303.439426 282.759884,299.077067 290.674226,291.966718 C291.686053,291.058635 292.77929,290.055589 294.128392,290.002172 C295.90781,289.93095 297.344139,291.622477 297.791901,293.385227 C298.722316,297.06504 296.413724,300.964455 293.238683,302.952741 C290.069457,304.941028 286.22568,305.415842 282.51565,305.706666 C275.68873,306.223027 268.733878,306.246768 262,304.187259 Z" id="Path" fill="#C54C67"></path>
                <path d="M149.699185,277.102178 C141.126467,276.25873 132.46255,275.415282 123.924032,276.547582 C115.385513,277.679883 106.846995,280.984352 100.913352,287.310215 C94.9797083,293.636078 92.1525353,303.329958 95.3046051,311.452482 C97.7840814,317.847669 103.449827,322.428865 109.41767,325.698672 C129.139482,336.501744 154.737937,335.219241 173.314059,322.49819 C180.815188,317.362398 187.626623,309.338084 186.954029,300.193023 C186.406834,292.815738 180.957686,286.553422 174.522448,283.069865 C168.08151,279.597861 160.73998,278.188263 149.699185,277.102178 Z" id="Path" fill="#C54C67"></path>
                <path d="M244,282 C260.564805,274.218203 277.526337,266.14965 290.129618,253.071283 C291.659031,251.480063 293.159695,249.753899 293.763411,247.651014 C294.367127,245.54813 293.832407,242.984185 291.963764,241.792176 C290.62984,240.937528 288.916438,240.931905 287.329528,241.061227 C278.486533,241.764063 270.103511,245.722433 263.341897,251.345119 C256.580282,256.962182 251.348081,264.176087 244,282 Z" id="Path" fill="#FFFFFF"></path>
                <path d="M241,284.521904 C241.110918,280.875198 241.706374,277.222656 242.669611,273.634297 C243.62701,270.045938 244.975542,266.539265 246.650991,263.155121 C250.001889,256.392669 254.788885,250.254532 260.603335,245.149143 C262.051109,243.859668 263.598126,242.686887 265.162657,241.525776 C266.744701,240.388003 268.437663,239.343586 270.206517,238.369186 C273.744224,236.432056 277.719766,234.926695 282.06309,234.296544 C286.412251,233.660559 290.983249,234.022312 295.384951,235.626863 C297.579964,236.437891 299.699085,237.616506 301.602208,239.127701 C303.511169,240.627227 305.116564,242.418489 306.43007,244.34395 C309.027891,248.235716 310.452314,252.617598 310.890149,257.075332 C311.257931,261.498058 310.679988,265.809924 309.489077,269.765871 C308.893621,271.743845 308.152221,273.645967 307.323253,275.478072 C306.914607,276.394125 306.447583,277.286839 305.95137,278.162048 L305.221645,279.474862 C304.982295,279.918302 304.737107,280.350072 304.451055,280.758503 C302.36696,284.177655 299.774977,287.211715 296.996184,289.983212 C296.272296,290.648371 295.560085,291.319365 294.83036,291.972855 C294.100635,292.626345 293.300856,293.192314 292.541942,293.80496 L291.391895,294.697674 L290.18347,295.514536 C289.372016,296.051332 288.578075,296.605631 287.74327,297.089914 C284.421561,299.079557 280.878016,300.619926 277.276093,301.827715 C273.633306,302.959653 269.897113,303.65982 266.166759,303.934053 C262.424728,304.138268 258.706049,303.86987 255.139153,303.105521 C258.75859,302.568726 262.226243,301.804376 265.559627,300.73662 C268.86966,299.575509 272.039586,298.216017 275.016864,296.553118 C275.758265,296.127183 276.476314,295.672074 277.20604,295.240304 C277.567983,295.018584 277.935765,294.814369 278.286033,294.575145 L279.319323,293.839969 L280.352614,293.116462 C280.702882,292.883073 281.047312,292.643849 281.368391,292.375451 L283.329892,290.811744 C285.851822,288.62372 288.210294,286.307332 290.253524,283.757555 C290.527901,283.459983 290.761413,283.121569 291.000762,282.794824 L291.72465,281.814589 L292.448537,280.840189 C292.670373,280.501775 292.880534,280.151691 293.090695,279.813277 C293.505179,279.124779 293.983879,278.471289 294.375011,277.771121 L295.513382,275.658949 C295.717705,275.3147 295.881164,274.952946 296.032947,274.585358 L296.511646,273.494264 C296.669267,273.13251 296.832725,272.770757 297.002022,272.414839 C297.16548,272.053085 297.299749,271.679663 297.445694,271.312075 C298.000285,269.835888 298.467309,268.342197 298.81174,266.860175 C300.265352,260.937924 299.675734,255.109028 296.768509,250.867179 C296.073811,249.822762 295.268195,248.900875 294.357498,248.171534 C293.913825,247.786441 293.417612,247.477201 292.903885,247.162125 C292.378483,246.870389 291.835568,246.596156 291.251788,246.356932 C290.101741,245.866815 288.817425,245.545905 287.486406,245.353359 C286.14955,245.184152 284.765991,245.149143 283.376595,245.260003 C280.568613,245.464219 277.65555,246.345263 274.760001,247.564722 C271.876128,248.825023 268.980578,250.499591 266.236812,252.36087 C260.743442,256.095097 255.728771,260.751212 251.496366,266.189181 C249.365568,268.896496 247.427419,271.796357 245.676078,274.853756 C243.9189,277.916989 242.377721,281.143595 241,284.521904 Z" id="Path" fill="#000000"></path>
                <path d="M357.108028,275.101405 C365.863616,274.255788 374.711979,273.415924 383.438575,274.549166 C392.165171,275.682407 400.880171,278.98434 406.939502,285.312086 C412.998833,291.639832 415.886437,301.332788 412.668324,309.455313 C410.134422,315.846337 404.347616,320.431076 398.253494,323.698494 C378.104044,334.501682 351.959046,333.218875 332.980874,320.500106 C325.321184,315.363127 318.357302,307.344147 319.047312,298.197678 C319.603958,290.822978 325.170425,284.558509 331.745814,281.078249 C338.3328,277.592236 345.830134,276.188627 357.108028,275.101405 Z" id="Path" fill="#C54C67"></path>
                <path d="M447,165.355206 C426.265076,167.837856 404.082851,162.820105 383.92568,155.97242 C310.130827,130.906979 244.395341,82.8274877 198,20.3008379 C202.592847,18.0920952 207.302412,15.9474585 212.152038,13.8436165 C227.24949,7.30480574 248.923993,3.37685701 265.305341,1.75672385 C305.024422,-2.1770527 342.321607,9.367853 374.395669,33.0870686 C412.42234,67.8791368 437.767619,115.160217 447,165.355206 Z" id="Path" fill="#1E1F36"></path>
                <path d="M357,212.239237 C306.063697,213.567553 276.531202,209.29384 235.95158,179.071754 C221.9396,168.635807 194.0839,140.752713 185.026881,124.853343 C165.595776,171.275114 127.365989,213.5098 79,228 C80.6071712,227.289639 82.2027382,226.521526 82.9047877,226.140357 C93.3717076,220.480574 98.8256459,218.453448 108.097341,211.014876 C126.246191,196.455373 143.443503,180.423171 156.973912,161.532202 C170.510122,142.635457 180.292399,120.677809 182.479776,97.5766538 C182.531995,97.0511026 182.572609,96.5255513 182.613224,96 C186.349752,105.373294 190.602663,114.504025 195.888342,123.097655 C213.961765,152.482324 243.198355,173.816241 274.813791,187.850193 C300.986893,199.458523 328.883207,206.481274 357,212.239237 Z" id="Path" fill="#DC657C"></path>
                <path d="M171.311027,209.025515 C166.616388,206.194552 160.503516,209.666268 157.203955,214.064163 C150.917422,222.446377 149.939131,233.624604 150.002807,244.127128 C150.037539,249.532753 150.315397,255.101479 152.590358,260.000327 C154.865318,264.899175 159.577323,269.005819 164.949241,269 C169.996991,268.994169 174.483236,265.382652 177.001323,260.984757 C179.519409,256.586861 180.428236,251.466662 181.296541,246.468789 C182.558479,239.19333 183.826205,231.69652 182.303776,224.467662 C180.787135,217.232978 175.299444,211.431251 171.311027,209.025515 Z" id="Path" fill="#000000"></path>
                <path d="M358.440565,211.126995 C354.969583,208.886654 350.229702,210.260884 347.003396,212.847668 C343.236527,215.867509 340.761319,220.325094 339.446898,225.007867 C338.132477,229.690641 337.904872,234.621699 338.030055,239.489243 C338.132477,243.594609 338.490956,247.757716 339.902109,251.609023 C341.318952,255.46033 343.902273,258.999837 347.532578,260.81867 C351.162884,262.637503 355.891385,262.423863 358.929916,259.704274 C361.006815,257.845022 362.087941,255.11966 363.066644,252.492456 C365.610134,245.684824 368.00568,238.640454 368,231.359348 C367.9943,224.084015 365.621514,215.763576 358.440565,211.126995 Z" id="Path" fill="#000000"></path>
                <path d="M144.153595,196.983761 C147.042398,189.136834 153.338358,182.898952 160.216738,177.930176 C165.097417,174.406141 170.502274,171.329693 176.489552,170.321207 C182.476829,169.307055 189.133889,170.65548 193.338961,174.921715 C197.544034,179.187951 198.429312,186.598622 194.398966,191.01783 C191.708186,193.963969 187.497289,195.142424 183.455295,195.448369 C179.4133,195.748649 175.342184,195.323725 171.306014,195.720321 C167.496987,196.099919 163.769499,197.221718 160.408936,199.006398 C158.428708,200.054544 156.570789,201.334981 154.485725,202.173497 C152.400662,203.012014 149.983619,203.363284 147.904379,202.502105 C145.82514,201.640926 143.355679,199.159371 144.153595,196.983761 Z" id="Path" fill="#000000"></path>
                <path d="M378.859498,199.526508 C376.243088,192.392551 370.544093,186.726346 364.314823,182.209311 C359.897811,179.006426 354.997141,176.213146 349.577852,175.291534 C344.158562,174.369922 338.127417,175.598738 334.316432,179.47292 C330.505448,183.347103 329.707123,190.082833 333.354946,194.104928 C335.790712,196.784429 339.607524,197.853953 343.267001,198.132712 C346.926479,198.405782 350.615092,198.018933 354.268742,198.383027 C357.71844,198.724364 361.092385,199.748377 364.140007,201.369731 C365.934783,202.325477 367.618842,203.486025 369.506852,204.248345 C371.394863,205.010666 373.585888,205.329248 375.462244,204.54986 C377.3386,203.759095 379.587897,201.506266 378.859498,199.526508 Z" id="Path" fill="#000000"></path>
                <g id="Group" transform="translate(214.000000, 321.000000)">
                    <path d="M83.2667519,69.0782015 C82.0354447,74.7450937 80.0736011,80.2901797 77.4106782,85.4640465 C73.8934991,92.2909985 69.1509042,98.468317 63.2182419,103.404372 C53.6682464,111.356582 39.9412325,115.828612 28.4293934,111.008564 C22.814868,108.659442 18.26669,104.361421 14.4902883,99.6399774 C10.8847379,95.1273447 7.90367821,90.1448878 5.60602352,84.8724159 C1.0519541,74.4376779 -0.839192446,62.8718815 0.344983431,51.5728989 C2.12419296,34.566422 10.8493893,18.3545861 24.1463294,7.35721899 C24.2759407,7.24701331 24.4114434,7.14260792 24.5469461,7.03240224 C30.7918537,2.09634772 40.4420034,-0.386180288 49.8800619,0.0488421435 C58.8114581,0.466463678 67.7840942,4.08005001 73.6637336,10.6575892 C74.1350474,11.1796161 74.5769041,11.7190439 75.0069779,12.2816729 C78.7362482,17.171325 80.686309,23.1456331 82.1120332,29.0909397 C85.2462698,42.1822147 86.1240917,55.9347238 83.2667519,69.0782015 Z" id="Path" fill="#000000"></path>
                    <path d="M77.4106782,85.4640465 C73.8934991,92.2909985 69.1509042,98.468317 63.2182419,103.404372 C53.6682464,111.356582 39.9412325,115.828612 28.4293934,111.008564 C22.814868,108.659442 18.26669,104.361421 14.4902883,99.6399774 C10.8847379,95.1273447 7.90367821,90.1448878 5.60602352,84.8724159 C5.67672059,84.8086127 5.74741766,84.7506097 5.81811472,84.6868064 C16.1752351,75.6093383 29.8020948,69.8786428 43.6705028,70.0816533 C56.4607806,70.2730632 69.2805155,75.8181491 77.4106782,85.4640465 Z" id="Path" fill="#C54C67"></path>
                    <path d="M73.6696251,10.6691898 C73.0687,11.1448143 72.4383178,11.585637 71.7666957,11.9800574 C66.0873646,15.3268299 59.0117664,14.8338045 52.3898078,14.9092084 C46.2509458,14.978812 39.9706896,15.6110446 34.0851588,13.8767552 C30.2734086,12.7514971 26.6207268,10.2805697 24.5469461,7.03820254 C30.7918537,2.10214802 40.4420034,-0.380379989 49.8800619,0.0546424426 C58.8232409,0.472263977 67.795877,4.0916506 73.6696251,10.6691898 Z" id="Path" fill="#FFFFFF"></path>
                </g>
                <path d="M298,63 C296.335427,64.664465 294.664573,66.32893 293,68" id="Path" fill="#000000"></path>
                <path d="M161.984614,46.7094853 C155.731044,40.3237077 145.769238,37.608314 137,39.9094951 C138.833352,36.6475709 141.099826,33.6215177 143.722291,30.9176299 C145.401381,29.1859912 147.73312,27.4658583 150.076725,28.1562126 C151.328626,28.5244016 152.260135,29.5081565 153.126379,30.4573937 C157.17874,34.8756615 161.254833,39.3744705 164.001895,44.6499282 C166.75489,49.9253859 169.887608,54.786631 161.984614,46.7094853 Z" id="Path" fill="#000000"></path>
            </g>
        </g>
    </g>
</svg>