<svg width="1000" height="1000" viewBox="0 0 1000 1000" fill="none" xmlns="http://www.w3.org/2000/svg">
<path d="M409 160C447 84.4 493.167 79.8334 511.5 87C554.3 96.6 578 129 584.5 144L923.5 739.5L955 802.5C981.8 882.9 920.167 909.667 886 913H105C41.8 903.4 34 835.333 38 802.5C145.833 619.833 371 235.6 409 160Z" fill="white"/>
<path d="M507 645V913L85.7447 910.867C75.8162 907.313 45.1794 884.707 33.2651 845.467C21.3508 806.227 96.6189 697.368 131.842 645H507Z" fill="#D6EAF4"/>
<path fill-rule="evenodd" clip-rule="evenodd" d="M947.435 791.691L566.284 131.517C536.823 80.4888 463.17 80.4889 433.709 131.517L52.5572 791.691C23.0962 842.719 59.9225 906.504 118.845 906.504H881.148C940.07 906.504 976.897 842.719 947.435 791.691ZM578.559 124.43C543.642 63.952 456.35 63.952 421.434 124.43L40.2818 784.604C5.365 845.082 49.011 920.679 118.845 920.679H881.148C950.982 920.679 994.628 845.082 959.711 784.604L578.559 124.43Z" fill="#76B9D9"/>
<path fill-rule="evenodd" clip-rule="evenodd" d="M130.049 640.379L868.537 640.379V654.554L130.049 654.554V640.379Z" fill="#76B9D9"/>
<path fill-rule="evenodd" clip-rule="evenodd" d="M285.967 361.143H712.618V375.317H285.967V361.143Z" fill="#76B9D9"/>
<path d="M471.12 283.539C473.577 286.684 475.887 287.519 477.705 287.519C481.538 287.519 484.044 284.915 484.044 281.623C484.044 279.657 483.504 278.183 482.914 276.61C480.015 269.632 475.887 259.411 475.887 243.785C475.887 228.65 480.015 218.429 482.914 211.451C483.504 209.878 484.044 208.355 484.044 206.439C484.044 203.146 481.538 200.493 477.705 200.493C475.887 200.493 473.577 201.328 471.12 204.522C468.123 208.306 459.671 221.131 459.671 243.785C459.671 266.93 468.123 279.755 471.12 283.539Z" fill="black"/>
<path d="M527.287 283.539C530.334 279.755 538.737 266.93 538.737 243.785C538.737 221.131 530.334 208.306 527.287 204.522C524.879 201.328 522.57 200.493 520.703 200.493C516.87 200.493 514.413 203.146 514.413 206.439C514.413 208.355 514.904 209.878 515.543 211.451C518.393 218.429 522.57 228.65 522.57 243.785C522.57 259.411 518.393 269.632 515.543 276.61C514.904 278.183 514.413 279.657 514.413 281.623C514.413 284.915 516.87 287.519 520.703 287.519C522.57 287.519 524.879 286.684 527.287 283.539Z" fill="black"/>
<path d="M333.253 535.839C333.253 540.898 337.121 544.588 341.645 544.588C346.109 544.588 348.609 542.743 351.883 537.684L361.228 523.339H362.121L371.584 537.743C374.858 542.743 377.477 544.588 381.941 544.588C386.524 544.588 390.393 540.838 390.393 535.779C390.393 533.101 389.381 531.017 387.179 528.755L372.775 512.208L387.834 495.066C389.441 493.459 390.334 491.197 390.334 488.817C390.334 483.698 386.465 480.007 381.763 480.007C377.418 480.007 374.918 481.793 371.644 486.912L362.121 501.257H361.228L351.764 486.852C348.431 481.793 345.931 480.007 341.586 480.007C336.883 480.007 333.014 483.698 333.014 488.757C333.014 491.138 334.026 493.578 335.574 495.185L350.692 512.208L335.633 529.529C334.145 531.077 333.253 533.458 333.253 535.839Z" fill="black"/>
<path d="M257.259 817.731V800.649H273.389C278.865 800.649 282.198 797.553 282.198 792.554C282.198 787.613 278.865 784.459 273.389 784.459H257.259V767.971C257.259 762.495 253.985 759.162 248.866 759.162C243.807 759.162 240.593 762.495 240.593 767.971V784.459H224.76C219.284 784.459 215.951 787.613 215.951 792.613C215.951 797.553 219.284 800.649 224.76 800.649H240.593V817.731C240.593 823.148 243.866 826.481 248.926 826.481C253.985 826.481 257.259 823.148 257.259 817.731Z" fill="black"/>
<path d="M715.297 792.792C715.297 797.91 718.927 801.184 725.058 801.184H746.783C752.914 801.184 756.545 797.851 756.545 792.732C756.545 787.554 752.914 784.28 746.783 784.28H725.058C718.987 784.28 715.297 787.613 715.297 792.792Z" fill="black"/>
<path d="M651.188 495.483C651.188 501.376 656.009 506.197 661.902 506.197C667.735 506.197 672.615 501.376 672.615 495.483C672.615 489.59 667.735 484.769 661.902 484.769C656.009 484.769 651.188 489.59 651.188 495.483ZM651.188 534.648C651.188 540.541 656.009 545.362 661.902 545.362C667.735 545.362 672.615 540.541 672.615 534.648C672.615 528.755 667.735 523.934 661.902 523.934C656.009 523.934 651.188 528.755 651.188 534.648Z" fill="black"/>
</svg>
