<?xml version="1.0" encoding="UTF-8"?>
<svg width="520px" height="636px" viewBox="0 0 520 636" version="1.1" xmlns="http://www.w3.org/2000/svg" xmlns:xlink="http://www.w3.org/1999/xlink">
    <title>boy-main-illustration</title>
    <g id="Colored-Verse" stroke="none" stroke-width="1" fill="none" fill-rule="evenodd">
        <g id="Artboard" transform="translate(-711.000000, -36.000000)" fill-rule="nonzero">
            <g id="boy-main-illustration" transform="translate(711.000000, 36.000000)">
                <g id="Illustration">
                    <path d="M0,303.959232 L0,123.694268 C0,114.044927 7.83044479,106.222621 17.4898256,106.222621 L198.711903,106.222621 C208.371284,106.222621 216.201729,114.044927 216.201729,123.694268 L216.201729,303.959232 C216.201729,313.608573 208.371284,321.430879 198.711903,321.430879 L17.4898256,321.430879 C7.83044479,321.430879 0,313.608573 0,303.959232 Z" id="Path" fill="#E5F6FF"></path>
                    <path d="M303.798271,303.959232 L303.798271,123.694268 C303.798271,114.044927 311.628716,106.222621 321.288097,106.222621 C366.594241,106.222621 457.20403,106.222621 502.510174,106.222621 C512.169555,106.222621 520,114.044927 520,123.694268 L520,303.959232 C520,313.608573 512.169555,321.430879 502.510174,321.430879 L321.288097,321.430879 C311.628716,321.430879 303.798271,313.608573 303.798271,303.959232 Z" id="Path" fill="#E5F6FF"></path>
                    <path d="M0,564.84087 L0,384.575906 C0,374.926565 7.83044479,367.104259 17.4898256,367.104259 L198.711903,367.104259 C208.371284,367.104259 216.201729,374.926565 216.201729,384.575906 L216.201729,564.84087 C216.201729,574.490211 208.371284,582.312517 198.711903,582.312517 L17.4898256,582.312517 C7.83044479,582.312517 0,574.490211 0,564.84087 Z" id="Path" fill="#E5F6FF"></path>
                    <path d="M303.798271,564.84087 L303.798271,384.575906 C303.798271,374.926565 311.628716,367.104259 321.288097,367.104259 L502.510174,367.104259 C512.169555,367.104259 520,374.926565 520,384.575906 L520,564.84087 C520,574.490211 512.169555,582.312517 502.510174,582.312517 L321.288097,582.312517 C311.628716,582.312517 303.798271,574.490211 303.798271,564.84087 Z" id="Path" fill="#E5F6FF"></path>
                    <g id="Group" transform="translate(36.388831, 146.364977)" fill="#A1DFFF">
                        <path d="M0,79.8604017 L0,58.0408108 C0,54.3867406 2.96577472,51.4215526 6.62614537,51.4215526 L131.416051,51.4215526 C135.073923,51.4215526 138.042197,54.3842447 138.042197,58.0408108 L138.042197,79.8604017 C138.042197,83.5144718 135.076422,86.4796599 131.416051,86.4796599 L6.62364682,86.4796599 C2.96577472,86.4771639 0,83.5144718 0,79.8604017 Z" id="Path"></path>
                        <path d="M82.4895133,137.898716 L60.6472196,137.898716 C56.9893475,137.898716 54.0210743,134.936024 54.0210743,131.279458 L54.0210743,6.6192582 C54.0210743,2.96518806 56.986849,0 60.6472196,0 L82.4895133,0 C86.1473854,0 89.1156587,2.96269211 89.1156587,6.6192582 L89.1156587,131.281954 C89.1131601,134.936024 86.1473854,137.898716 82.4895133,137.898716 Z" id="Path"></path>
                    </g>
                    <path d="M349.046949,229.65731 L349.046949,206.083066 C349.046949,202.91321 351.620452,200.342382 354.793606,200.342382 L481.342488,200.342382 C484.515642,200.342382 487.089145,202.91321 487.089145,206.083066 L487.089145,229.65731 C487.089145,232.827166 484.515642,235.397994 481.342488,235.397994 L354.793606,235.397994 C351.620452,235.397994 349.046949,232.829662 349.046949,229.65731 Z" id="Path" fill="#A1DFFF"></path>
                    <g id="Group" transform="translate(395.694812, 410.858255)" fill="#A1DFFF">
                        <path d="M0,32.3375223 L0,5.74068396 C0,2.57082803 2.57350291,0 5.74665699,0 L32.3736672,0 C35.5468213,0 38.1203242,2.57082803 38.1203242,5.74068396 L38.1203242,32.3400183 C38.1203242,35.5098742 35.5468213,38.0807022 32.3736672,38.0807022 L5.74665699,38.0807022 C2.57350291,38.0782063 0,35.5098742 0,32.3375223 Z" id="Path"></path>
                        <path d="M0,126.205193 L0,99.6058586 C0,96.4360026 2.57350291,93.8651746 5.74665699,93.8651746 L32.3736672,93.8651746 C35.5468213,93.8651746 38.1203242,96.4360026 38.1203242,99.6058586 L38.1203242,126.205193 C38.1203242,129.375049 35.5468213,131.945877 32.3736672,131.945877 L5.74665699,131.945877 C2.57350291,131.945877 0,129.375049 0,126.205193 Z" id="Path"></path>
                    </g>
                    <g id="Group" transform="translate(49.633627, 421.899712)" fill="#A1DFFF">
                        <path d="M1.94137064,17.364945 L17.3848867,1.93748084 C19.9708823,-0.645826945 24.1659419,-0.645826945 26.7544361,1.93748084 L114.995604,90.086931 C117.581599,92.6702388 117.581599,96.860938 114.995604,99.4467418 L99.5520875,114.874206 C96.9660918,117.457514 92.7710322,117.457514 90.182538,114.874206 L1.94137064,26.7247558 C-0.647123548,24.141448 -0.647123548,19.9507487 1.94137064,17.364945 Z" id="Path"></path>
                        <path d="M19.1863387,116.673786 L3.74282268,101.246321 C1.15682704,98.6630136 1.15682704,94.4723143 3.74282268,91.8865106 L91.9839901,3.73706046 C94.5699857,1.15375268 98.7650453,1.15375268 101.35354,3.73706046 L116.797056,19.1645246 C119.383051,21.7478324 119.383051,25.9385317 116.797056,28.5243354 L28.5558882,116.673786 C25.9698925,119.259589 21.7748329,119.259589 19.1863387,116.673786 Z" id="Path"></path>
                    </g>
                    <path d="M344.704475,39.1864079 C344.704475,50.0088451 340.314529,59.8054471 333.216158,66.8964397 C326.117787,73.9874324 316.310992,78.3728158 305.477294,78.3728158 L281.553712,78.3728158 C277.473585,81.6050704 273.248543,84.6900641 270.162838,88.8458201 C266.217633,94.1572007 264.673531,102.109296 268.911066,107.188553 C262.992009,104.864824 258.224783,99.7855669 256.283412,93.7328893 C254.681844,88.7384942 255.03164,83.1625429 257.155405,78.3728158 L212.581335,78.3728158 C190.916438,78.3728158 173.354155,60.8287864 173.354155,39.1864079 C173.354155,17.5440294 190.916438,0 212.581335,0 L305.477294,0 C327.142191,0 344.704475,17.5440294 344.704475,39.1864079 Z" id="Path" fill="#FED26F"></path>
                    <g id="Group-2" transform="translate(281.489896, 537.590227) rotate(1.000000) translate(-281.489896, -537.590227) translate(113.952357, 442.087576)">
                        <path d="M335.075077,181.662696 C311.651203,183.195209 288.559636,184.635372 265.652961,185.908306 C200.433402,189.527433 136.720465,191.763804 71.1885874,190.76792 C47.7422269,190.410999 24.0635015,189.639751 5.45785057e-13,188.371808 C0.479720932,184.061303 -0.102440407,185.671191 0.911969479,179.496212 C7.78547095,144.393177 22.5993533,110.862591 43.8994623,82.1092522 C46.298067,78.8670138 48.7816222,75.6846781 51.345131,72.5697331 C70.2066586,49.6444365 92.8809683,30.2334369 118.443598,15.5921968 C128.984965,9.55449486 140.018547,4.32797651 151.476881,-5.92162362e-13 C151.691756,2.08162192 152.898554,4.28804132 153.098438,6.37215919 C154.550093,6.12755614 156.001749,5.93037612 157.438413,5.7631475 C163.08263,5.10920872 168.906742,4.79971098 174.353573,6.42457413 C175.040673,6.629242 175.715281,6.86386125 176.377396,7.12094406 C176.40488,6.3372159 176.484833,5.55348774 176.62725,4.76975958 C182.873617,7.1633752 189.030035,9.79161007 195.081515,12.6469764 C226.085979,27.2632569 254.30956,47.7674824 277.738431,72.7793928 C278.665392,73.7702848 279.587355,74.7661687 280.499325,75.7720363 C308.950274,107.091211 324.423773,140.659237 335.075077,181.662696 Z" id="Path" fill="#30AC45"></path>
                        <path d="M195.081515,12.6469764 C191.616031,25.9653631 186.30662,39.825371 174.578442,46.8090378 C162.510463,53.9948765 146.157476,51.4115688 135.186358,42.6408021 C126.743769,35.8892585 121.251964,26.1026404 118.443598,15.5921968 C128.984965,9.55449486 140.018547,4.32797651 151.476881,9.88404611e-14 C151.691756,2.08162192 152.898554,4.28804132 153.098438,6.37215919 C154.550093,6.12755614 156.001749,5.93037612 157.438413,5.7631475 C163.08263,5.10920872 168.906742,4.79971098 174.353573,6.42457413 C175.040673,6.629242 175.715281,6.86386125 176.377396,7.12094406 C176.40488,6.3372159 176.484833,5.55348774 176.62725,4.76975958 C182.873617,7.1633752 189.030035,9.79161007 195.081515,12.6469764 Z" id="Path" fill="#258C31"></path>
                        <path d="M71.1885874,190.76792 C47.7422269,190.410999 24.0635015,189.639751 5.51348258e-14,188.371808 C0.479720932,184.061303 -0.102440407,185.671191 0.911969479,179.496212 C7.78547095,144.393177 22.5993533,110.862591 43.8994623,82.1092522 C57.4365874,117.017603 66.6262415,153.608223 71.1885874,190.76792 Z" id="Path" fill="#258C31"></path>
                        <path d="M335.075077,181.662696 C311.651203,183.195209 288.559636,184.635372 265.652961,185.908306 C262.884572,175.597538 263.276844,164.580417 264.088871,153.870298 C266.162665,126.499715 270.742501,99.3213203 277.738431,72.7793928 C278.665392,73.7702848 279.587355,74.7661687 280.499325,75.7720363 C308.950274,107.091211 324.423773,140.659237 335.075077,181.662696 Z" id="Path" fill="#258C31"></path>
                        <path d="M123.020935,100.756491 L209.94287,96.7829396 C212.321486,96.6731178 213.843101,99.286377 212.566344,101.29312 C194.374426,129.899198 169.656306,154.342032 140.845566,172.23799 C138.529413,173.678153 135.668577,171.451766 136.488101,168.850987 L164.499306,80.0575817 C165.313832,77.4792658 168.884255,77.2696061 169.993609,79.7356042 L208.046473,164.375749 C209.248274,167.051407 206.217537,169.647195 203.756469,168.049787 C174.605926,149.125498 146.759625,128.319262 121.214486,105.905635 C119.223144,104.158471 120.372476,100.876297 123.020935,100.756491 Z" id="Path" fill="#FED26F"></path>
                    </g>
                    <path d="M311.93104,268.933572 C310.192052,269.634934 308.453063,270.338791 306.716574,271.040153 C307.755969,270.832989 308.792866,270.62333 309.832261,270.416166 C309.127671,270.446117 308.425579,270.473573 311.93104,268.933572 Z" id="Path" fill="#474747"></path>
                    <path d="M293.082005,447.069491 C291.987642,454.305249 290.803331,461.785609 286.818149,467.923149 C282.830469,474.060689 275.214899,478.486008 268.181491,476.446817 C262.742155,474.871873 258.944364,469.919909 256.585736,464.775757 C254.229607,459.634101 252.912873,454.040678 250.266912,449.038795 C254.626876,445.309846 257.567665,439.976002 258.439658,434.317685 C258.532104,433.716161 258.602063,433.112141 258.647037,432.505625 C259.121761,426.183385 256.975509,419.7039 252.820427,414.911677 C252.638033,414.699521 252.975336,412.30341 254.102181,410.563733 C255.229025,408.82156 257.027979,407.623504 258.876903,406.677539 C260.540935,405.828917 262.289918,405.147522 264.09137,404.64334 C267.799213,403.60253 271.721931,403.305512 275.542209,403.812189 C277.528553,404.074264 279.56237,404.593422 281.251387,405.619257 C281.95098,406.046064 282.590608,406.557734 283.142787,407.171737 C286.675732,411.10785 285.25156,417.190479 284.247145,422.379558 C283.520068,426.128474 283.135291,430.014668 283.664983,433.776064 C283.794908,434.702061 283.982299,435.623066 284.232153,436.529096 C285.496418,441.116651 288.627097,445.379733 293.082005,447.069491 Z" id="Path" fill="#FC9895"></path>
                    <path d="M284.247145,422.379558 C283.520068,426.128474 283.135291,430.014668 283.664983,433.776064 C281.960975,435.535708 280.174514,437.225466 278.385555,438.877784 C276.706531,440.432761 274.900082,442.030169 272.661384,442.509391 C269.513216,443.183297 266.352555,441.473572 263.824025,439.486796 C261.860168,437.944299 260.071209,436.202127 258.439658,434.317685 C258.532104,433.716161 258.602063,433.112141 258.647037,432.505625 C259.121761,426.183385 256.975509,419.7039 252.820427,414.911677 C252.638033,414.699521 252.975336,412.30341 254.102181,410.563733 C255.229025,408.82156 257.027979,407.623504 258.876903,406.677539 C260.540935,405.828917 262.289918,405.147522 264.09137,404.64334 C269.790555,404.401233 275.57469,404.862984 281.251387,405.619257 C281.95098,406.046064 282.590608,406.557734 283.142787,407.171737 C286.675732,411.10785 285.25156,417.190479 284.247145,422.379558 Z" id="Path" fill="#DC657C"></path>
                    <path d="M169.074144,288.946095 C162.73783,283.657178 156.399018,278.368261 150.062704,273.079344 C141.867471,266.240442 128.342839,268.471821 121.37939,276.556202 C114.413442,284.640582 113.663878,296.903182 117.831454,306.722248 C121.999029,316.541313 130.401641,324.089065 139.758698,329.230721 C149.115755,334.372377 159.47223,337.36502 169.733761,340.317729 C176.857117,342.366903 184.125389,335.528002 185.094825,328.184918 C186.064261,320.84433 182.551304,313.675963 178.546134,307.446073 C174.540964,301.216183 169.843697,295.190961 169.074144,288.946095 Z" id="Path" fill="#FC9895"></path>
                    <path d="M164.024582,298.69777 C161.316157,294.796601 158.570255,290.853001 154.994835,287.725576 C151.416916,284.600647 146.864564,282.329333 142.114827,282.419187 C137.362592,282.509041 132.520409,285.3694 131.016284,289.872092 C129.687057,293.853132 131.068753,298.22354 132.94766,301.977448 C137.290134,310.653368 144.60338,318.058851 153.740564,321.34352 C162.87525,324.62819 173.811389,323.345272 181.222078,317.080438 L164.024582,298.69777 Z" id="Path" fill="#DC657C"></path>
                    <path d="M356.77995,303.834434 C362.901389,298.954853 369.02033,294.075272 375.141768,289.198186 C383.054665,282.888426 395.827235,285.292025 402.258494,293.104347 C408.689753,300.916669 409.139491,312.555282 404.979411,321.777816 C400.819331,330.997853 392.694058,337.974032 383.714282,342.64645 C374.734505,347.321363 364.852754,349.937118 355.063449,352.51793 C348.267402,354.310022 341.521327,347.670796 340.75927,340.689625 C339.997213,333.708454 343.477688,326.991854 347.410401,321.1713 C351.340614,315.350745 355.92045,309.737355 356.77995,303.834434 Z" id="Path" fill="#FC9895"></path>
                    <path d="M361.359786,313.184261 C364.010744,309.542671 366.696681,305.863641 370.15467,302.975828 C373.612658,300.088014 377.97512,298.031352 382.477501,298.218548 C386.979882,298.405744 391.509747,301.218679 392.838973,305.5192 C394.01329,309.320531 392.609107,313.433856 390.750189,316.953145 C386.447691,325.084949 379.356816,331.94881 370.626895,334.869071 C361.896973,337.789332 351.557988,336.339185 344.666997,330.24158 L361.359786,313.184261 Z" id="Path" fill="#DC657C"></path>
                    <path d="M349.466704,217.534483 C362.768966,233.585934 369.752404,254.304811 371.129103,275.096071 C372.505802,295.887331 368.530614,316.778429 361.767049,336.488942 C355.185877,355.667818 345.836316,374.115382 332.441608,389.348162 C319.046901,404.580942 301.397168,416.469149 281.621172,421.026753 C261.845177,425.584357 239.960408,422.307175 223.549954,410.376537 C196.600631,396.506545 176.914583,371.92893 167.185243,343.80457 C158.35538,318.275998 157.673277,290.758155 157.15108,264.385952 C159.137425,247.910189 161.153752,231.30214 166.398201,215.555195 C171.64265,199.808249 180.407551,184.785129 193.672335,174.796339 C204.396097,166.721942 217.553442,162.316591 230.855704,160.484564 C246.554072,158.323072 262.762143,159.620965 277.798396,164.617856 C306.896469,174.284669 331.127373,195.405394 349.466704,217.534483 Z" id="Path" fill="#FC9895"></path>
                    <path d="M328.711279,277.714322 C327.014765,276.373997 324.328828,277.307482 323.072059,279.067127 C321.81529,280.826771 321.605412,283.100581 321.433013,285.254586 C321.123193,289.148267 320.815872,293.044444 320.506052,296.938126 C320.326156,299.214432 320.151258,301.555632 320.845854,303.7321 C321.54045,305.908568 323.316917,307.900336 325.590594,308.129963 C327.606921,308.334631 329.563283,307.104128 330.740098,305.454306 C331.916914,303.804483 332.451603,301.792748 332.873857,299.810964 C334.073159,294.200069 334.560376,288.304636 333.063747,282.766124 C332.671475,281.310986 332.124293,279.860839 331.154857,278.70771 C330.185421,277.554581 328.72627,276.728422 327.222145,276.825764 C325.71802,276.918114 324.263866,278.108682 328.711279,277.714322 Z" id="Path" fill="#000000"></path>
                    <path d="M216.086796,269.904496 C213.580754,269.223102 210.689935,270.368743 209.333224,272.580154 C208.761057,273.516135 208.451238,274.584402 208.183893,275.647676 C206.215038,283.442526 206.032644,291.681656 207.654201,299.556377 C208.058966,301.515697 208.646124,303.579847 210.162742,304.890221 C211.097198,305.698909 212.338976,306.143188 213.573258,306.11074 C216.64647,306.033366 218.952629,303.227919 220.166922,300.407496 C222.428107,295.14853 222.420611,289.233129 222.378136,283.507421 C222.345655,279.221876 222.158264,274.517011 219.279938,271.337171 C217.965703,269.887024 215.909399,268.866181 214.052979,269.487673 C211.981684,270.184042 211.02474,272.525243 216.086796,269.904496 Z" id="Path" fill="#000000"></path>
                    <path d="M389.283542,271.6891 C388.226657,274.432149 386.740021,277.070367 384.876106,279.341681 C383.421952,282.5964 381.725439,285.75128 379.806555,288.761395 C378.649728,290.57595 377.357979,292.38801 375.521548,293.536146 C373.682617,294.679291 371.164082,295.011253 369.355135,293.815693 C367.838517,292.809825 367.133927,291.000262 366.536774,289.295528 C360.617718,272.430397 356.650026,254.759074 356.460136,236.950474 C356.335209,236.992905 356.215279,237.035337 356.090351,237.072776 C354.118998,237.731706 352.110167,238.305775 350.108831,238.842404 C318.144925,247.423479 283.927331,249.183123 251.778533,241.116214 C223.637403,234.055173 197.207778,219.166834 178.041428,197.784034 C178.093897,198.188378 178.138871,198.595218 178.176349,199.004553 C178.391224,201.365722 178.378732,203.761833 178.348749,206.135481 C178.033932,231.010114 176.199999,256.393921 166.568102,279.366641 C165.181409,282.673774 163.087627,286.345316 159.487221,286.847002 C157.448407,287.139028 155.422086,286.287909 153.615637,285.311993 C142.407157,279.259315 134.971483,267.545824 132.622849,255.183386 C130.279213,242.820948 132.630345,229.924376 137.524997,218.328195 C142.417152,206.729517 149.752884,196.293952 157.618309,186.407496 C158.927547,184.762665 161.356134,183.701887 163.947127,183.444804 C164.032077,183.43482 164.119527,183.427332 164.204477,183.419844 C160.941375,169.604764 167.250205,154.591627 177.514235,144.480535 C181.549387,140.501992 186.104237,137.154924 190.978902,134.26711 C199.206615,129.395016 208.353794,125.8308 217.480985,122.763278 C243.638268,113.965056 272.576434,108.488943 298.723723,117.451898 C316.375954,123.507071 331.232312,135.679817 343.977398,149.155449 C353.162055,158.867189 361.492209,169.517405 368.53811,180.881464 C375.014343,191.319525 380.408705,202.359109 384.386391,213.827998 C388.294117,225.08473 390.835139,236.753294 391.702135,248.668957 C392.261809,256.423873 392.084412,264.420895 389.283542,271.6891 Z" id="Path" fill="#121321"></path>
                    <path d="M264.046396,183.629504 C269.808044,189.035731 275.567194,194.441958 281.326344,199.845688 C243.538326,192.692297 209.558094,167.857599 190.976403,134.269606 C199.204117,129.397512 208.351296,125.833296 217.478486,122.765774 C243.63577,113.967552 272.573935,108.491439 298.721225,117.454394 C316.373456,123.509567 331.229813,135.682313 343.974899,149.157945 C353.159556,158.869685 361.48971,169.519901 368.535611,180.88396 C335.987046,195.769803 297.334531,196.808118 264.046396,183.629504 Z" id="Path" fill="#1E1F36"></path>
                    <path d="M269.985441,388.017821 C271.597004,387.888031 273.208566,387.758242 274.820129,387.628452 C274.582767,386.95205 273.558363,386.732407 269.985441,388.017821 Z" id="Path" fill="#636363"></path>
                    <path d="M197.997319,309.402898 C193.859726,310.408765 189.951999,312.540306 186.741367,315.547925 C183.920508,318.18864 181.511909,322.024915 182.179021,325.948547 C183.028527,330.932958 188.230501,333.42142 192.867803,334.312474 C199.279073,335.545473 205.952691,335.278407 212.296501,333.53873 C217.356057,332.150982 222.747921,329.213249 224.29702,323.846958 C225.563783,319.461574 223.714858,314.524586 220.461751,311.621797 C217.208643,308.719008 212.806204,307.625782 208.553678,307.703156 C204.296155,307.778035 200.108591,308.888732 197.997319,309.402898 Z" id="Path" fill="#C54C67"></path>
                    <path d="M332.863863,312.213337 C336.591694,312.862284 340.184604,314.524586 343.210344,317.003064 C345.868797,319.179532 348.229924,322.441738 347.870133,325.961027 C347.410401,330.431273 342.943,332.944694 338.880363,334.005472 C333.266129,335.475587 327.332081,335.630336 321.602914,334.459735 C317.033072,333.52625 312.078454,331.237464 310.389437,326.567543 C309.007741,322.751236 310.356956,318.266015 313.072876,315.500502 C315.788796,312.73499 319.626563,311.506983 323.404366,311.324779 C327.182168,311.142575 330.95997,311.881376 332.863863,312.213337 Z" id="Path" fill="#C54C67"></path>
                    <path d="M389.283542,271.6891 C388.226657,274.432149 386.740021,277.070367 384.876106,279.341681 C383.421952,282.5964 381.725439,285.75128 379.806555,288.761395 C378.649728,290.57595 377.357979,292.38801 375.521548,293.536146 C373.682617,294.679291 371.164082,295.011253 369.355135,293.815693 C367.838517,292.809825 367.133927,291.000262 366.536774,289.295528 C360.617718,272.430397 356.650026,254.759074 356.460136,236.950474 C356.335209,236.992905 356.215279,237.035337 356.090351,237.072776 L356.132827,236.992905 C366.774136,230.947716 376.371053,223.070499 384.383892,213.823006 C388.291619,225.079738 390.832641,236.748302 391.699636,248.663965 C392.261809,256.423873 392.084412,264.420895 389.283542,271.6891 Z" id="Path" fill="#000000"></path>
                    <path d="M166.568102,279.369137 C165.181409,282.67627 163.087627,286.347812 159.487221,286.849498 C157.448407,287.141524 155.422086,286.290405 153.615637,285.314489 C142.407157,279.261811 134.971483,267.54832 132.622849,255.185882 C130.279213,242.823444 132.630345,229.926872 137.524997,218.330691 C142.417152,206.732013 149.752884,196.296448 157.618309,186.409992 C158.927547,184.765161 161.356134,183.704383 163.947127,183.4473 C170.07856,187.056443 174.865775,192.692297 178.178848,199.007049 C178.393723,201.368218 178.38123,203.764329 178.351248,206.137977 C178.033932,231.010114 176.202498,256.396417 166.568102,279.369137 Z" id="Path" fill="#000000"></path>
                    <path d="M324.366306,373.726013 C321.777812,378.735384 317.79263,382.873669 313.682521,386.737398 C312.870494,387.498663 312.048472,388.254936 311.211459,389.006217 C300.152892,398.915136 286.97056,407.328982 272.231634,407.885579 C262.68219,408.247492 253.202704,405.199937 244.994979,400.307876 C239.128392,396.808555 233.866453,392.398212 229.059249,387.53111 C227.145363,385.591758 225.301435,383.577526 223.519972,381.520864 C218.705272,375.959888 214.127935,369.452948 212.923636,362.394403 C212.386448,359.254498 213.513293,358.061434 216.19923,356.359197 C216.209224,356.354205 216.21672,356.349213 216.229213,356.341725 C232.407302,350.358934 250.694163,347.111703 269.120944,347.383762 C288.687062,347.673292 308.558002,348.2848 324.766074,357.38004 C325.003436,357.512325 325.238299,357.649602 325.475661,357.784384 C329.798146,361.206331 326.952302,368.716643 324.366306,373.726013 Z" id="Path" fill="#000000"></path>
                    <path d="M311.211459,389.006217 C300.152892,398.915136 286.97056,407.328982 272.231634,407.885579 C262.68219,408.247492 253.202704,405.199937 244.994979,400.307876 C239.128392,396.808555 233.866453,392.398212 229.059249,387.53111 C230.31352,386.689975 231.587778,385.8738 232.882025,385.08508 C243.688239,378.503261 256.088525,373.9806 268.741165,374.300082 C275.672133,374.474798 282.503159,376.092174 289.066841,378.336032 C296.832324,380.994219 304.290485,384.588386 311.211459,389.006217 Z" id="Path" fill="#C54C67"></path>
                    <path d="M324.768572,357.382536 C321.652885,360.085649 318.332316,362.609054 314.397106,363.732231 C308.762883,365.342119 305.589729,364.798002 296.85481,364.690676 C281.201416,364.62079 265.283177,364.21395 250.014559,363.495116 C240.620024,363.452685 235.118224,364.268861 227.839958,362.416866 C223.537461,361.321144 219.727178,359.084773 216.201729,356.359197 C216.211723,356.354205 216.219219,356.349213 216.231711,356.341725 C232.4098,350.358934 250.696662,347.111703 269.123443,347.383762 C288.68956,347.675788 308.560501,348.287296 324.768572,357.382536 Z" id="Path" fill="#FFFFFF"></path>
                    <path d="M350.666007,238.695143 C347.855142,240.659455 344.856886,242.379165 341.868625,243.834303 C315.801289,256.531198 285.091653,258.842448 257.022982,251.551779 C228.95431,244.263606 203.614051,227.658054 184.617602,205.766081 C188.262982,227.226255 182.941078,249.941892 170.6982,267.897753 C176.759673,248.094889 178.086402,226.936725 178.348749,206.135481 C178.378732,203.761833 178.391224,201.365722 178.176349,199.004553 C178.138871,198.595218 178.093897,198.190874 178.041428,197.784034 C197.207778,219.166834 223.637403,234.055173 251.778533,241.116214 C283.927331,249.180627 318.144925,247.423479 350.108831,238.842404 C350.293723,238.794981 350.481114,238.745062 350.666007,238.695143 Z" id="Path" fill="#DC657C"></path>
                    <path d="M311.741151,260.449839 C310.501872,257.399789 311.016572,253.733239 313.050389,251.137451 C315.084206,248.541664 318.564681,247.111485 321.885249,247.505845 C330.999947,248.586591 339.627428,253.281472 345.396572,260.300082 C347.110575,262.3842 348.644683,264.942548 348.217431,267.580767 C347.79018,270.218986 344.414643,272.343039 342.225917,270.738143 C333.423537,264.28861 322.270026,260.998948 311.741151,260.449839 Z" id="Path" fill="#000000"></path>
                    <path d="M229.548964,257.512107 C231.190509,254.634277 231.163025,250.905328 229.479005,248.047466 C227.794985,245.187108 224.511895,243.30017 221.146352,243.252747 C211.909226,243.122957 202.677096,246.66471 195.988487,252.902088 C194.002143,254.754082 192.130732,257.102771 192.208187,259.793405 C192.285642,262.484038 195.371346,265.047378 197.764954,263.739501 C207.404347,258.468055 218.970118,256.66598 229.548964,257.512107 Z" id="Path" fill="#000000"></path>
                    <path d="M292.444876,308.714016 C293.601703,308.40951 294.883457,308.446949 295.937844,309.008538 C296.99223,309.572622 297.769278,310.713271 297.716809,311.906335 C297.659342,313.204229 296.664921,314.314926 295.493103,314.881507 C294.321284,315.448087 292.989559,315.567893 291.692813,315.657747 C284.337092,316.174409 276.50165,315.917326 269.723094,312.188377 C273.598339,312.265752 277.493573,312.34063 281.326344,311.776546 C285.161613,311.212461 288.866957,309.657485 292.444876,308.714016 Z" id="Path" fill="#C54C67"></path>
                    <path d="M208.848506,331.222489 C203.686509,331.222489 198.342118,330.573542 193.462457,328.287252 C186.693894,325.112404 181.047179,318.777684 177.559208,310.451197 C174.665891,303.539912 173.426612,296.22678 172.369727,286.664797 C171.5577,279.319218 170.715689,271.724043 171.575189,264.113893 C172.267287,257.993825 174.441022,249.327888 180.872281,242.7885 C186.049269,237.527039 193.759784,233.987782 203.78895,232.268073 C212.026658,230.857861 219.514801,230.957699 226.046002,232.570083 C234.053844,234.546875 240.804916,238.85738 245.054944,244.712877 C250.276906,251.906204 251.513687,260.799272 252.408166,270.044269 C253.310142,279.371633 254.232105,290.209046 253.734895,300.819327 C253.460054,306.689801 252.655523,313.416385 248.780277,318.797652 C242.309041,327.78307 230.208581,329.600121 219.374883,330.596005 C216.121775,330.893023 212.531364,331.222489 208.848506,331.222489 Z M177.089482,286.143144 C178.101393,295.283311 179.265716,302.232035 181.93916,308.61917 C184.972396,315.859919 189.779599,321.321057 195.481283,323.994219 C202.672099,327.366247 211.31707,326.572535 218.945133,325.871173 C228.736937,324.970135 239.625602,323.392695 244.930017,316.027148 C248.080684,311.651748 248.752793,305.773787 248.995152,300.597188 C249.477371,290.2989 248.612874,280.082978 247.683415,270.501028 C246.853897,261.932433 245.734549,253.725751 241.212179,247.495861 C237.61927,242.546393 231.827639,238.879843 224.909163,237.172614 C219.017591,235.719971 212.184066,235.642597 204.593482,236.94049 C195.566233,238.487979 188.725213,241.572973 184.26031,246.110609 C178.776,251.684064 176.899592,259.266759 176.292445,264.643034 C175.49291,271.726539 176.304938,279.057143 177.089482,286.143144 Z" id="Shape" fill="#FFFFFF"></path>
                    <path d="M367.97094,266.82699 C367.288837,260.771817 365.137588,252.195734 358.771292,245.726233 C353.649271,240.519682 346.01871,237.017865 336.096982,235.318123 C327.944225,233.920392 320.536034,234.020229 314.074793,235.615141 C306.151902,237.56947 299.470789,241.837543 295.265735,247.630642 C290.098741,254.74909 288.874453,263.547313 287.989967,272.694968 C287.665156,276.03954 287.340345,279.583788 287.077998,283.240355 C287.340345,283.247842 287.602693,283.262818 287.86504,283.285282 C289.186771,283.402591 290.518496,283.722073 291.707805,284.298637 C291.970152,280.509786 292.312453,276.783333 292.664748,273.146735 C293.48677,264.667994 294.593626,256.54867 299.068523,250.386171 C302.623954,245.486622 308.353122,241.860007 315.199139,240.170249 C321.028248,238.732582 327.791813,238.655208 335.302444,239.943118 C344.234748,241.473135 351.003311,244.523185 355.420741,249.013398 C360.847584,254.529447 362.704004,262.032271 363.303655,267.353636 C364.095694,274.362262 363.293661,281.612995 362.516613,288.626614 C361.517194,297.669439 360.365364,304.54578 357.716905,310.865524 C354.718649,318.028899 349.958918,323.43263 344.319699,326.078337 C337.203838,329.415421 328.648815,328.629197 321.103204,327.935323 C311.41634,327.044269 300.640108,325.484301 295.390662,318.193632 C293.209431,315.166045 292.230001,311.412137 291.757776,307.675701 C291.505422,307.865393 291.248072,308.045101 290.985725,308.217322 C289.843889,308.97609 288.632094,309.612557 287.375325,310.154179 C288.01995,313.913079 289.229246,317.674474 291.57788,320.934185 C297.981655,329.824757 309.95469,331.621841 320.673454,332.607741 C323.896579,332.904759 327.447014,333.229232 331.092393,333.229232 C336.199422,333.229232 341.488845,332.587773 346.316037,330.326443 C353.012142,327.184042 358.601391,320.916713 362.051883,312.675088 C364.915218,305.836186 366.139505,298.600428 367.186396,289.140779 C367.990928,281.872574 368.820446,274.35727 367.97094,266.82699 Z" id="Path" fill="#FFFFFF"></path>
                    <path d="M266.245117,296.458903 C273.490902,296.588693 280.69671,292.932127 284.866784,287.011734 C285.256557,286.460129 285.621345,285.703857 285.229073,285.152252 C284.906761,284.700485 284.259637,284.668038 283.70496,284.700485 C276.166845,285.144764 269.05848,290.031833 266.245117,296.458903 Z" id="Path" fill="#FFFFFF"></path>
                    <path d="M262.817111,302.751192 C263.469232,299.119586 265.048313,295.585321 267.35697,292.577702 L267.784222,292.008625 C267.926639,291.816437 268.091543,291.649209 268.246453,291.467004 L269.188405,290.393746 C269.520712,290.054297 269.868009,289.724831 270.207812,289.390374 C270.380212,289.225642 270.547614,289.053421 270.725011,288.89368 L271.272193,288.43193 C271.641978,288.127424 271.99927,287.805446 272.381547,287.515916 L273.553366,286.677277 C273.938142,286.385251 274.357898,286.148136 274.767659,285.896045 L275.387299,285.519156 L275.697119,285.33196 C275.802057,285.274553 275.911994,285.222138 276.019431,285.167228 L277.316177,284.513289 C277.531052,284.398475 277.753422,284.306125 277.978291,284.216271 L278.6504,283.93922 C279.537385,283.539868 280.484334,283.292769 281.411294,282.988264 C281.88352,282.863466 282.360742,282.763628 282.837964,282.648815 L283.555047,282.486578 L284.282124,282.384244 C284.771839,282.319349 285.244065,282.244471 285.75127,282.18956 C286.285959,282.149625 286.825645,282.132153 287.360334,282.169592 C289.514081,282.28191 291.570385,283.053158 293.334358,284.171344 C295.090837,285.314489 296.574973,286.814554 297.706815,288.554231 C298.831161,290.293908 299.608209,292.280684 299.890544,294.374785 C299.93302,294.634364 299.943014,294.901431 299.970498,295.163506 C299.987988,295.42558 299.982991,295.682663 299.990486,295.942242 C299.990486,296.201821 300.007976,296.461399 299.990486,296.718482 L299.935518,297.492226 L299.905536,297.879099 C299.890544,298.006392 299.868058,298.133685 299.848069,298.260979 L299.72564,299.022244 C299.630696,299.526425 299.495774,300.020623 299.363351,300.514821 C298.768697,302.466654 297.839238,304.288697 296.64993,305.893593 C296.577472,305.993431 296.505014,306.09826 296.430058,306.195603 L296.192696,306.485133 L295.717972,307.061697 C295.388164,307.433594 295.045863,307.795506 294.698565,308.149931 C293.976485,308.833821 293.229419,309.485264 292.41989,310.054341 L291.815242,310.481148 C291.610361,310.618425 291.392988,310.740727 291.18311,310.86802 C290.968235,310.992818 290.765853,311.130095 290.543482,311.239917 L289.883866,311.579366 L289.554057,311.746594 L289.219252,311.893855 L288.547143,312.185881 C288.097405,312.373078 287.632675,312.525331 287.17794,312.687567 C285.329015,313.284099 283.420126,313.616061 281.518732,313.728378 C279.617338,313.8382 277.720941,313.723386 275.874515,313.406401 L275.182418,313.284099 C274.952552,313.239172 274.725184,313.186757 274.497816,313.139334 C274.040582,313.046984 273.588345,312.93217 273.141105,312.812365 C272.244127,312.565266 271.36214,312.275736 270.500142,311.94627 C270.959874,312.008669 271.412111,312.086043 271.869345,312.145946 C272.326579,312.195865 272.778816,312.265752 273.23605,312.293207 C273.690786,312.335638 274.145521,312.380566 274.600257,312.398037 C274.827624,312.410517 275.054992,312.425493 275.28236,312.43298 L275.964463,312.442964 C277.775909,312.460436 279.577361,312.343126 281.326344,312.023645 C283.075326,311.714147 284.774338,311.219949 286.373408,310.538555 C286.76568,310.351359 287.162948,310.176642 287.547725,309.979462 L288.117393,309.674956 L288.402228,309.522703 L288.674569,309.352979 L289.216754,309.016026 C289.399148,308.906204 289.564052,308.768927 289.73895,308.649121 C289.91135,308.524323 290.086248,308.404518 290.256149,308.274728 L290.750861,307.872881 C293.374335,305.71638 295.328198,302.773656 296.170209,299.618775 C296.22018,299.421595 296.255159,299.221919 296.300133,299.022244 C296.337611,298.822568 296.400075,298.627884 296.420063,298.425712 L296.500017,297.824188 C296.51251,297.72435 296.529999,297.624512 296.539994,297.524674 L296.552486,297.222664 L296.582469,296.62114 C296.592463,296.421464 296.569976,296.221788 296.567478,296.022112 C296.557483,295.822436 296.559982,295.620264 296.539994,295.42558 C296.515008,295.233392 296.505014,295.038708 296.467536,294.84652 C296.352603,294.075272 296.15022,293.309015 295.865386,292.570214 C295.578053,291.831413 295.20577,291.120067 294.771023,290.451153 C293.052023,287.763015 290.176196,285.7388 287.120473,285.466742 C286.740694,285.42431 286.358416,285.42431 285.976139,285.43679 C285.568876,285.466742 285.129132,285.521652 284.706877,285.559092 L284.067249,285.62149 L283.432619,285.736304 C283.010364,285.813679 282.583113,285.878573 282.160858,285.965931 C281.328842,286.193063 280.479337,286.370275 279.667309,286.677277 L279.050168,286.884441 C278.842789,286.951832 278.637908,287.019222 278.438024,287.111572 L277.233725,287.620746 C275.65964,288.362043 274.100547,289.190698 272.678874,290.234005 L272.134191,290.610894 C271.959293,290.743179 271.789392,290.885448 271.616992,291.022725 L270.580095,291.853876 L269.598166,292.752418 C269.438259,292.904671 269.263361,293.04694 269.11095,293.209177 L268.651217,293.693391 C267.386953,294.953846 266.310079,296.394009 265.305664,297.89657 L264.591079,299.052195 C264.358714,299.441563 264.171323,299.855891 263.956448,300.257739 L263.636634,300.864254 C263.534194,301.068922 263.454241,301.281078 263.361794,301.490738 C263.189395,301.905065 263.004502,302.326881 262.817111,302.751192 Z" id="Path" fill="#262626"></path>
                    <path d="M252.675511,282.047291 L251.153896,278.353285 C262.894566,273.531111 276.544126,273.031921 288.607108,276.983009 L287.360334,280.776852 C276.191831,277.11779 263.549185,277.579541 252.675511,282.047291 Z" id="Path" fill="#FFFFFF"></path>
                    <path d="M157.978099,273.074352 L156.918716,271.634189 C156.386525,270.910364 156.551429,269.88952 157.286002,269.372859 C161.74091,266.242938 166.52063,263.587248 171.535213,261.460699 C172.362232,261.10877 173.319175,261.508122 173.651482,262.341769 L174.316095,264.001575 C174.638407,264.810263 174.258628,265.726277 173.456595,266.068222 C168.78931,268.050006 164.339399,270.520996 160.189313,273.433769 C159.474729,273.935455 158.495298,273.775714 157.978099,273.074352 Z" id="Path" fill="#FFFFFF"></path>
                </g>
                <g id="Ayo-Main-!" transform="translate(195.000000, 30.000000)" fill="#201305" fill-opacity="0.707741477">
                    <path d="M2.50128614,20.9414784 C3.81212059,20.9414784 4.54779298,20.2741273 5.01594814,18.6457906 L5.67136537,16.5903491 L12.2790411,16.5903491 L12.9344583,18.7258727 C13.3624859,20.3008214 14.0981582,20.9414784 15.5159996,20.9414784 C16.9472168,20.9414784 17.9771581,19.9671458 17.9771581,18.5924025 C17.9771581,18.0852156 17.8835271,17.6314168 17.6561375,17.0041068 L12.8542031,3.95071869 C12.1185307,1.9486653 10.9414549,1.09445585 8.92169976,1.09445585 C7.00895154,1.09445585 5.81849985,1.98870637 5.10957917,3.95071869 L0.347772405,17.0041068 C0.133758617,17.5913758 0,18.1919918 0,18.6057495 C0,20.0605749 0.949686182,20.9414784 2.50128614,20.9414784 Z M6.64780327,12.8932238 L8.84144459,5.47227926 L8.94845149,5.47227926 L11.2089721,12.8932238 L6.64780327,12.8932238 Z" id="Shape"></path>
                    <path d="M21.6287684,26 C25.2134993,26 27.1529993,24.4784394 28.5574648,20.5143737 L32.5702233,9.35626283 C32.7307336,8.90246407 32.8511164,8.31519507 32.8511164,7.91478439 C32.8511164,6.68685832 31.9014302,5.80595483 30.5370923,5.80595483 C29.3198889,5.80595483 28.6109682,6.39322382 28.2364441,7.70123203 L25.5077683,17.0975359 L25.4275131,17.0975359 L22.6988373,7.75462012 C22.3109373,6.33983573 21.668896,5.80595483 20.3981891,5.80595483 C18.9937236,5.80595483 17.9236547,6.74024641 17.9236547,8.00821355 C17.9236547,8.40862423 18.0306616,8.95585216 18.2179237,9.43634497 L22.6587097,21.24846 L22.538327,21.5287474 C22.1102994,22.1694045 21.4281305,22.3295688 20.8529684,22.3295688 C20.6255788,22.3295688 20.4516926,22.3162218 20.2243029,22.3162218 C19.1809857,22.3162218 18.5255685,22.8901437 18.5255685,23.8244353 C18.5255685,25.2258727 19.6223891,26 21.6287684,26 Z" id="Path"></path>
                    <path d="M40.9435127,20.9948665 C45.5314333,20.9948665 48.3938677,18.2320329 48.3938677,13.3737166 C48.3938677,8.60882957 45.4913057,5.76591376 40.9435127,5.76591376 C36.4224714,5.76591376 33.4931577,8.62217659 33.4931577,13.3737166 C33.4931577,18.2186858 36.3555921,20.9948665 40.9435127,20.9948665 Z M40.9435127,17.5246407 C39.3116576,17.5246407 38.3084679,16.0431211 38.3084679,13.3870637 C38.3084679,10.7710472 39.3384093,9.23613963 40.9435127,9.23613963 C42.561992,9.23613963 43.5919333,10.7710472 43.5919333,13.3870637 C43.5919333,16.0431211 42.561992,17.5246407 40.9435127,17.5246407 Z" id="Shape"></path>
                    <path d="M58.0244881,20.9414784 C59.388826,20.9414784 60.1780019,20.113963 60.1780019,18.6724846 L60.1780019,8.62217659 L60.2850087,8.62217659 L64.5652845,19.2197125 C64.9130569,20.1273101 65.5283465,20.5410678 66.4646569,20.5410678 C67.4009672,20.5410678 67.9761292,20.1273101 68.3372775,19.2197125 L72.6309291,8.62217659 L72.7245601,8.62217659 L72.7245601,18.6724846 C72.7245601,20.113963 73.513736,20.9414784 74.8780739,20.9414784 C76.2557876,20.9414784 77.0449635,20.113963 77.0449635,18.6724846 L77.0449635,4.27104723 C77.0449635,2.24229979 75.8946394,1.09445585 73.8748842,1.09445585 C72.1493981,1.09445585 71.2264636,1.78850103 70.517543,3.59034908 L66.5047844,13.7607803 L66.3977775,13.7607803 L62.3716432,3.59034908 C61.6760984,1.78850103 60.7531639,1.09445585 59.0410536,1.09445585 C57.0079226,1.09445585 55.8575985,2.25564682 55.8575985,4.27104723 L55.8575985,18.6724846 C55.8575985,20.113963 56.6467744,20.9414784 58.0244881,20.9414784 Z" id="Path"></path>
                    <path d="M83.7328943,20.8613963 C85.4851322,20.8613963 87.2641218,20.0472279 88.0532977,18.5790554 L88.1469287,18.5790554 L88.1469287,18.912731 C88.2806873,20.3008214 89.17687,20.9548255 90.434201,20.9548255 C91.7851631,20.9548255 92.761601,20.1940452 92.761601,18.5790554 L92.761601,10.6776181 C92.761601,7.75462012 90.1800597,5.76591376 86.2876839,5.76591376 C82.9437185,5.76591376 80.5093117,6.86036961 79.894022,8.66221766 C79.7870151,8.94250513 79.7468875,9.18275154 79.7468875,9.5164271 C79.7468875,10.5308008 80.5494392,11.238193 81.6863875,11.238193 C82.408684,11.238193 83.0105978,10.9712526 83.5590081,10.4240246 C84.4685667,9.43634497 85.0303529,9.14271047 86.0469184,9.14271047 C87.2908735,9.14271047 88.120177,9.78336756 88.120177,10.9445585 L88.120177,11.7720739 L84.7093322,11.9722793 C80.9373392,12.1991786 78.8373289,13.7207392 78.8373289,16.4435318 C78.8373289,19.0728953 81.0175944,20.8613963 83.7328943,20.8613963 Z M85.4182529,17.6047228 C84.2813047,17.6047228 83.5188805,17.0441478 83.5188805,16.1232033 C83.5188805,15.2689938 84.2278012,14.6950719 85.4717564,14.6016427 L88.120177,14.4281314 L88.120177,15.4291581 C88.120177,16.7238193 86.862846,17.6047228 85.4182529,17.6047228 Z" id="Shape"></path>
                    <path d="M97.4297767,4.63141684 C98.8074905,4.63141684 99.8508077,3.63039014 99.8508077,2.32238193 C99.8508077,1.00102669 98.8074905,0 97.4297767,0 C96.052063,0 94.9953699,1.00102669 94.9953699,2.32238193 C94.9953699,3.63039014 96.052063,4.63141684 97.4297767,4.63141684 Z M97.4297767,20.9548255 C98.9144974,20.9548255 99.7973042,20.0605749 99.7973042,18.4989733 L99.7973042,8.26180698 C99.7973042,6.71355236 98.9144974,5.80595483 97.4297767,5.80595483 C95.9316802,5.80595483 95.0622492,6.71355236 95.0622492,8.26180698 L95.0622492,18.4989733 C95.0622492,20.0605749 95.9316802,20.9548255 97.4297767,20.9548255 Z" id="Shape"></path>
                    <path d="M104.492232,20.9548255 C105.869945,20.9548255 106.859759,20.1540041 106.859759,18.4989733 L106.859759,12.426078 C106.859759,10.8244353 107.79607,9.6899384 109.307542,9.6899384 C110.859142,9.6899384 111.648318,10.6776181 111.648318,12.3326489 L111.648318,18.4989733 C111.648318,20.1540041 112.624756,20.9548255 114.015845,20.9548255 C115.406935,20.9548255 116.383373,20.1540041 116.383373,18.4989733 L116.383373,11.3182752 C116.383373,7.8613963 114.577631,5.83264887 111.327297,5.83264887 C109.093528,5.83264887 107.675687,6.82032854 106.913263,8.74229979 L106.819632,8.74229979 L106.819632,8.19507187 C106.819632,6.68685832 105.869945,5.80595483 104.411977,5.80595483 C102.954008,5.80595483 102.111328,6.68685832 102.111328,8.18172485 L102.111328,18.4989733 C102.111328,20.1540041 103.101142,20.9548255 104.492232,20.9548255 Z" id="Path"></path>
                    <path d="M127.471962,14.5349076 C128.822924,14.5349076 129.518469,13.7340862 129.558597,12.3593429 L129.799362,4.05749487 C129.812738,3.84394251 129.826114,3.6036961 129.826114,3.4301848 C129.826114,1.9486653 128.956683,1.08110883 127.485338,1.08110883 C126.000617,1.08110883 125.11781,1.9486653 125.11781,3.4301848 C125.11781,3.6036961 125.131186,3.84394251 125.131186,4.05749487 L125.385328,12.3593429 C125.425455,13.7340862 126.107624,14.5349076 127.471962,14.5349076 Z M127.471962,21.0882957 C128.863052,21.0882957 130,20.0338809 130,18.6858316 C130,17.3511294 128.863052,16.2967146 127.471962,16.2967146 C126.067497,16.2967146 124.930548,17.3511294 124.930548,18.6858316 C124.930548,20.0338809 126.067497,21.0882957 127.471962,21.0882957 Z" id="Shape"></path>
                </g>
            </g>
        </g>
    </g>
</svg>